<ttFont>
          <CharString index="0">
            46 22 -68 callgsubr
            6 60 rlineto
            21 2 -20 11 -49 hhcurveto
            -46 30 callgsubr
            -6 -60 rlineto
            -21 -3 20 -11 49 hhcurveto
            return
          </CharString>
          <CharString index="1">
            rmoveto
            -70 callgsubr
            13 -122 rlineto
            -16 3 20 -5 28 hhcurveto
            49 hlineto
            31 13 8 14 1 hvcurveto
            1 5 0 6 -1 7 -93 636 rcurveline
            19 -3 -19 9 -37 hhcurveto
            -56 hlineto
            -35 -22 -9 -19 -7 hvcurveto
            -224 -636 -3 -7 -1 -6 -1 -5 rlinecurve
            -14 -1 14 -8 33 hhcurveto
            171 265 rmoveto
            return
          </CharString>
          <CharString index="2">
            rmoveto
            4 callgsubr
            -54 9 31 -22 47 hhcurveto
            64 34 40 52 13 -4 16 -10 hvcurveto
            -96 callgsubr
            return
          </CharString>
          <CharString index="3">
            rmoveto
            27 hlineto
            21 20 2 17 11 hvcurveto
            25 45 15 -46 rlineto
            -12 5 18 -6 27 hhcurveto
            27 hlineto
            12 8 3 7 1 hvcurveto
            4 -1 5 -3 6 vhcurveto
            -45 102 rlineto
            18 -8 -20 1 -26 hhcurveto
            -2 hlineto
            -27 -20 -1 -18 -12 hvcurveto
            -67 -102 rlineto
            -3 -6 -3 -4 -5 vvcurveto
            -8 -1 5 -2 16 hhcurveto
            return
          </CharString>
          <CharString index="4">
            rmoveto
            39 41 callgsubr
            6 60 -71 callsubr
            -39 -61 callsubr
            -6 -60 39 callgsubr
            162 hmoveto
            38 73 callgsubr
            6 60 39 callsubr
            -39 -61 callsubr
            -6 -60 39 callgsubr
            return
          </CharString>
          <CharString index="5">
            -61 callgsubr
            7 62 6 62 7 62 rrcurveto
            21 2 89 callsubr
            -35 hlineto
            -39 -19 -10 -22 -2 hvcurveto
            -37 -348 rlineto
            -15 -12 -18 -17 -23 hhcurveto
            -29 -6 18 32 3 hvcurveto
            35 330 -71 callsubr
            -34 -74 callgsubr
            -38 -363 rlineto
            -91 -10 35 -48 77 hhcurveto
            62 47 41 40 29 hvcurveto
            return
          </CharString>
          <CharString index="6">
            rmoveto
            -1 callsubr
            -167 -76 -143 -176 hvcurveto
            -135 -2 61 -85 141 hhcurveto
            47 85 15 40 22 hvcurveto
            9 16 4 22 20 vvcurveto
            26 -6 22 -14 vhcurveto
            -17 -34 -44 -67 hhcurveto
            -45 -32 19 81 -2 hvcurveto
            -4 20 23 -2 31 hhcurveto
            106 79 72 111 hvcurveto
            -252 -94 rmoveto
            68 12 23 54 43 hhcurveto
            25 15 -14 -33 -52 -34 -23 -54 hvcurveto
            return
          </CharString>
          <CharString index="7">
            rmoveto
            -47 callgsubr
            250 26 -93 108 -156 hhcurveto
            -177 -97 -107 -251 -26 hvcurveto
            -251 -26 97 -107 153 hhcurveto
            15 131 -77 callsubr
            return
          </CharString>
          <CharString index="8">
            rmoveto
            24 5 4 11 11 -13 25 -42 81 hvcurveto
            20 -11 -33 7 -36 hhcurveto
            -36 -18 -3 -11 -12 5 -2 84 -106 hvcurveto
            -11 8 13 -14 50 hhcurveto
            return
          </CharString>
          <CharString index="9">
            hlineto
            -40 -19 -74 callsubr
            -48 -455 rlineto
            -53 -5 -38 -39 -52 hhcurveto
            -53 -27 39 53 5 hvcurveto
            48 455 rlineto
            21 2 -16 145 callgsubr
            -49 -465 rlineto
            return
          </CharString>
          <CharString index="10">
            -1 27 56 -28 33 hhcurveto
            44 33 33 37 14 hvcurveto
            1 4 2 128 callgsubr
            -6 10 -17 28 callsubr
            -5 -4 1 -5 hhcurveto
            -13 -7 56 callgsubr
            -12 -8 -1 -6 hhcurveto
            return
          </CharString>
          <CharString index="11">
            52 callsubr
            29 14 106 23 226 hvcurveto
            19 callsubr
            -37 -351 -33 callgsubr
            vhcurveto
            return
          </CharString>
          <CharString index="12">
            -100 callsubr
            endchar
          </CharString>
          <CharString index="13">
            rmoveto
            150 98 78 135 14 hvcurveto
            -92 callgsubr
            -135 -14 83 -78 150 hhcurveto
            return
          </CharString>
          <CharString index="14">
            -36 -344 rlineto
            -14 -8 -21 -21 -26 hhcurveto
            -29 -8 18 31 4 hvcurveto
            34 330 rlineto
            -57 callgsubr
            -36 -349 rlineto
            -104 -11 33 -49 83 hhcurveto
            60 1 47 40 27 43 -5 -42 rcurveline
            -82 -9 -45 -46 -67 -65 -39 35 -10 hhcurveto
            -7 -7 -10 -30 -3 hvcurveto
            -1 -12 -1 -16 -19 vvcurveto
            -38 69 -26 89 147 76 101 203 19 vhcurveto
            return
          </CharString>
          <CharString index="15">
            rmoveto
            -40 -11 40 113 12 hvcurveto
            113 12 19 39 40 hhcurveto
            39 11 -39 -113 -12 hvcurveto
            -31 callsubr
            return
          </CharString>
          <CharString index="16">
            rmoveto
            16 callsubr
            hvcurveto
            9 11 12 22 hhcurveto
            16 16 -8 -14 hvcurveto
            -30 -67 -28 -17 vvcurveto
            -8 30 -15 24 vhcurveto
            return
          </CharString>
          <CharString index="17">
            -39 -98 callsubr
            return
          </CharString>
          <CharString index="18">
            101 353 23 107 rlineto
            -107 vlineto
            36 -353 rlineto
            -14 1 20 -7 26 hhcurveto
            56 hlineto
            30 21 7 14 4 hvcurveto
            195 642 3 6 -1 5 1 4 rlinecurve
            16 1 -17 10 -41 hhcurveto
            -23 hlineto
            -40 -22 -10 -21 -5 hvcurveto
            -87 -369 -11 -46 -11 -54 -14 -53 rlinecurve
            -2 53 -1 54 -3 46 -25 379 rcurveline
            16 -1 -17 5 -32 hhcurveto
            -40 hlineto
            -32 -18 -5 -16 -4 hvcurveto
            -96 -379 -10 -44 -16 -53 -13 -53 rlinecurve
            -1 53 1 53 -2 44 -8 369 rcurveline
            21 -1 -20 10 -40 hhcurveto
            -29 hlineto
            -41 -19 -10 -16 -1 hvcurveto
            -1 -4 -2 -5 1 -6 69 -642 rcurveline
            return
          </CharString>
          <CharString index="19">
            30 -21 53 -26 -6 -5 -1 -4 -5 vhcurveto
            -32 -22 rlineto
            -8 -5 -3 -7 -7 -13 28 -17 -25 vvcurveto
            return
          </CharString>
          <CharString index="20">
            rmoveto
            39 hlineto
            41 41 callgsubr
            29 269 191 358 5 11 4 8 1 6 rlinecurve
            12 1 -18 8 -44 hhcurveto
            -42 hlineto
            -28 -23 -3 -16 -6 hvcurveto
            -111 -281 -44 281 rlineto
            15 -2 -24 4 -27 hhcurveto
            -51 hlineto
            -40 -21 -8 -12 -1 hvcurveto
            -1 -6 3 -9 4 -10 117 -355 rcurveline
            -29 -272 62 callsubr
            return
          </CharString>
          <CharString index="21">
            57 callsubr
            24 226 rlineto
            24 hlineto
            35 10 -12 -28 8 hvcurveto
            33 -190 rlineto
            -20 3 22 -7 32 hhcurveto
            35 hlineto
            43 20 10 17 2 hvcurveto
            3 -1 5 -1 4 vhcurveto
            -39 192 -7 41 -21 42 -28 17 rlinecurve
            4 vlineto
            59 30 45 50 9 89 rrcurveto
            151 16 -88 46 -111 hhcurveto
            -167 hlineto
            -28 -13 -12 -28 -3 hvcurveto
            -67 -630 55 callsubr
            137 404 rmoveto
            17 167 rlineto
            53 hlineto
            31 23 -21 -60 -6 hvcurveto
            -60 -7 -29 -26 -26 hhcurveto
            return
          </CharString>
          <CharString index="22">
            68 212 8 25 6 26 6 25 rlinecurve
            5 hlineto
            -25 2 -26 2 -25 vhcurveto
            21 -212 rlineto
            return
          </CharString>
          <CharString index="23">
            -84 callgsubr
            hvcurveto
            return
          </CharString>
          <CharString index="24">
            73 callsubr
            12 116 callsubr
            12 98 callsubr
            -41 -18 -12 26 callgsubr
            -12 41 hhcurveto
            return
          </CharString>
          <CharString index="25">
            110 12 24 37 39 hhcurveto
            19 12 -9 -11 10 hvcurveto
            -3 -13 -4 -26 -4 -30 -16 -159 rcurveline
            return
          </CharString>
          <CharString index="26">
            rmoveto
            30 29 3 11 23 hvcurveto
            24 12 16 21 37 vvcurveto
            1 43 -13 28 -29 -8 rrcurveto
            -6 -22 -16 -5 -29 hhcurveto
            -82 -34 76 147 15 hvcurveto
            148 16 46 74 81 hhcurveto
            27 20 -5 -5 16 hvcurveto
            26 -10 24 51 6 46 3 21 -4 19 -25 7 rrcurveto
            5 -18 -32 6 -36 hhcurveto
            -187 -97 70 callsubr
            89 -113 183 hhcurveto
            endchar
          </CharString>
          <CharString index="27">
            578 rmoveto
            -107 callsubr
            return
          </CharString>
          <CharString index="28">
            rmoveto
            55 98 28 41 4 hvcurveto
            22 2 -16 54 -22 hhcurveto
            -4 -6 -3 -4 -9 hvcurveto
            -7 -16 -25 -14 -32 hhcurveto
            -51 -23 40 113 12 hvcurveto
            112 12 32 40 53 hhcurveto
            29 20 -12 -8 14 hvcurveto
            -5 7 6 -3 5 hhcurveto
            20 31 55 21 2 hvcurveto
            37 4 -69 32 -73 hhcurveto
            -148 -78 -94 -177 -18 hvcurveto
            -182 -19 64 -86 139 hhcurveto
            endchar
          </CharString>
          <CharString index="29">
            hhcurveto
            -84 callsubr
            return
          </CharString>
          <CharString index="30">
            rmoveto
            -81 callgsubr
            -26 callsubr
            return
          </CharString>
          <CharString index="31">
            rmoveto
            50 13 13 12 10 hvcurveto
            82 107 5 1 40 callgsubr
            -34 -6 -21 -10 vhcurveto
            -37 110 callsubr
            5 -4 24 vhcurveto
            165 hmoveto
            51 12 13 12 9 hvcurveto
            83 107 5 1 40 callgsubr
            -33 -6 -21 -10 vhcurveto
            -38 -80 -18 68 callgsubr
            return
          </CharString>
          <CharString index="32">
            -131 -14 21 -148 116 hhcurveto
            62 121 rmoveto
            -42 -4 72 83 9 hvcurveto
            return
          </CharString>
          <CharString index="33">
            -11 -55 callgsubr
            return
          </CharString>
          <CharString index="34">
            -100 callgsubr
            -116 -51 callsubr
            return
          </CharString>
          <CharString index="35">
            rmoveto
            50 14 11 14 8 hvcurveto
            50 88 14 20 40 callgsubr
            -37 -5 -22 -6 vhcurveto
            -24 -78 -8 -28 18 callsubr
            return
          </CharString>
          <CharString index="36">
            rlineto
            -63 callgsubr
            return
          </CharString>
          <CharString index="37">
            hhcurveto
            -67 callgsubr
            return
          </CharString>
          <CharString index="38">
            -295 -73 callgsubr
            return
          </CharString>
          <CharString index="39">
            53 43 35 44 22 hvcurveto
            -56 8 31 -23 48 17 callgsubr
            23 41 370 21 196 hvcurveto
            21 2 -71 callgsubr
            -2 hvcurveto
            -23 -220 rlineto
            16 -17 -25 13 -37 hhcurveto
            -105 -72 -95 -172 -18 hvcurveto
            return
          </CharString>
          <CharString index="40">
            -1 4 5 -1 4 hhcurveto
            12 7 6 11 9 hvcurveto
            15 10 9 1 6 hhcurveto
            return
          </CharString>
          <CharString index="41">
            -11 vvcurveto
            -11 6 -4 23 return
          </CharString>
          <CharString index="42">
            760 rmoveto
            7 -2 rlineto
            -7 -1 6 -2 15 hhcurveto
            27 hlineto
            28 7 5 14 15 hvcurveto
            6 9 13 -5 14 -5 13 -4 rlinecurve
            -10 9 10 -4 26 hhcurveto
            28 hlineto
            13 7 4 6 1 hvcurveto
            3 -4 11 -3 7 vhcurveto
            -4 7 11 12 9 14 5 16 rlinecurve
            -23 callgsubr
            -5 callsubr
            -1 -1 rlineto
            12 -10 -14 4 -29 hhcurveto
            -2 hlineto
            -21 -14 -2 -5 -10 hvcurveto
            3 -10 -10 2 -8 83 callsubr
            -9 5 -12 16 -5 vhcurveto
            return
          </CharString>
          <CharString index="43">
            rmoveto
            59 38 27 56 hvcurveto
            22 1 -7 16 -13 -5 -11 -4 -7 hhcurveto
            -17 -6 10 23 3 hvcurveto
            61 580 -55 callsubr
            -61 -578 rlineto
            79 callgsubr
            return
          </CharString>
          <CharString index="44">
            21 -17 -32 31 -48 hhcurveto
            -95 -74 -87 -174 -18 hvcurveto
            -125 -14 18 -141 124 hhcurveto
            41 33 21 31 23 hvcurveto
            -3 -29 rlineto
            -80 -7 -35 -42 -59 -60 -34 34 -13 hhcurveto
            -22 -2 -59 -30 5 hvcurveto
            -36 5 70 -26 84 hhcurveto
            136 65 95 199 21 hvcurveto
            return
          </CharString>
          <CharString index="45">
            30.89 148.51 118.20001 148.53 return
          </CharString>
          <CharString index="46">
            -18 -74 callsubr
            return
          </CharString>
          <CharString index="47">
            -24 47 4 -24 vvcurveto
            -12 -9 -4 -11 vhcurveto
            -29 -18 21 -18 hhcurveto
            -10 -22 -16 -26 -27 48 -25 58 62 42 30 60 44 -27 24 -37 6 hvcurveto
            return
          </CharString>
          <CharString index="48">
            rmoveto
            126 63 75 149 callgsubr
            468 rlineto
            21 2 -17 12 98 callsubr
            -40 150 callsubr
            -47 -443 rlineto
            -71 -7 -15 -31 -37 -26 -10 6 -11 hhcurveto
            -23 -1 -25 -57 -4 -35 rrcurveto
            -28 -2 57 -18 55 hhcurveto
            return
          </CharString>
          <CharString index="49">
            -46 30 callgsubr
            -6 -60 rlineto
            -21 -3 20 -11 49 hhcurveto
            46 22 -68 callgsubr
            6 60 rlineto
            21 2 -20 11 -49 hhcurveto
            endchar
          </CharString>
          <CharString index="50">
            -17 callgsubr
            59 callsubr
            return
          </CharString>
          <CharString index="51">
            44 107 123 112 11 hvcurveto
            25 3 -16 19 -42 hhcurveto
            -19 hlineto
            -42 -20 -17 -27 -3 hvcurveto
            -10 -102 -30 -50 -16 -32 -6 -12 -3 -9 -1 -8 rrcurveto
            -16 -2 27 -6 18 hhcurveto
            return
          </CharString>
          <CharString index="52">
            rlineto
            21 2 -71 callgsubr
            -2 hvcurveto
            return
          </CharString>
          <CharString index="53">
            190 hlineto
            176 90 118 232 24 hvcurveto
            232 24 -64 118 -176 hhcurveto
            -190 -73 callgsubr
            return
          </CharString>
          <CharString index="54">
            293 rmoveto
            19 hlineto
            26 9 7 12 1 hvcurveto
            40 378 rlineto
            7 1 -14 7 -6 hhcurveto
            -140 -25 -10 -2 -5 -6 -1 -9 rlinecurve
            -16 -2 0 -34 16 hhcurveto
            66 12 -33 -312 rlineto
            -12 -1 9 -7 25 hhcurveto
            return
          </CharString>
          <CharString index="55">
            rmoveto
            9 11 12 22 hhcurveto
            16 16 -8 -14 hvcurveto
            -30 -67 -28 -17 vvcurveto
            -8 30 -15 24 16 callsubr
            vhcurveto
            return
          </CharString>
          <CharString index="56">
            -584 -105 callsubr
            return
          </CharString>
          <CharString index="57">
            -16 11 -41 hhcurveto
            return
          </CharString>
          <CharString index="58">
            39 19 60 37 14 -2 6 -14 hvcurveto
            -49 hlineto
            10 96 rlineto
            19 callsubr
            -10 -95 rlineto
            return
          </CharString>
          <CharString index="59">
            hlineto
            21 -23 callsubr
            -21 hhcurveto
            return
          </CharString>
          <CharString index="60">
            208 hlineto
            12 6 9 20 2 hvcurveto
            2 10 rlineto
            21 1 -4 8 -12 hhcurveto
            -117 hlineto
            116 149 23 28 14 29 4 33 rlinecurve
            62 6 -36 44 -79 hhcurveto
            -53 -64 -19 -34 -4 hvcurveto
            -15 -1 12 -26 18 10 27 26 34 hhcurveto
            27 17 -13 -28 -2 hvcurveto
            -2 -18 -9 -17 -18 -24 -147 -185 rcurveline
            -1 -2 -1 -3 -1 -4 rrcurveto
            -17 -1 4 -34 9 hhcurveto
            return
          </CharString>
          <CharString index="61">
            hstem
            -59 callgsubr
            vstem
            return
          </CharString>
          <CharString index="62">
            rmoveto
            17 22 14 8 10 hvcurveto
            20 16 6 15 16 vvcurveto
            40 -35 26 -58 -35 -45 -15 138 callsubr
            9 0 11 17 33 10 11 -6 0 hflex1
            -14 -12 -5 -19 -9 vhcurveto
            -10 -5 -9 -7 -4 vvcurveto
            -11 17 -10 27 vhcurveto
            return
          </CharString>
          <CharString index="63">
            rmoveto
            64 57 27 32 26 hvcurveto
            -37 33 52 -22 69 hhcurveto
            62 100 25 44 5 hvcurveto
            24 3 -27 53 -19 -13 -38 -29 -49 hhcurveto
            -42 -35 23 75 8 hvcurveto
            189 hlineto
            13 43 42 17 1 hvcurveto
            170 10 -43 95 -127 hhcurveto
            -44 -42 -9 -22 -34 hvcurveto
            19 -27 -47 12 -55 hhcurveto
            -85 -84 -31 -35 -3 hvcurveto
            -21 -2 24 -59 22 16 37 29 50 hhcurveto
            33 25 -11 -25 7 hvcurveto
            -5 -13 -5 -14 -3 -16 -217 1 -29 -111 -8 -76 rrcurveto
            -95 -10 56 -62 88 hhcurveto
            264 314 rmoveto
            88 14 24 20 29 hhcurveto
            31 11 -28 -80 -8 hvcurveto
            -321 -197 rmoveto
            -27 -12 21 30 3 hvcurveto
            46 5 27 32 66 hhcurveto
            -3 -36 0 -32 5 -28 rrcurveto
            -22 -16 -25 -11 -23 hhcurveto
            endchar
          </CharString>
          <CharString index="64">
            -98 callsubr
            -11 callgsubr
            return
          </CharString>
          <CharString index="65">
            hstemhm
            28.5 147.57 return
          </CharString>
          <CharString index="66">
            rmoveto
            31 47 rlineto
            6 8 1 5 6 vvcurveto
            18 -34 23 -17 -10 -6 -6 -10 -7 vhcurveto
            -23 -35 rlineto
            19 -34 -41 10 -46 hhcurveto
            -19 callgsubr
            -12 -115 14 -85 34 -58 -37 -56 rcurveline
            -4 -6 -3 -7 -5 vvcurveto
            -18 33 -23 18 8 9 5 11 7 vhcurveto
            24 37 rlineto
            -26 36 46 -12 51 152 callgsubr
            13 125 -17 89 -39 59 rrcurveto
            -321 -273 rmoveto
            178 19 40 48 69 hhcurveto
            22 19 -5 -14 13 hvcurveto
            -187 -286 rlineto
            23 2 26 3 30 vhcurveto
            206 hmoveto
            -26 callsubr
            -29 -22 9 23 -15 hvcurveto
            198 301 rlineto
            -29 -1 -35 -5 -42 vhcurveto
            endchar
          </CharString>
          <CharString index="67">
            57 callgsubr
            -4 vlineto
            -19 -1 -15 -4 -11 -14 -70 -100 rcurveline
            -4 -7 -4 -7 -3 vvcurveto
            -7 -1 7 -3 14 hhcurveto
            27 hlineto
            25 16 5 14 11 hvcurveto
            30 45 22 -46 rlineto
            -13 5 18 -5 26 hhcurveto
            28 hlineto
            13 7 3 7 1 hvcurveto
            3 -2 7 -4 7 vhcurveto
            return
          </CharString>
          <CharString index="68">
            -6 141 -11 callsubr
            return
          </CharString>
          <CharString index="69">
            135 80 96 174 18 hvcurveto
            return
          </CharString>
          <CharString index="70">
            -54 0 -34 callgsubr
            return
          </CharString>
          <CharString index="71">
            57 22 57 hintmask 11110100
            347 573 rmoveto
            67 26 -26 13 hhcurveto
            25 45 63 27 2 hvcurveto
            34 4 -84 37 -93 hhcurveto
            -8 -8 0 -1 -8 -30 callgsubr
            21 2 -8 9 -21 hhcurveto
            -18 -10 -9 -55 callgsubr
            -3 -32 -1 -7 -136 -31 -73 -115 -21 -201 rlinecurve
            -22 -209 50 -113 129 -30 -1 -7 rcurveline
            hintmask 11101100
            -5 -44 rlineto
            -21 -2 8 -9 21 hhcurveto
            18 10 9 21 2 hvcurveto
            5 44 rlineto
            -1 7 7 0 8 hhcurveto
            79 116 31 49 5 hvcurveto
            31 298 rlineto
            28 3 -10 12 -25 hhcurveto
            -137 hlineto
            -20 -11 -15 -35 -4 hvcurveto
            -3 -32 125 callsubr
            23 hlineto
            -16 -146 rlineto
            return
          </CharString>
          <CharString index="72">
            rmoveto
            -67 callsubr
            return
          </CharString>
          <CharString index="73">
            -15 hlineto
            -12 -6 -9 -20 -2 hvcurveto
            -2 -11 rlineto
            -20 -2 5 -9 12 hhcurveto
            21 hlineto
            46 16 -21 -39 -4 hvcurveto
            -36 -4 -24 -21 -32 -39 -20 24 -9 hhcurveto
            -13 -19 -33 -12 -1 hvcurveto
            -36 -4 77 -12 40 hhcurveto
            return
          </CharString>
          <CharString index="74">
            rmoveto
            17 -36 24 -17 -6 -9 -4 -9 -6 vhcurveto
            -19 -28 rlineto
            15 -26 -32 7 -38 96 callgsubr
            -8 -81 8 -64 25 -46 -17 -25 rcurveline
            -6 -10 -3 -4 -7 vvcurveto
            -19 36 -24 16 6 8 4 9 6 vhcurveto
            12 18 rlineto
            -14 26 31 -7 36 hhcurveto
            -38 callsubr
            8 79 -8 63 -23 45 27 39 rcurveline
            5 8 3 6 7 vvcurveto
            -271 -247 rmoveto
            113 12 19 39 40 hhcurveto
            13 11 -5 -10 7 hvcurveto
            -103 -149 rlineto
            4 1 4 4 vvcurveto
            109 hmoveto
            -31 callsubr
            -13 -10 4 9 -7 hvcurveto
            100 145 rlineto
            endchar
          </CharString>
          <CharString index="75">
            33 hlineto
            41 41 callgsubr
            9 92 119 callgsubr
            -41 hhcurveto
            -33 49 callsubr
            return
          </CharString>
          <CharString index="76">
            -113 -12 -19 -40 -39 hhcurveto
            return
          </CharString>
          <CharString index="77">
            66 0 131 159 131 148 131 129 callgsubr
            700 rmoveto
            34 callgsubr
            -25 -239 rlineto
            -16 hlineto
            -29 -9 -39 -52 -28 8 -12 18 hvcurveto
            14 hlineto
            -27 -250 45 callsubr
            190 hlineto
            176 90 118 232 24 hvcurveto
            232 24 -64 118 -176 hhcurveto
            57 -350 rmoveto
            -161 -17 -35 -58 -70 hhcurveto
            -64 hlineto
            17 159 rlineto
            73 hlineto
            29 9 39 52 28 -8 12 -18 hvcurveto
            -72 hlineto
            16 148 rlineto
            64 hlineto
            70 23 -58 -161 -17 hvcurveto
            endchar
          </CharString>
          <CharString index="78">
            124 callgsubr
            hintmask 11101100
            -63 callsubr
            hintmask 11011100
            44 418 rlineto
            16 -19 9 -40 vhcurveto
            -108 -200 rmoveto
            -16 -159 rlineto
            -23 -14 -15 -18 -21 hhcurveto
            -46 -1 63 79 8 hvcurveto
            hintmask 11101100
            114 12 26 33 38 hhcurveto
            17 13 -9 -11 10 hvcurveto
            hintmask 11011100
            -3 -13 -4 -26 -4 -30 rrcurveto
            endchar
          </CharString>
          <CharString index="79">
            131 453 132 return
          </CharString>
          <CharString index="80">
            33 -20 28 -15 -4 -35 rrcurveto
            -24 -2 -17 -14 -26 -36 -20 27 -12 hhcurveto
            -20 -40 -55 -28 -2 hvcurveto
            return
          </CharString>
          <CharString index="81">
            -178 24 callgsubr
            return
          </CharString>
          <CharString index="82">
            rmoveto
            69 callgsubr
            57 539 rlineto
            112 -48 callsubr
            -6 callgsubr
            -57 -539 17 callsubr
            return
          </CharString>
          <CharString index="83">
            vvcurveto
            -27 9 -67 88 19 20 4 8 17 vhcurveto
            12 7 5 10 14 vvcurveto
            return
          </CharString>
          <CharString index="84">
            29 callsubr
            4 47 callsubr
            return
          </CharString>
          <CharString index="85">
            -581 -105 callsubr
            return
          </CharString>
          <CharString index="86">
            hlineto
            -39 30 callgsubr
            return
          </CharString>
          <CharString index="87">
            87 -2 -86 callsubr
            return
          </CharString>
          <CharString index="88">
            82 -2 -99 callgsubr
            return
          </CharString>
          <CharString index="89">
            121 302 99 callgsubr
            return
          </CharString>
          <CharString index="90">
            20 16 137 12 102 vhcurveto
            91 11 -37 48 -73 hhcurveto
            -57 -45 -32 -36 -30 hvcurveto
            27 259 rlineto
            151 callsubr
            -40 hhcurveto
            -34 -1 callgsubr
            -72 -692 39 callgsubr
            34 hlineto
            39 20 10 22 3 hvcurveto
            return
          </CharString>
          <CharString index="91">
            -8 -28 callsubr
            return
          </CharString>
          <CharString index="92">
            170 -8 -93 callgsubr
            return
          </CharString>
          <CharString index="93">
            vstem
            88 -2 rmoveto
            40 hlineto
            41 67 callgsubr
            28 303 rlineto
            6 hlineto
            97 -316 rlineto
            -15 5 19 -4 28 hhcurveto
            58 hlineto
            36 17 6 9 1 hvcurveto
            5 0 7 -4 9 vhcurveto
            -123 319 186 313 rlineto
            5 9 3 7 5 vvcurveto
            9 1 -15 6 -39 hhcurveto
            -55 hlineto
            -27 -18 -3 -16 -8 hvcurveto
            -161 -303 rlineto
            -7 hlineto
            35 290 rlineto
            21 3 -18 145 callgsubr
            -68 -640 17 callsubr
            return
          </CharString>
          <CharString index="94">
            -21 -3 -45 callgsubr
            return
          </CharString>
          <CharString index="95">
            -251 -26 97 -107 153 hhcurveto
            return
          </CharString>
          <CharString index="96">
            122 288 151 0 -20 return
          </CharString>
          <CharString index="97">
            -2 rmoveto
            17 hlineto
            24 12 6 13 1 hvcurveto
            7 65 rlineto
            16 hlineto
            12 6 9 20 3 hvcurveto
            10 vlineto
            21 2 -4 9 -12 hhcurveto
            -16 hlineto
            25 240 rlineto
            12 2 -10 7 -25 hhcurveto
            -30 hlineto
            -17 -13 -1 -13 -8 hvcurveto
            -152 -253 rlineto
            -1 -1 -1 -3 -3 vvcurveto
            -15 -2 8 -39 10 hhcurveto
            120 hlineto
            -6 -65 rlineto
            -13 -2 10 -6 24 hhcurveto
            -80 153 rmoveto
            79 137 2 -1 -7 -31 -5 -24 -2 -25 rlinecurve
            -6 -56 rlineto
            endchar
          </CharString>
          <CharString index="98">
            rmoveto
            35 12 7 8 8 hvcurveto
            61 74 13 16 10 vvcurveto
            19 -14 5 -26 -35 -29 -6 -21 -11 vhcurveto
            -25 -67 -10 -21 -9 vvcurveto
            -11 5 -4 16 vhcurveto
            return
          </CharString>
          <CharString index="99">
            -57 -4 callsubr
            return
          </CharString>
          <CharString index="100">
            -34 -20 callgsubr
            return
          </CharString>
          <CharString index="101">
            hintmask 00000000
            hintmask 11100000
            166 -8 15 callgsubr
            hintmask 11010000
            19 hlineto
            -49 callsubr
            hintmask 11100000
            13 callgsubr
            -82 44 -39 78 vhcurveto
            return
          </CharString>
          <CharString index="102">
            -10 3 rlineto
            1 -4 -4 1 -4 hhcurveto
            -12 -6 -7 -10 -7 hvcurveto
            return
          </CharString>
          <CharString index="103">
            -8 -7 callgsubr
            return
          </CharString>
          <CharString index="104">
            rmoveto
            8 callsubr
            6 hhcurveto
            hintmask 10111010
            32 callsubr
            44 callsubr
            hintmask 10110110
            57 callgsubr
            -9 5 -12 16 -5 vhcurveto
            return
          </CharString>
          <CharString index="105">
            88 -16 callsubr
            return
          </CharString>
          <CharString index="106">
            52 1 -26 93 -141 hhcurveto
            return
          </CharString>
          <CharString index="107">
            578 5 callgsubr
          </CharString>
          <CharString index="108">
            1 -24 -49 28 -31 hhcurveto
            -41 -27 -31 -38 -13 hvcurveto
            -3 53 callsubr
            return
          </CharString>
          <CharString index="109">
            -8 119 298 113 -113 122 0 -20 return
          </CharString>
          <CharString index="110">
            -29 -9 -18 -25 -25 hhcurveto
            return
          </CharString>
          <CharString index="111">
            88 -2 6 callgsubr
            return
          </CharString>
          <CharString index="112">
            41 callsubr
            166 hmoveto
            -56 callsubr
            endchar
          </CharString>
          <CharString index="113">
            8 -27 -29 8 -22 hhcurveto
            -53 -36 -31 -38 -17 147 callsubr
            -7 3 -9 10 -5 vhcurveto
            10 -5 24 -12 6 10 19 16 rlinecurve
            11 13 14 4 15 hhcurveto
            19 21 -7 -7 22 hvcurveto
            return
          </CharString>
          <CharString index="114">
            26 2 52 76 67 vvcurveto
            25 -12 19 -28 vhcurveto
            -19 hlineto
            -42 -18 -17 -27 hvcurveto
            -35 -4 -37 -51 vvcurveto
            return
          </CharString>
          <CharString index="115">
            -1 4 4 -1 4 hhcurveto
            10 7 6 11 8 hvcurveto
            15 9 8 1 return
          </CharString>
          <CharString index="116">
            -32 -21 -21 -29 -4 -35 -4 -33 11 -27 27 -16 -1 -3 rcurveline
            -51 -24 -32 -40 -6 -54 rrcurveto
            return
          </CharString>
          <CharString index="117">
            hmoveto
            -85 callgsubr
            return
          </CharString>
          <CharString index="118">
            hstemhm
            42.88 157.89 216.62 156.99 -8.38 78 return
          </CharString>
          <CharString index="119">
            hstemhm
            -62 callsubr
            return
          </CharString>
          <CharString index="120">
            64 76 29 139 14 hvcurveto
            139 15 -70 29 -64 hhcurveto
            -63 -76 -29 -139 -15 hvcurveto
            return
          </CharString>
          <CharString index="121">
            66 callsubr
            2 17 rlineto
            35 return
          </CharString>
          <CharString index="122">
            -757 -95 callsubr
          </CharString>
          <CharString index="123">
            -32 callgsubr
            -35 -45 -18 -13 -15 22 -27 8 return
          </CharString>
          <CharString index="124">
            rlineto
            -21 -2 -45 callgsubr
            return
          </CharString>
          <CharString index="125">
            -66 callsubr
            vhcurveto
            return
          </CharString>
          <CharString index="126">
            16 -17 15 -40 vhcurveto
            -28 -21 callsubr
            return
          </CharString>
          <CharString index="127">
            rlineto
            95 hlineto
            21 9 22 callgsubr
            -6 15 -21 hhcurveto
            -95 hlineto
            16 153 rlineto
            21 2 -13 11 -31 hhcurveto
            -19 hlineto
            -31 -14 -74 callsubr
            -16 -153 rlineto
            -96 hlineto
            -20 -11 -4 callgsubr
            8 -15 20 hhcurveto
            96 hlineto
            return
          </CharString>
          <CharString index="128">
            29.2 148.84 93.96 185 return
          </CharString>
          <CharString index="129">
            -21 -2 17 -11 42 hhcurveto
            return
          </CharString>
          <CharString index="130" raw="1">
            05ae8e84 9a771b0b  
          </CharString>
          <CharString index="131">
            -95 153 rlineto
            10 -6 -8 5 -9 hhcurveto
            -23 -37 -21 -13 -2 hvcurveto
            -1 -6 2 -6 3 -7 85 -150 rcurveline
            -131 -149 -8 -8 -6 -8 -1 -8 rlinecurve
            -22 -2 33 -25 18 hhcurveto
            10 10 4 10 11 hvcurveto
            139 153 return
          </CharString>
          <CharString index="132">
            28.94 152.06 return
          </CharString>
          <CharString index="133">
            hstemhm
            -5.02 345.02 -306 150 return
          </CharString>
          <CharString index="134">
            32 150 125 134 return
          </CharString>
          <CharString index="135">
            5 vhcurveto
            -10 3 rlineto
            1 return
          </CharString>
          <CharString index="136">
            11 74 callgsubr
            return
          </CharString>
          <CharString index="137" raw="1">
            aaa20a0b   
          </CharString>
          <CharString index="138">
            -2 -17 66 callgsubr
            return
          </CharString>
          <CharString index="139">
            -1 25 50 -28 30 hhcurveto
            40 -16 callgsubr
            return
          </CharString>
          <CharString index="140">
            -211 116 86 123 411 -20 return
          </CharString>
          <CharString index="141">
            rmoveto
            41 100 123 112 12 hvcurveto
            25 3 -14 19 -42 hhcurveto
            -20 hlineto
            -41 -19 -17 -27 -3 hvcurveto
            -10 -98 -27 -50 -12 -32 -3 -13 -5 -11 -1 -9 rrcurveto
            -16 -2 26 -6 17 hhcurveto
            endchar
          </CharString>
          <CharString index="142">
            hstemhm
            42.88 157.89 -11.77 137 91.39 return
          </CharString>
          <CharString index="143">
            68 12 23 54 43 hhcurveto
            25 15 -14 -33 -52 -34 -23 -54 hvcurveto
            endchar
          </CharString>
          <CharString index="144">
            hstem
            42.59 160.07 return
          </CharString>
          <CharString index="145">
            63 callgsubr
            21 hhcurveto
            return
          </CharString>
          <CharString index="146">
            40 callsubr
            -40 hhcurveto
            return
          </CharString>
          <CharString index="147">
            rlineto
            74 callsubr
            return
          </CharString>
          <CharString index="148">
            rmoveto
            -56 callsubr
            return
          </CharString>
          <CharString index="149">
            rmoveto
            72 56 47 78 8 hvcurveto
            5 48 -18 39 -44 18 rrcurveto
            2 vlineto
            return
          </CharString>
          <CharString index="150">
            rmoveto
            337 hlineto
            17 8 22 callgsubr
            -5 15 -17 hhcurveto
            -337 107 callsubr
          </CharString>
          <CharString index="151">
            -5 callsubr
            -15 -11 -7 -1 -5 hhcurveto
            return
          </CharString>
          <CharString index="152">
            rlineto
            -36 callgsubr
            return
          </CharString>
          <CharString index="153">
            72 -8 88 callgsubr
            return
          </CharString>
          <CharString index="154">
            31 rlineto
            35 3 -7 15 return
          </CharString>
          <CharString index="155">
            30.74 151.38 return
          </CharString>
          <CharString index="156">
            -1 callgsubr
            -9 -92 rlineto
            return
          </CharString>
          <CharString index="157">
            -204 124 return
          </CharString>
          <CharString index="158">
            -287 113 59 callgsubr
          </CharString>
          <CharString index="159">
            rmoveto
            -84 callsubr
            -91 callgsubr
            return
          </CharString>
          <CharString index="160">
            -7 -1 -5 -4 vvcurveto
            -9 5 -12 16 -5 vhcurveto
            return
          </CharString>
          <CharString index="161">
            20 12 -8 14 hhcurveto
            17 16 70 20 2 hvcurveto
            return
          </CharString>
          <CharString index="162">
            rlineto
            22 callsubr
            return
          </CharString>
          <CharString index="163">
            15 35 4 hvcurveto
            return
          </CharString>
          <CharString index="164">
            rmoveto
            34 18 callgsubr
            return
          </CharString>
          <CharString index="165">
            34 426.32 return
          </CharString>
          <CharString index="166">
            -77 38 -31 56 return
          </CharString>
          <CharString index="167">
            3.87 390.13 return
          </CharString>
          <CharString index="168">
            46 callsubr
            70 159 return
          </CharString>
          <CharString index="169">
            rlineto
            -21 -2 17 -11 41 hhcurveto
            return
          </CharString>
          <CharString index="170">
            -39 callsubr
            67 return
          </CharString>
          <CharString index="171">
            37 callsubr
            vstem
            return
          </CharString>
          <CharString index="172">
            20 hlineto
            41 17 17 27 hvcurveto
            80 10 25 18 vvcurveto
            16 -26 6 -18 return
          </CharString>
          <CharString index="173">
            10 56 callsubr
            return
          </CharString>
          <CharString index="174">
            12 115 -13 85 -33 58 rrcurveto
            return
          </CharString>
          <CharString index="175">
            -52 -8 136 445 135 return
          </CharString>
          <CharString index="176">
            -49 100 -1 3 -2 2 -2 2 rlinecurve
            1 0 1 1 1 hvcurveto
            return
          </CharString>
          <CharString index="177">
            -118 -238 -25 hvcurveto
            -247 -26 return
          </CharString>
          <CharString index="178">
            0 97 callgsubr
            return
          </CharString>
          <CharString index="179">
            151 callsubr
            -42 hhcurveto
            return
          </CharString>
          <CharString index="180">
            rmoveto
            42 hlineto
            40 18 return
          </CharString>
          <CharString index="181">
            21 2 -17 11 return
          </CharString>
          <CharString index="182">
            hstemhm
            9 131 -74 125 99 124 -111 125 return
          </CharString>
          <CharString index="183">
            114 48 114 return
          </CharString>
          <CharString index="184">
            347 rlineto
            15 12 18 17 22 hhcurveto
            29 return
          </CharString>
          <CharString index="185">
            hlineto
            -34 -3 -44 -21 -21 8 -9 18 hvcurveto
            return
          </CharString>
          <CharString index="186">
            117 156 callsubr
            return
          </CharString>
          <CharString index="187">
            -103 -8 117 305 117 44 159 94 callgsubr
            return
          </CharString>
          <CharString index="188">
            361 99 callsubr
            hvcurveto
            return
          </CharString>
          <CharString index="189">
            61 hstemhm
            42.88 157.89 182.23 87 -52.61 return
          </CharString>
          <CharString index="190">
            hhcurveto
            -41 -28 157 callsubr
            -2 -7 -1 -5 -4 vvcurveto
            return
          </CharString>
          <CharString index="191">
            -9 102 callsubr
            return
          </CharString>
          <CharString index="192">
            8 81 -8 65 -25 45 rrcurveto
            return
          </CharString>
          <CharString index="193">
            -177 -19 54 -95 86 hhcurveto
            return
          </CharString>
          <CharString index="194">
            56 callsubr
            1 return
          </CharString>
          <CharString index="195">
            hlineto
            104 callgsubr
            return
          </CharString>
          <CharString index="196">
            -16 11 -40 hhcurveto
            return
          </CharString>
          <CharString index="197">
            -8 callsubr
            44 159 hstem
            27 callsubr
            vstem
            return
          </CharString>
          <CharString index="198">
            hlineto
            -16 -152 rlineto
            -21 10 -9 37 vhcurveto
            14 hlineto
            35 16 9 21 2 hvcurveto
            16 152 rlineto
            return
          </CharString>
          <CharString index="199">
            113 3 callgsubr
            return
          </CharString>
          <CharString index="200">
            hstem
            49 callgsubr
            vstem
            return
          </CharString>
          <CharString index="201">
            hstem
            48 157 194 122 vstem
            return
          </CharString>
          <CharString index="202">
            -158 -8 126 callgsubr
            return
          </CharString>
          <CharString index="203">
            -9 118 callsubr
            return
          </CharString>
          <CharString index="204">
            hlineto
            41 18 11 21 return
          </CharString>
          <CharString index="205">
            -40 hhcurveto
            -42 hlineto
            return
          </CharString>
          <CharString index="206">
            -8 52 callsubr
            return
          </CharString>
          <CharString index="207">
            -12 callsubr
            15 131 rmoveto
            -69 -30 49 178 19 hvcurveto
            return
          </CharString>
          <CharString index="208">
            rlineto
            -21 -3 17 -11 42 hhcurveto
            return
          </CharString>
          <CharString index="209">
            122 372 40 0 -20 return
          </CharString>
          <CharString index="210">
            -20 73 124 hstemhm
            return
          </CharString>
          <CharString index="211">
            83 -54 83 hstemhm
            return
          </CharString>
          <CharString index="212">
            hstem
            19 142 98 150 111.41 134.59 vstem
            return
          </CharString>
          <CharString index="213">
            72 50 callsubr
            72 88 callgsubr
            hstemhm
            45 157 -20 137 return
          </CharString>
          <CharString index="214">
            hlineto
            -18 -8 -4 callgsubr
            5 -15 18 hhcurveto
            endchar
          </CharString>
          <CharString index="215">
            hstem
            6 506.37 vstem
            return
          </CharString>
          <CharString index="216">
            -74 -16 callsubr
            return
          </CharString>
          <CharString index="217">
            -80 -18 -26 -11 vvcurveto
            -11 return
          </CharString>
          <CharString index="218">
            70 5 30 36 52 vvcurveto
            return
          </CharString>
          <CharString index="219">
            -212 117 return
          </CharString>
          <CharString index="220">
            2 callsubr
            hstemhm
            58 150 return
          </CharString>
          <CharString index="221">
            131 149 8 8 6 8 1 8 rlinecurve
            22 2 -33 25 -18 hhcurveto
            return
          </CharString>
          <CharString index="222">
            95 hstem
            41 251.31 vstem
            66 return
          </CharString>
          <CharString index="223">
            21 2 hvcurveto
            68 640 rlineto
            21 2 -16 return
          </CharString>
          <CharString index="224">
            45.66 443.65 return
          </CharString>
          <CharString index="225">
            122 412 -20 return
          </CharString>
          <CharString index="226">
            -20 70 159 return
          </CharString>
          <CharString index="227">
            471 0 117 -117 131 275 117 46 131 return
          </CharString>
          <CharString index="228">
            86 107 74 107 hstem
            15.74 411.1 vstem
            return
          </CharString>
          <CharString index="229">
            rlineto
            -22 -3 16 -10 41 hhcurveto
            34 hlineto
            41 18 10 22 3 hvcurveto
            return
          </CharString>
          <CharString index="230">
            -153.72 149 hintmask 11000000
            return
          </CharString>
          <CharString index="231">
            -8 137 callsubr
            return
          </CharString>
          <CharString index="232">
            63 callgsubr
            20 hhcurveto
            return
          </CharString>
          <CharString index="233">
            117 hstemhm
            44 149 return
          </CharString>
          <CharString index="234">
            hlineto
            -20 -10 -15 -35 return
          </CharString>
          <CharString index="235">
            vstem
            161 -140 rmoveto
            19 hlineto
            31 16 140 callgsubr
            return
          </CharString>
          <CharString index="236">
            hstemhm
            58 callsubr
            -333.32 137 return
          </CharString>
          <CharString index="237">
            56 callsubr
            3 30 rlineto
            35 4 -6 15 -18 hhcurveto
            return
          </CharString>
          <CharString index="238">
            85 callsubr
            111 callsubr
            return
          </CharString>
          <CharString index="239">
            -2 rmoveto
            28 88 callsubr
            return
          </CharString>
          <CharString index="240">
            406 117 120 117 return
          </CharString>
          <CharString index="241">
            13 -4 16 -10 vhcurveto
            return
          </CharString>
          <CharString index="242">
            -27 702 119 callsubr
            hstem
            45 481 vstem
            return
          </CharString>
          <CharString index="243">
            27 callgsubr
            hstemhm
            return
          </CharString>
          <CharString index="244">
            121 301 117 return
          </CharString>
          <CharString index="245">
            -13 -15 22 -27 8 vhcurveto
            return
          </CharString>
          <CharString index="246">
            hstemhm
            28.34 return
          </CharString>
          <CharString index="247">
            12 28 2 75 callgsubr
            28 4 -8 12 return
          </CharString>
          <CharString index="248">
            -104 rmoveto
            20 callgsubr
            return
          </CharString>
          <CharString index="249">
            -20 callgsubr
            44 159 hstem
            return
          </CharString>
          <CharString index="250">
            -20 hstemhm
            30 153 -61 137 11 187 return
          </CharString>
          <CharString index="251">
            hstemhm
            344.5 141.5 return
          </CharString>
          <CharString index="252">
            20 callgsubr
            21 5 return
          </CharString>
          <CharString index="253">
            hstemhm
            25 callsubr
            return
          </CharString>
          <CharString index="254">
            hvcurveto
            -3 -7 -1 -5 -4 vvcurveto
            return
          </CharString>
          <CharString index="255">
            -8 117 297 117 return
          </CharString>
          <CharString index="256">
            0 -20 243 -20 return
          </CharString>
          <CharString index="257">
            -18 -12 -55 callgsubr
            return
          </CharString>
          <CharString index="258">
            21 3 -17 11 return
          </CharString>
          <CharString index="259">
            -10 -10 -4 -10 -11 hvcurveto
            -139 -153 return
          </CharString>
          <CharString index="260">
            hlineto
            36 1 46 25 25 -8 11 -18 hvcurveto
            return
          </CharString>
          <CharString index="261">
            hlineto
            16 154 rlineto
            21 -10 9 -37 vhcurveto
            return
          </CharString>
          <CharString index="262">
            vvcurveto
            59 callsubr
            64 34 40 52 vhcurveto
            return
          </CharString>
          <CharString index="263">
            289 117 return
          </CharString>
          <CharString index="264">
            -31 -38 -13 hvcurveto
            return
          </CharString>
        <CharString name=".notdef">
          3 0 50 600 50 hstem
          -20 573 vstem
          -20 hmoveto
          500 hlineto
          73 700 rlineto
          -500 hlineto
          218 -305 rmoveto
          -144 255 rlineto
          340 hlineto
          -428 -555 rmoveto
          53 510 144 -255 rlineto
          203 -255 rmoveto
          -143 255 196 255 rlineto
          -427 -555 rmoveto
          196 255 144 -255 rlineto
          endchar
        </CharString>
        <CharString name="A">
          -39 callsubr
          28 callgsubr
          hintmask 10110000
          23 -2 -106 callsubr
          hintmask 11010000
          -85 callsubr
          endchar
        </CharString>
        <CharString name="AE">
          235 0 131 10 132 20 21 callgsubr
          144 callsubr
          hintmask 10111000
          34 -2 rmoveto
          46 hlineto
          22 13 7 14 7 hvcurveto
          hintmask 11111000
          59 122 rlineto
          160 hlineto
          hintmask 10111000
          -9 callgsubr
          hintmask 11111000
          92 callgsubr
        </CharString>
        <CharString name="AEacute">
          235 0 131 10 132 20 21 callgsubr
          52 159 144 callsubr
          hintmask 10111100
          412 752 rmoveto
          -106 callgsubr
          -378 -754 rmoveto
          46 hlineto
          22 13 7 14 7 hvcurveto
          hintmask 11111100
          59 122 rlineto
          160 hlineto
          hintmask 10111100
          -9 callgsubr
          hintmask 11111100
          92 callgsubr
        </CharString>
        <CharString name="Aacute">
          -39 callsubr
          70 159 28 callgsubr
          hintmask 10111000
          271 752 rmoveto
          -106 callgsubr
          -248 -754 -106 callsubr
          hintmask 11011000
          -85 callsubr
          endchar
        </CharString>
        <CharString name="Abreve">
          -39 callsubr
          70 91 28 callgsubr
          hintmask 10111000
          305 -56 callgsubr
          -282 -754 -106 callsubr
          hintmask 11011000
          -85 callsubr
          endchar
        </CharString>
        <CharString name="Acircumflex">
          76 callgsubr
          28 callgsubr
          hintmask 10111000
          201 749 -107 callgsubr
          -178 -46 callgsubr
          hintmask 11011000
          -85 callsubr
          endchar
        </CharString>
        <CharString name="Adieresis">
          -39 callsubr
          73 124 hstemhm
          175 76 callsubr
          hintmask 10111100
          226 755 -103 callsubr
          -365 -757 -15 callgsubr
        </CharString>
        <CharString name="Agrave">
          -39 callsubr
          70 159 28 callgsubr
          hintmask 10111000
          331 752 -99 callsubr
          -308 -754 -106 callsubr
          hintmask 11011000
          -85 callsubr
          endchar
        </CharString>
        <CharString name="Amacron">
          -39 callsubr
          92 95 28 callgsubr
          hintmask 10111000
          212 774 -86 callgsubr
          -189 -776 -106 callsubr
          hintmask 11011000
          -85 callsubr
          endchar
        </CharString>
        <CharString name="Aogonek">
          -6 -168 69 240 -11 callsubr
          hstemhm
          304 67 hintmask 11011000
          384 -2 rmoveto
          49 hlineto
          31 13 8 14 1 hvcurveto
          1 5 0 6 -1 7 -93 636 rcurveline
          19 -3 -19 9 -37 hhcurveto
          -56 hlineto
          -35 -22 -9 -19 -7 hvcurveto
          -224 -636 -3 -7 -1 -6 -1 -5 rlinecurve
          -14 -1 14 -8 33 hhcurveto
          -70 callgsubr
          12 -115 rlineto
          -22 -38 -6 -40 -22 -37 callgsubr
          20 callgsubr
          15 3 19 6 19 hvcurveto
          -186 265 rmoveto
          hintmask 11101000
          -85 callsubr
          endchar
        </CharString>
        <CharString name="Aring">
          -39 callsubr
          45 62 73 64 hstemhm
          215 62 74 61 hintmask 00000000
          hintmask 10111110
          302 727 -65 callgsubr
          -287 -791 rmoveto
          -70 callgsubr
          13 -122 rlineto
          -16 3 20 -5 28 hhcurveto
          49 hlineto
          31 13 8 14 1 hvcurveto
          1 5 0 6 -1 7 rrcurveto
          hintmask 10101110
          -93 636 rlineto
          19 -3 -19 9 -37 hhcurveto
          -56 hlineto
          -35 -22 -9 -19 -7 hvcurveto
          -224 -636 -3 -7 -1 -6 -1 -5 rlinecurve
          hintmask 10111110
          -14 -1 14 -8 33 hhcurveto
          171 265 rmoveto
          hintmask 11001110
          -85 callsubr
          endchar
        </CharString>
        <CharString name="Aringacute">
          -6 141 122 469 64 16 119 hstemhm
          203 62 74 61 hintmask 00000000
          hintmask 11111000
          289 812 rmoveto
          47 18 13 12 12 hvcurveto
          83 70 5 2 1 8 rrcurveto
          11 1 -20 3 -40 hhcurveto
          -40 -33 -6 -21 -15 hvcurveto
          -17 -23 -12 -17 -20 -37 rrcurveto
          -11 -1 7 -4 24 hhcurveto
          189 -774 rmoveto
          -90 616 rlineto
          hintmask 11011000
          6 13 4 14 2 15 rrcurveto
          58 6 -32 42 -63 hhcurveto
          -62 -40 -42 -58 -6 hvcurveto
          -1 -10 0 -10 1 -9 -221 -629 rcurveline
          -3 -7 -1 -6 -1 -5 rrcurveto
          -14 -1 14 -8 33 hhcurveto
          -70 callgsubr
          13 -122 rlineto
          -16 3 20 -5 28 hhcurveto
          49 hlineto
          31 13 8 14 1 hvcurveto
          hintmask 11111000
          1 5 0 6 -1 7 rrcurveto
          hintmask 11011000
          -213 657 rmoveto
          23 2 15 14 24 hhcurveto
          23 12 -14 -23 -2 hvcurveto
          -23 -3 -15 -13 -23 hhcurveto
          -24 -12 13 23 3 hvcurveto
          -71 -432 rmoveto
          -85 callsubr
          endchar
        </CharString>
        <CharString name="Atilde">
          -39 callsubr
          77 83 -54 83 28 callgsubr
          hintmask 10101100
          174 757 -35 callsubr
          hintmask 10110100
          -97 callsubr
          hintmask 10101100
          -77 callgsubr
          -140 -762 -106 callsubr
          hintmask 11001100
          -85 callsubr
          endchar
        </CharString>
        <CharString name="B">
          28 0 121 175 119 165 120 hstemhm
          348 149 -134 149 hintmask 11110000
          67 hmoveto
          182 hlineto
          171 65 84 113 12 hvcurveto
          9 86 -35 59 -66 20 rrcurveto
          4 vlineto
          hintmask 11101000
          56 31 42 51 9 83 rrcurveto
          108 11 -57 61 -146 hhcurveto
          -179 hlineto
          -26 -12 -12 -27 -3 hvcurveto
          -66 -621 rlineto
          hintmask 11110000
          -36 callgsubr
          155 415 rmoveto
          17 165 rlineto
          hintmask 11101000
          71 hlineto
          42 17 -22 -58 -6 hvcurveto
          -59 -6 -23 -26 -43 hhcurveto
          -100 -294 rmoveto
          18 175 rlineto
          hintmask 11110000
          76 hlineto
          49 21 -22 -63 -7 hvcurveto
          -65 -6 -27 -25 -48 hhcurveto
          endchar
        </CharString>
        <CharString name="C">
          68 callsubr
          64 callsubr
          293 -8 -81 callsubr
        </CharString>
        <CharString name="CR">
          -374 endchar
        </CharString>
        <CharString name="Cacute">
          68 callsubr
          44 159 64 callsubr
          295 752 rmoveto
          -106 callgsubr
          -2 -760 -81 callsubr
        </CharString>
        <CharString name="Cacute.loclPLK">
          68 callsubr
          44 159 64 callsubr
          305 752 -72 callsubr
          -12 -760 -81 callsubr
        </CharString>
        <CharString name="Ccaron">
          68 callsubr
          41 146 64 callsubr
          326 749 -103 callgsubr
          -33 -757 -81 callsubr
        </CharString>
        <CharString name="Ccedilla">
          -52 -212 73 131 136 445 135 hstemhm
          42.51 160.15 6.34001 93 hintmask 11110000
          442 697 rmoveto
          5 -18 -32 6 -36 hhcurveto
          -187 -97 -118 -238 -25 hvcurveto
          -21 -195 52 -111 112 -39 rrcurveto
          hintmask 11101000
          -20 -57 -8 -20 -9 -60 callsubr
          12 42 rlineto
          -1 14 14 -1 15 hhcurveto
          30 29 3 11 23 hvcurveto
          24 12 16 21 37 vvcurveto
          1 43 -13 28 -29 -8 rrcurveto
          -6 -22 -16 -5 -29 hhcurveto
          hintmask 11110000
          -82 -34 76 147 15 hvcurveto
          148 16 46 74 81 hhcurveto
          27 20 -5 -5 16 hvcurveto
          26 -10 24 51 6 46 3 21 -4 19 -25 7 rrcurveto
          endchar
        </CharString>
        <CharString name="Ccircumflex">
          68 callsubr
          41 146 64 callsubr
          225 749 -107 callgsubr
          68 -757 -81 callsubr
        </CharString>
        <CharString name="Cdotaccent">
          68 callsubr
          47 124 37 callsubr
          65.34 137 vstem
          331 755 rmoveto
          -107 callsubr
          -38 -763 -81 callsubr
        </CharString>
        <CharString name="D">
          66 71 callsubr
          93 callsubr
          62 hmoveto
          -53 callgsubr
          endchar
        </CharString>
        <CharString name="Dcaron">
          66 71 callsubr
          49 146 129 callgsubr
          749 -103 callgsubr
          -264 -749 rmoveto
          -53 callgsubr
          endchar
        </CharString>
        <CharString name="Dcroat">
          -30 callsubr
        </CharString>
        <CharString name="E">
          -37 callsubr
          85 callgsubr
          67 hmoveto
          -105 callgsubr
          endchar
        </CharString>
        <CharString name="Eacute">
          -37 callsubr
          52 159 85 callgsubr
          266 752 rmoveto
          -106 callgsubr
          -199 -752 rmoveto
          -105 callgsubr
          endchar
        </CharString>
        <CharString name="Ebreve">
          -37 callsubr
          52 91 85 callgsubr
          300 -56 callgsubr
          -233 -752 rmoveto
          -105 callgsubr
          endchar
        </CharString>
        <CharString name="Ecaron">
          -37 callsubr
          49 146 85 callgsubr
          297 749 -103 callgsubr
          -230 -749 rmoveto
          -105 callgsubr
          endchar
        </CharString>
        <CharString name="Ecircumflex">
          -37 callsubr
          49 146 85 callgsubr
          196 749 -107 callgsubr
          -129 -749 rmoveto
          -105 callgsubr
          endchar
        </CharString>
        <CharString name="Edieresis">
          -37 callsubr
          55 124 hstem
          170 76 callsubr
          vstem
          221 755 -103 callsubr
          -316 -755 rmoveto
          -105 callgsubr
          endchar
        </CharString>
        <CharString name="Edotaccent">
          -37 callsubr
          55 124 hstemhm
          239 112 callgsubr
          hintmask 11111000
          302 755 rmoveto
          -107 callsubr
          -235 -755 rmoveto
          -105 callgsubr
          endchar
        </CharString>
        <CharString name="Egrave">
          -37 callsubr
          52 159 85 callgsubr
          326 752 -99 callsubr
          -259 -752 rmoveto
          -105 callgsubr
          endchar
        </CharString>
        <CharString name="Emacron">
          -37 callsubr
          74 95 85 callgsubr
          207 774 -86 callgsubr
          -140 -774 rmoveto
          -105 callgsubr
          endchar
        </CharString>
        <CharString name="Eng">
          79 112 callsubr
          797 -20 93 callgsubr
          526 702 rmoveto
          -24 -74 callgsubr
          -37 -329 -3 -26 2 -27 1 -26 rlinecurve
          -4 -2 -7 26 -8 26 -11 26 rlinecurve
          -143 336 rlineto
          24 -10 -17 4 -22 hhcurveto
          -26 -74 callgsubr
          -67 -640 39 callgsubr
          24 hlineto
          41 67 callgsubr
          37 339 3 23 -2 22 -2 23 rlinecurve
          6 3 6 -21 5 -23 9 -20 rlinecurve
          139 -320 -12 -108 rlineto
          -30 -3 -7 -13 -18 -11 -13 4 -6 hhcurveto
          -21 -15 -47 -23 -2 hvcurveto
          -39 -4 34 -12 63 hhcurveto
          76 64 53 109 11 hvcurveto
          76 720 39 callsubr
          endchar
        </CharString>
        <CharString name="Eogonek">
          -54 -177 69 108 -34 callgsubr
          hstem
          300 67 vstem
          440 141 callsubr
          20 5 26 11 26 hvcurveto
          8 7 4 14 2 21 3 31 rcurveline
          -104 callgsubr
          253 hlineto
          -16 -33 -4 -31 -19 35 callgsubr
        </CharString>
        <CharString name="Eth">
          -30 callsubr
        </CharString>
        <CharString name="Euro">
          -8 -8 136 105 75 76 75 114 135 hstemhm
          57 163 -155.5 158.5 hintmask 00000000
          hintmask 11111000
          282 -8 rmoveto
          97 85 42 42 5 hvcurveto
          16 1 -17 67 -35 -17 -33 -31 -61 hhcurveto
          -50 -29 35 70 -8 hvcurveto
          168 hlineto
          21 10 10 24 3 hvcurveto
          7 vlineto
          24 3 -8 10 -21 hhcurveto
          hintmask 01110100
          -178 hlineto
          14 2 14 1 15 vhcurveto
          2 11 1 11 1 11 rrcurveto
          179 hlineto
          21 10 10 24 2 hvcurveto
          1 7 rlineto
          24 3 -8 10 -21 hhcurveto
          -171 hlineto
          76 23 37 38 54 60 23 -26 12 hhcurveto
          24 46 64 27 3 hvcurveto
          29 3 -68 41 -96 hhcurveto
          -151 -91 -83 -166 -40 hvcurveto
          -29 hlineto
          -21 -10 -10 -24 -3 hvcurveto
          -1 -7 rlineto
          -24 -2 8 -10 21 hhcurveto
          23 hlineto
          -3 -32 rlineto
          hintmask 01111000
          -2 -15 -2 -15 -14 vvcurveto
          -24 hlineto
          -21 -10 -10 -24 -3 hvcurveto
          -7 vlineto
          -24 -3 8 -10 21 hhcurveto
          30 hlineto
          hintmask 11111000
          -165 6 70 -76 149 hhcurveto
          endchar
        </CharString>
        <CharString name="F">
          -88 292 131 146 131 hstem
          33 407.32 vstem
          88 -2 rmoveto
          40 46 callgsubr
          28 262 rlineto
          147 hlineto
          20 -23 callsubr
          -20 hhcurveto
          -147 hlineto
          15 146 77 callgsubr
          20 -23 callsubr
          -20 hhcurveto
          -275 hlineto
          -26 -12 -12 -28 -3 hvcurveto
          -67 -630 17 callsubr
          endchar
        </CharString>
        <CharString name="G">
          41 27 callgsubr
          hstem
          62 callgsubr
          vstem
          355 573 -78 callgsubr
          endchar
        </CharString>
        <CharString name="Gbreve">
          41 27 callgsubr
          44 91 hstem
          62 callgsubr
          vstem
          351 -56 callgsubr
          4 -179 -78 callgsubr
          endchar
        </CharString>
        <CharString name="Gcircumflex">
          41 27 callgsubr
          41 146 hstem
          62 callgsubr
          vstem
          247 749 -107 callgsubr
          108 -176 -78 callgsubr
          endchar
        </CharString>
        <CharString name="Gcommaaccent">
          41 136 callsubr
          62 callgsubr
          11.18001 123 hintmask 11110000
          355 573 -78 callgsubr
          hintmask 11111000
          -62 -624 rmoveto
          -20 hlineto
          -41 -17 -17 -27 hvcurveto
          -80 -10 -25 -18 vvcurveto
          -16 26 -6 18 29 60 78 67 25 -12 19 -33 vhcurveto
          endchar
        </CharString>
        <CharString name="Gdotaccent">
          41 27 callgsubr
          47 124 hstem
          62 callgsubr
          86.18001 137 vstem
          353 755 rmoveto
          -107 callsubr
          2 -182 -78 callgsubr
          endchar
        </CharString>
        <CharString name="H">
          90 291 132 279 -20 hstem
          33 553 vstem
          4 callsubr
          endchar
        </CharString>
        <CharString name="Hbar">
          90 291 132 53 95 131 -20 hstemhm
          95.5 157.5 171 156.5 hintmask 00000000
          hintmask 11111000
          636 571 rmoveto
          -61 hlineto
          11 99 -71 callsubr
          -41 -74 callgsubr
          -10 -99 rlineto
          -171 hlineto
          10 99 rlineto
          21 2 -16 11 -40 hhcurveto
          -42 -74 callgsubr
          -11 -99 rlineto
          -70 78 callsubr
          71 hlineto
          -47 -446 17 callsubr
          42 102 callgsubr
          28 261 rlineto
          171 hlineto
          -28 -261 123 callgsubr
          47 446 rlineto
          60 78 callgsubr
          -233 -148 rmoveto
          -171 hlineto
          6 53 rlineto
          171 hlineto
          endchar
        </CharString>
        <CharString name="Hcircumflex">
          90 291 132 279 -20 67 146 hstem
          33 553 vstem
          248 749 -107 callgsubr
          -160 -751 6 callgsubr
          endchar
        </CharString>
        <CharString name="I">
          98 callgsubr
          hstem
          28 225 vstem
          83 -3 -83 callsubr
          endchar
        </CharString>
        <CharString name="IJ">
          106 139 callgsubr
          hstem
          28 571 vstem
          83 -3 -83 callsubr
          264 -5 -59 callsubr
          endchar
        </CharString>
        <CharString name="Iacute">
          98 callgsubr
          69 159 hstem
          28 281 vstem
          149 752 rmoveto
          -106 callgsubr
          -66 -755 -83 callsubr
          endchar
        </CharString>
        <CharString name="Iacute_J.loclNLD">
          106 139 callgsubr
          69 159 hstem
          28 625 vstem
          149 752 rmoveto
          -106 callgsubr
          344 hmoveto
          -106 callgsubr
          -410 -755 -83 callsubr
          264 -5 -59 callsubr
          endchar
        </CharString>
        <CharString name="Ibreve">
          98 callgsubr
          69 91 hstem
          28 297.16 vstem
          183 -56 callgsubr
          -100 -755 -83 callsubr
          endchar
        </CharString>
        <CharString name="Icircumflex">
          98 callgsubr
          66 146 hstem
          28 280 vstem
          79 749 -107 callgsubr
          4 -752 -83 callsubr
          endchar
        </CharString>
        <CharString name="Idieresis">
          98 callgsubr
          72 124 hstem
          53 76 callsubr
          vstem
          104 755 -103 callsubr
          -183 -758 -83 callsubr
          endchar
        </CharString>
        <CharString name="Idotaccent">
          98 callgsubr
          72 124 hstemhm
          122 112 callgsubr
          hintmask 11100000
          185 755 rmoveto
          -107 callsubr
          -102 -758 -83 callsubr
          endchar
        </CharString>
        <CharString name="Igrave">
          98 callgsubr
          69 159 hstem
          28 225 vstem
          209 752 -99 callsubr
          -126 -755 -83 callsubr
          endchar
        </CharString>
        <CharString name="Imacron">
          98 callgsubr
          91 95 hstem
          28 288.31 vstem
          90 774 -86 callgsubr
          -7 -777 -83 callsubr
          endchar
        </CharString>
        <CharString name="Iogonek">
          -249 -172 69 806 -20 hstem
          96 67 vstem
          236 -99 rmoveto
          70 callgsubr
          3 4 1 5 1 6 68 640 rcurveline
          21 2 -16 12 98 callsubr
          -41 -18 -12 26 callgsubr
          -12 41 hhcurveto
          29 hlineto
          -12 -30 -4 -28 -17 35 callgsubr
        </CharString>
        <CharString name="Itilde">
          98 callgsubr
          76 104 callsubr
          28 285 hintmask 00000000
          hintmask 10110000
          65 757 rmoveto
          8 callsubr
          5 hhcurveto
          hintmask 11010000
          -50 callgsubr
          hintmask 10110000
          1 callsubr
          28 -763 -83 callsubr
          endchar
        </CharString>
        <CharString name="J">
          -156 139 callgsubr
          hstem
          -25 362 vstem
          85 -8 -59 callsubr
          endchar
        </CharString>
        <CharString name="Jcircumflex">
          -156 139 callgsubr
          66 146 hstem
          -25 415 vstem
          161 749 -107 callgsubr
          -76 -757 -59 callsubr
          endchar
        </CharString>
        <CharString name="K">
          -1 333 47 322 -20 hstem
          33 519 -14 callsubr
          endchar
        </CharString>
        <CharString name="Kcommaaccent">
          -1 333 47 322 -20 hstem
          176 123 -14 callsubr
          122 -238 -72 callgsubr
          endchar
        </CharString>
        <CharString name="L">
          125 callgsubr
          hstem
          34 340.31 vstem
          67 hmoveto
          -62 callgsubr
          endchar
        </CharString>
        <CharString name="Lacute">
          125 callgsubr
          70 159 hstem
          34 340.31 vstem
          155 752 rmoveto
          -106 callgsubr
          -88 -752 rmoveto
          -62 callgsubr
          endchar
        </CharString>
        <CharString name="Lcaron">
          -103 0 131 569 -20 22 -20 hstemhm
          303 123 hintmask 10110000
          67 hmoveto
          -62 callgsubr
          281 511 rmoveto
          hintmask 11010000
          7 callsubr
          hintmask 10110000
          -16 27 -6 18 vhcurveto
          endchar
        </CharString>
        <CharString name="Lcommaaccent">
          125 callgsubr
          hstem
          126 123 vstem
          67 hmoveto
          -62 callgsubr
          93 -240 -72 callgsubr
          endchar
        </CharString>
        <CharString name="Ldot">
          -103 0 131 158 140 273 -20 hstemhm
          34 360.4 -136.4 136 hintmask 10110000
          67 hmoveto
          -62 callgsubr
          hintmask 11101000
          252 289 29 callgsubr
        </CharString>
        <CharString name="Lslash">
          125 callgsubr
          hstem
          13 360.31 vstem
          348 131 rmoveto
          -149 hlineto
          29 273 50 31 rlineto
          18 11 8 14 21 vvcurveto
          20 vlineto
          13 -4 7 -7 -4 -5 -2 -4 -6 vhcurveto
          -41 -25 19 180 rlineto
          21 2 -16 145 callgsubr
          -30 -282 -31 -19 rlineto
          -18 -11 -8 -12 -22 vvcurveto
          -20 vlineto
          -14 3 -6 8 4 5 1 4 6 vhcurveto
          22 13 -28 -262 45 callsubr
          1 callgsubr
          endchar
        </CharString>
        <CharString name="M">
          178 151 callgsubr
          27.77 650.23 vstem
          331 223 rmoveto
          17 hlineto
          21 11 7 17 10 hvcurveto
          89 138 10 15 9 16 8 16 rlinecurve
          4 -1 -6 -18 -5 -19 -2 -18 rlinecurve
          -36 -346 122 callsubr
          67 640 rlineto
          22 2 -16 10 -41 hhcurveto
          -31 hlineto
          -32 -18 -8 -20 -13 hvcurveto
          -148 -235 -10 -15 -8 -17 -5 -16 rlinecurve
          -4 16 -4 17 -6 15 -100 235 rcurveline
          20 -9 -16 8 -32 hhcurveto
          -31 hlineto
          -41 -18 -10 -22 -2 hvcurveto
          -67 -640 122 callsubr
          36 346 2 18 -1 19 -1 18 rlinecurve
          4 1 5 -16 5 -16 6 -15 rlinecurve
          59 -138 rlineto
          -17 8 9 -7 21 hhcurveto
          endchar
        </CharString>
        <CharString name="N">
          79 702 -20 93 callgsubr
          -19 callsubr
          endchar
        </CharString>
        <CharString name="NULL">
          -511 endchar
        </CharString>
        <CharString name="Nacute">
          79 702 119 callsubr
          93 callgsubr
          314 752 rmoveto
          -106 callgsubr
          -232 -754 -99 callgsubr
          endchar
        </CharString>
        <CharString name="Nacute.loclPLK">
          79 702 119 callsubr
          93 callgsubr
          324 752 -72 callsubr
          -242 -754 -99 callgsubr
          endchar
        </CharString>
        <CharString name="Ncaron">
          79 702 -20 67 146 93 callgsubr
          345 749 -103 callgsubr
          -263 -751 -99 callgsubr
          endchar
        </CharString>
        <CharString name="Ncommaaccent">
          79 151 callgsubr
          215 123 vstem
          -19 callsubr
          167 -238 -72 callgsubr
          endchar
        </CharString>
        <CharString name="Ntilde">
          79 702 -20 77 104 callsubr
          48 callgsubr
          hintmask 10110000
          217 757 -35 callsubr
          hintmask 11010000
          -97 callsubr
          hintmask 10110000
          -77 callgsubr
          -124 -762 -99 callgsubr
          endchar
        </CharString>
        <CharString name="O">
          -2 callsubr
          -46 callsubr
          271 -8 -95 callsubr
        </CharString>
        <CharString name="OE">
          320 -8 131 -123 -34 callgsubr
          -124 132 hstemhm
          42.37 158.4 hintmask 01110100
          799 700 rmoveto
          -311 hlineto
          -25 -12 -11 -26 -4 hvcurveto
          hintmask 10101100
          33 -30 -42 12 -57 hhcurveto
          -155 -89 -114 -244 -27 hvcurveto
          -251 -27 94 -107 133 hhcurveto
          51 45 11 23 38 hvcurveto
          hintmask 01110100
          -18 1 11 -8 21 hhcurveto
          312 hlineto
          20 11 -43 callgsubr
          -6 15 -20 hhcurveto
          -193 hlineto
          17 162 rlineto
          172 hlineto
          20 12 -43 callgsubr
          -7 15 -20 hhcurveto
          -172 hlineto
          15 145 rlineto
          192 hlineto
          20 12 -43 callgsubr
          -7 15 -20 hhcurveto
          hintmask 10101100
          -513 -577 -77 callsubr
          endchar
        </CharString>
        <CharString name="Oacute">
          88 -8 131 453 132 44 159 -46 callsubr
          317 752 rmoveto
          -106 callgsubr
          -46 -760 -95 callsubr
        </CharString>
        <CharString name="Oacute.loclPLK">
          88 -8 131 453 132 44 159 -46 callsubr
          327 752 -72 callsubr
          -56 -760 -95 callsubr
        </CharString>
        <CharString name="Obreve">
          -2 callsubr
          44 91 -46 callsubr
          351 -56 callgsubr
          -80 -760 -95 callsubr
        </CharString>
        <CharString name="Ocircumflex">
          -2 callsubr
          41 146 -46 callsubr
          -35 callgsubr
          endchar
        </CharString>
        <CharString name="Odieresis">
          -2 callsubr
          47 124 hstemhm
          42.88 157.89 20.23 76 callsubr
          -79.61 156.89 hintmask 00000000
          hintmask 11111100
          272 755 -103 callsubr
          hintmask 11110010
          -163 -763 -95 callsubr
        </CharString>
        <CharString name="Ograve">
          88 -8 131 453 132 44 159 -46 callsubr
          377 752 -99 callsubr
          -106 -760 -95 callsubr
        </CharString>
        <CharString name="Ohorn">
          -2 callsubr
          -100 43 11 callsubr
          hintmask 00000000
          hintmask 10110100
          644 702 rmoveto
          -88 callsubr
          -22 -14 -11 -20 -16 -16 7 12 -20 vhcurveto
          hintmask 11011000
          -24 callgsubr
          hintmask 10111000
          67 callsubr
          hintmask 10110100
          111 callgsubr
          hintmask 11011000
          -232 -352 rmoveto
          -26 callsubr
          -81 callgsubr
          endchar
        </CharString>
        <CharString name="Ohungarumlaut">
          88 -8 131 453 132 44 159 -46 callsubr
          250 752 -76 callsubr
          -144 -760 -95 callsubr
        </CharString>
        <CharString name="Omacron">
          -2 callsubr
          66 95 -46 callsubr
          258 774 -86 callgsubr
          13 -782 -95 callsubr
        </CharString>
        <CharString name="Oslash">
          -2 callsubr
          hstem
          42.77 158.23 217 156.24 vstem
          527 623 -41 callsubr
        </CharString>
        <CharString name="Oslashacute">
          88 147 callgsubr
          42.77 158.23 217 156.24 vstem
          314 752 rmoveto
          -106 callgsubr
          213 -129 -41 callsubr
        </CharString>
        <CharString name="Otilde">
          -2 callsubr
          51 104 callsubr
          -59 callgsubr
          hintmask 11011100
          220 757 -3 callgsubr
          62 -768 -95 callsubr
        </CharString>
        <CharString name="P">
          262 129 178 131 hstem
          344 152.12 vstem
          90 -2 57 callsubr
          25 232 rlineto
          69 hlineto
          45 148 26 193 20 hvcurveto
          193 20 -122 26 -75 hhcurveto
          -173 hlineto
          -28 -13 -12 -28 -3 hvcurveto
          -67 -630 55 callsubr
          134 393 rmoveto
          19 178 rlineto
          53 hlineto
          25 30 -16 -72 -7 hvcurveto
          -74 -8 -34 -16 -25 hhcurveto
          endchar
        </CharString>
        <CharString name="Q">
          88 576 132 hstem
          41.81 157.96 216.62 157.08 vstem
          471 -159 rmoveto
          32 42 79 15 3 hvcurveto
          1 7 -2 7 -9 4 -152 69 rcurveline
          1 4 99 48 63 104 20 172 rlinecurve
          250 26 -88 108 -161 hhcurveto
          -176 -98 -107 -251 -26 hvcurveto
          -19 -183 45 -99 83 -53 rrcurveto
          -57 89 213 -117 14 hhcurveto
          -186 280 rmoveto
          -69 -30 49 180 19 hvcurveto
          178 19 40 48 69 hhcurveto
          68 29 -48 -178 -19 hvcurveto
          -180 24 callgsubr
          endchar
        </CharString>
        <CharString name="R">
          95 callgsubr
          hstem
          138 callgsubr
          vstem
          -20 callsubr
          endchar
        </CharString>
        <CharString name="Racute">
          95 callgsubr
          52 159 hstem
          138 callgsubr
          vstem
          269 752 rmoveto
          -106 callgsubr
          -182 -754 -86 callsubr
          endchar
        </CharString>
        <CharString name="Rcaron">
          95 callgsubr
          49 146 hstem
          138 callgsubr
          vstem
          300 749 -103 callgsubr
          -213 -751 -86 callsubr
          endchar
        </CharString>
        <CharString name="Rcommaaccent">
          95 callgsubr
          hstem
          173 123 vstem
          -20 callsubr
          -73 -642 -72 callgsubr
          endchar
        </CharString>
        <CharString name="S">
          109 callsubr
          133 callgsubr
          -15 callsubr
          endchar
        </CharString>
        <CharString name="Sacute">
          -74 147 callgsubr
          52 156 48 156 vstem
          235 752 rmoveto
          -106 callgsubr
          -65 -760 -93 callgsubr
          endchar
        </CharString>
        <CharString name="Sacute.loclPLK">
          -74 147 callgsubr
          52 156 48 156 vstem
          245 752 -72 callsubr
          -75 -760 -93 callgsubr
          endchar
        </CharString>
        <CharString name="Scaron">
          109 callsubr
          41 146 133 callgsubr
          266 749 -103 callgsubr
          -96 -757 -93 callgsubr
          endchar
        </CharString>
        <CharString name="Scedilla">
          -74 -212 73 715 132 hstemhm
          52 156 -64 93 19 156 hintmask 11101000
          297 403 rmoveto
          -46 30 -43 21 54 vvcurveto
          18 5 50 72 14 19 -3 -11 30 vhcurveto
          -3 9 12 -4 9 hhcurveto
          28 17 60 30 14 -9 12 -15 9 hvcurveto
          19 -31 -52 9 -40 hhcurveto
          -125 -99 -84 -142 -90 39 -39 69 -44 hvcurveto
          49 -31 47 -22 -51 vvcurveto
          -63 -43 -19 -38 -40 -26 14 19 -35 vhcurveto
          4 -7 -6 3 -6 hhcurveto
          -28 -24 -62 -35 1 hvcurveto
          hintmask 11011000
          -27 35 -20 31 -11 vhcurveto
          16 -5 17 -5 18 -2 rrcurveto
          -17 -49 -7 -18 -8 -60 callsubr
          12 40 rlineto
          hintmask 11101000
          140 6 87 85 147 vvcurveto
          87 -42 39 -73 47 vhcurveto
          endchar
        </CharString>
        <CharString name="Scircumflex">
          109 callsubr
          41 146 133 callgsubr
          165 749 -107 callgsubr
          5 -757 -93 callgsubr
          endchar
        </CharString>
        <CharString name="Scommaaccent">
          109 callsubr
          hstemhm
          52 156 -113 123 38 156 hintmask 11101000
          -15 callsubr
          hintmask 11011000
          -41 -232 -72 callgsubr
          endchar
        </CharString>
        <CharString name="T">
          -57 569 131 hstem
          117 callsubr
          vstem
          -27 callgsubr
          endchar
        </CharString>
        <CharString name="Tbar">
          -57 303 95 171 131 hstem
          27 462.31 vstem
          464 700 rmoveto
          -6 callgsubr
          -18 -171 rlineto
          -99 78 callsubr
          100 hlineto
          -29 -273 123 callgsubr
          29 273 rlineto
          99 78 callgsubr
          -100 hlineto
          18 171 rlineto
          112 -48 callsubr
          endchar
        </CharString>
        <CharString name="Tcaron">
          -57 569 131 49 146 hstem
          117 callsubr
          vstem
          276 749 -103 callgsubr
          -97 -751 -25 callsubr
          endchar
        </CharString>
        <CharString name="Thorn">
          153 129 178 131 111 -20 hstem
          330 152.12 vstem
          85 -2 rmoveto
          40 hlineto
          40 73 callgsubr
          13 123 rlineto
          67 hlineto
          45 147 26 193 21 hvcurveto
          193 20 -122 26 -75 hhcurveto
          -57 hlineto
          8 79 39 callsubr
          -40 -74 callgsubr
          -67 -640 39 callgsubr
          128 284 rmoveto
          19 178 rlineto
          50 hlineto
          26 29 -16 -72 -7 hvcurveto
          -74 -8 -33 -16 -26 hhcurveto
          endchar
        </CharString>
        <CharString name="U">
          46 callsubr
          hstemhm
          45 157 hintmask 00000000
          hintmask 11100000
          264 -8 -94 callsubr
          endchar
        </CharString>
        <CharString name="Uacute">
          61 callsubr
          14 callgsubr
          hintmask 11110000
          309 752 rmoveto
          -106 callgsubr
          hintmask 11101000
          -45 -760 -94 callsubr
          endchar
        </CharString>
        <CharString name="Ubreve">
          46 callsubr
          70 91 14 callgsubr
          hintmask 11110000
          343 -56 callgsubr
          hintmask 11101000
          -79 -760 -94 callsubr
          endchar
        </CharString>
        <CharString name="Ucircumflex">
          46 callsubr
          67 146 14 callgsubr
          hintmask 11110000
          239 749 -107 callgsubr
          hintmask 11101000
          25 -757 -94 callsubr
          endchar
        </CharString>
        <CharString name="Udieresis">
          46 callsubr
          73 124 hstemhm
          45 157 11 76 callsubr
          hintmask 11101100
          264 755 -103 callsubr
          hintmask 11111100
          -162 -763 -94 callsubr
          endchar
        </CharString>
        <CharString name="Ugrave">
          61 callsubr
          14 callgsubr
          hintmask 11110000
          369 752 -99 callsubr
          hintmask 11101000
          -105 -760 -94 callsubr
          endchar
        </CharString>
        <CharString name="Uhorn">
          46 callsubr
          hstem
          45 157 373 78 vstem
          653 753 -79 callgsubr
        </CharString>
        <CharString name="Uhungarumlaut">
          61 callsubr
          14 callgsubr
          hintmask 11110000
          242 752 -76 callsubr
          hintmask 11101000
          -143 -760 -94 callsubr
          endchar
        </CharString>
        <CharString name="Umacron">
          46 callsubr
          92 95 14 callgsubr
          hintmask 11110000
          250 774 -86 callgsubr
          hintmask 11101000
          14 -782 -94 callsubr
          endchar
        </CharString>
        <CharString name="Uogonek">
          72 -160 69 83 88 callgsubr
          hstem
          45 157 127 67 vstem
          520 702 rmoveto
          -39 -43 callsubr
          28 26 3 5 23 hvcurveto
          -9 -26 -3 -24 -16 -37 callgsubr
          145 callsubr
          26 11 25 hvcurveto
          65 36 40 61 9 83 49 465 rcurveline
          -63 callgsubr
          endchar
        </CharString>
        <CharString name="Uring">
          46 callsubr
          45 62 73 64 hstemhm
          45 157 51 62 74 61 hintmask 00000000
          hintmask 11111110
          340 727 -65 callgsubr
          -84 -797 rmoveto
          150 98 78 135 14 hvcurveto
          hintmask 11011110
          -92 callgsubr
          hintmask 11111110
          -11 callgsubr
          endchar
        </CharString>
        <CharString name="Utilde">
          46 callsubr
          77 83 -54 83 14 callgsubr
          hintmask 11011000
          212 757 -35 callsubr
          hintmask 11101000
          -97 callsubr
          hintmask 11011000
          -77 callgsubr
          hintmask 11010100
          63 -768 -94 callsubr
          endchar
        </CharString>
        <CharString name="V">
          -3 -2 154 550 -20 hstem
          49 497 vstem
          192 -2 rmoveto
          71 hlineto
          28 22 5 16 5 hvcurveto
          223 643 2 7 2 6 1 5 rlinecurve
          14 1 -17 8 -39 hhcurveto
          -37 hlineto
          -28 -23 -7 -22 -7 hvcurveto
          -136 -452 -17 -69 rlineto
          -4 hlineto
          -1 69 -39 452 rlineto
          22 -2 -22 7 -28 hhcurveto
          -38 hlineto
          -39 -20 -8 -14 -1 hvcurveto
          -1 -5 2 -6 1 -7 90 -643 rcurveline
          -16 2 21 -5 28 hhcurveto
          endchar
        </CharString>
        <CharString name="W">
          241 702 -20 94 callsubr
          166 -2 rmoveto
          56 hlineto
          26 22 7 14 5 hvcurveto
          -89 callsubr
          -14 1 17 -7 31 hhcurveto
          endchar
        </CharString>
        <CharString name="Wacute">
          241 702 119 callsubr
          94 callsubr
          389 752 rmoveto
          -106 callgsubr
          -223 -754 rmoveto
          56 hlineto
          26 22 7 14 5 hvcurveto
          -89 callsubr
          -14 1 17 -7 31 hhcurveto
          endchar
        </CharString>
        <CharString name="Wcircumflex">
          241 702 -20 67 146 94 callsubr
          319 749 -107 callgsubr
          -153 -751 rmoveto
          56 hlineto
          26 22 7 14 5 hvcurveto
          -89 callsubr
          -14 1 17 -7 31 hhcurveto
          endchar
        </CharString>
        <CharString name="Wdieresis">
          241 702 103 callsubr
          48 157 88 114 -8 122 -66 114 hintmask 11110100
          344 755 -103 callsubr
          -340 -757 rmoveto
          56 hlineto
          26 22 7 14 5 hvcurveto
          hintmask 11101000
          -89 callsubr
          hintmask 11110100
          -14 1 17 -7 31 hhcurveto
          endchar
        </CharString>
        <CharString name="Wgrave">
          241 702 119 callsubr
          94 callsubr
          449 752 -99 callsubr
          -283 -754 rmoveto
          56 hlineto
          26 22 7 14 5 hvcurveto
          -89 callsubr
          -14 1 17 -7 31 hhcurveto
          endchar
        </CharString>
        <CharString name="X">
          -5 151 callgsubr
          -18 557 vstem
          39 -2 rmoveto
          45 hlineto
          29 19 0 20 9 hvcurveto
          117 254 55 -255 rlineto
          -15 4 22 -4 27 hhcurveto
          43 hlineto
          40 20 7 12 1 hvcurveto
          1 7 -3 7 -3 11 -103 321 rcurveline
          167 295 rlineto
          6 11 4 8 6 vvcurveto
          12 2 -20 7 -39 hhcurveto
          -47 hlineto
          -29 -21 -2 -18 -8 hvcurveto
          -101 -235 -45 236 rlineto
          16 -3 -23 3 -26 hhcurveto
          -47 hlineto
          -40 -21 -8 -11 -1 hvcurveto
          -7 3 -8 4 -10 vhcurveto
          95 -293 -179 -323 -6 -12 -4 -7 -1 -6 rlinecurve
          -12 -1 17 -7 41 hhcurveto
          endchar
        </CharString>
        <CharString name="Y">
          -27 151 callgsubr
          45 481 vstem
          195 -2 -87 callgsubr
        </CharString>
        <CharString name="Y.loclGUA">
          33 callgsubr
          hstem
          29 468 vstem
          440 701 -98 callgsubr
          endchar
        </CharString>
        <CharString name="Yacute">
          135 callsubr
          259 752 rmoveto
          -106 callgsubr
          -64 -754 -87 callgsubr
        </CharString>
        <CharString name="Yacute.loclGUA">
          33 callgsubr
          71 159 hstem
          29 468 vstem
          266 752 rmoveto
          -106 callgsubr
          174 -51 -98 callgsubr
          endchar
        </CharString>
        <CharString name="Ycircumflex">
          -27 702 -20 67 146 hstem
          45 481 vstem
          189 749 -107 callgsubr
          6 -751 -87 callgsubr
        </CharString>
        <CharString name="Ycircumflex.loclGUA">
          33 callgsubr
          68 146 hstem
          29 468 vstem
          196 749 -107 callgsubr
          244 -48 -98 callgsubr
          endchar
        </CharString>
        <CharString name="Ydieresis">
          -27 702 -20 73 124 hstem
          163 76 callsubr
          vstem
          214 755 -103 callsubr
          -181 -757 -87 callgsubr
        </CharString>
        <CharString name="Ydieresis.loclGUA">
          33 callgsubr
          74 124 hstem
          170 76 callsubr
          vstem
          221 755 -103 callsubr
          57 -54 -98 callgsubr
          endchar
        </CharString>
        <CharString name="Ygrave">
          135 callsubr
          319 752 -99 callsubr
          -124 -754 -87 callgsubr
        </CharString>
        <CharString name="Ygrave.loclGUA">
          33 callgsubr
          71 159 hstem
          29 468 vstem
          326 752 -99 callsubr
          114 -51 -98 callgsubr
          endchar
        </CharString>
        <CharString name="Z">
          -4 71 callsubr
          108 callsubr
          35 10 callsubr
          endchar
        </CharString>
        <CharString name="Zacute">
          -4 71 callsubr
          52 159 108 callsubr
          274 752 rmoveto
          -106 callgsubr
          -239 -752 rmoveto
          -85 callgsubr
          endchar
        </CharString>
        <CharString name="Zacute.loclPLK">
          -4 71 callsubr
          52 159 108 callsubr
          284 752 -72 callsubr
          -249 -752 rmoveto
          -85 callgsubr
          endchar
        </CharString>
        <CharString name="Zcaron">
          -4 71 callsubr
          49 146 108 callsubr
          305 749 -103 callgsubr
          -270 -749 rmoveto
          -85 callgsubr
          endchar
        </CharString>
        <CharString name="Zdotaccent">
          -4 71 callsubr
          55 124 hstemhm
          247 112 callgsubr
          hintmask 11110000
          310 755 rmoveto
          -107 callsubr
          -275 -755 rmoveto
          -85 callgsubr
          endchar
        </CharString>
        <CharString name="a">
          -38 callgsubr
          -42 callsubr
          hintmask 10110000
          155 -9 -105 callsubr
          hintmask 11010000
          -64 callgsubr
          hintmask 10110000
          -75 callsubr
          hintmask 11010000
          -82 callsubr
          hintmask 10110000
          3 callsubr
          endchar
        </CharString>
        <CharString name="aacute">
          -38 callgsubr
          70 159 83 callgsubr
          237 575 rmoveto
          -106 callgsubr
          -82 -584 -94 callgsubr
        </CharString>
        <CharString name="abreve">
          -38 callgsubr
          70 91 83 callgsubr
          271 575 rmoveto
          93 44 58 48 5 hvcurveto
          26 3 -18 8 -21 hhcurveto
          -14 -11 -7 -9 -5 hvcurveto
          -10 -7 -5 -23 -53 hhcurveto
          -50 -2 20 11 -6 hvcurveto
          11 -4 -8 7 -16 hhcurveto
          -22 -19 -8 -26 -3 hvcurveto
          -49 -5 33 -57 91 hhcurveto
          -116 -584 -94 callgsubr
        </CharString>
        <CharString name="acircumflex">
          -38 callgsubr
          67 146 83 callgsubr
          167 572 -107 callgsubr
          -12 -581 -94 callgsubr
        </CharString>
        <CharString name="acute">
          -255 127 callgsubr
          33 189 vstem
          62 575 rmoveto
          -106 callgsubr
          endchar
        </CharString>
        <CharString name="acute.loclPLK">
          -255 127 callgsubr
          38 165 vstem
          67 575 -72 callsubr
          endchar
        </CharString>
        <CharString name="acutecomb">
          -511 127 callgsubr
          -20 189 vstem
          9 575 rmoveto
          -106 callgsubr
          endchar
        </CharString>
        <CharString name="adieresis">
          -38 callgsubr
          73 124 -42 callsubr
          -35.07 76 callsubr
          hintmask 00000000
          hintmask 10110110
          192 578 -103 callsubr
          hintmask 10111000
          -199 -587 -94 callgsubr
        </CharString>
        <CharString name="ae">
          177 -8 117 98 99 108 117 105 callsubr
          153 -8 -44 callsubr
        </CharString>
        <CharString name="aeacute">
          177 -8 117 98 99 108 117 44 159 105 callsubr
          343 575 rmoveto
          -106 callgsubr
          -190 -583 -44 callsubr
        </CharString>
        <CharString name="agrave">
          -38 callgsubr
          70 159 83 callgsubr
          297 575 -99 callsubr
          -142 -584 -94 callgsubr
        </CharString>
        <CharString name="amacron">
          -38 callgsubr
          92 95 83 callgsubr
          178 597 -86 callgsubr
          -23 -606 -94 callgsubr
        </CharString>
        <CharString name="ampersand">
          9 -8 117 200 117 165 117 hstemhm
          -3.2 153.2 -98 150 hintmask 11110000
          496 426 rmoveto
          -22 hlineto
          10 95 rlineto
          21 2 -13 11 -35 hhcurveto
          -35 hlineto
          -33 -21 -11 -21 -4 hvcurveto
          -22 -95 rlineto
          hintmask 11101000
          -63 hlineto
          -36 -27 33 50 5 hvcurveto
          49 5 18 33 29 17 11 -7 7 hhcurveto
          14 23 34 48 6 hvcurveto
          27 2 -55 15 -43 hhcurveto
          -104 -69 -68 -107 -11 hvcurveto
          -8 -69 19 -53 43 -24 rrcurveto
          -4 vlineto
          -76 -30 -22 -67 -9 -82 rrcurveto
          hintmask 11110000
          -133 -14 51 -79 124 hhcurveto
          51 47 12 28 59 hvcurveto
          -27 16 24 -13 47 hhcurveto
          27 61 3 46 5 hvcurveto
          8 1 -5 64 -18 -4 -5 -4 -9 hhcurveto
          -15 0 13 30 3 hvcurveto
          17 157 rlineto
          22 hlineto
          20 29 callsubr
          2 17 rlineto
          35 4 -8 15 -20 hhcurveto
          -346 -220 rmoveto
          66 7 17 37 64 hhcurveto
          73 hlineto
          -19 -176 rlineto
          -19 -43 -24 -5 -28 hhcurveto
          -47 -6 35 62 6 hvcurveto
          endchar
        </CharString>
        <CharString name="aogonek">
          -30 -187 69 109 -18 callsubr
          -42 callsubr
          138.93 67 hintmask 11011100
          455 -114 rmoveto
          145 callsubr
          26 11 26 hvcurveto
          38 13 19 33 39 vvcurveto
          134 callsubr
          -96 callgsubr
          hintmask 11101100
          -64 callgsubr
          -131 -14 21 -148 116 hhcurveto
          4 callgsubr
          8 -46 23 -22 35 -6 rrcurveto
          -16 -34 -5 -33 -20 -24 callsubr
          hintmask 11011100
          87 callgsubr
          -170 439 rmoveto
          -16 -159 rlineto
          3 callsubr
          -42 -4 72 83 9 hvcurveto
          hintmask 11101100
          110 12 24 37 39 hhcurveto
          19 12 -9 -11 10 hvcurveto
          hintmask 11011100
          -3 -13 -4 -26 -4 -30 rrcurveto
          endchar
        </CharString>
        <CharString name="approxequal">
          -73 88 82 -52 82 80 82 -52 82 hstemhm
          33 376 hintmask 00000000
          hintmask 10011000
          221 296 rmoveto
          hintmask 10101000
          -8 27 29 -8 22 hhcurveto
          11 callgsubr
          hintmask 10011000
          6 callsubr
          hintmask 01101000
          -12 -192 rmoveto
          hintmask 10101000
          -8 27 29 -8 22 hhcurveto
          11 callgsubr
          hintmask 01101000
          6 callsubr
          endchar
        </CharString>
        <CharString name="aring">
          -38 callgsubr
          45 62 73 64 -42 callsubr
          4.93 62 74 61 hintmask 00000000
          hintmask 10111011
          268 550 -65 callgsubr
          hintmask 10101100
          -121 -621 -105 callsubr
          hintmask 11001100
          -64 callgsubr
          hintmask 10101100
          -75 callsubr
          hintmask 11001100
          -82 callsubr
          hintmask 10101100
          3 callsubr
          endchar
        </CharString>
        <CharString name="aringacute">
          -38 callgsubr
          45 62 73 64 16 159 -42 callsubr
          11.93 62 74 61 hintmask 0000000000000000
          hintmask 1011111110000000
          290 765 rmoveto
          -106 callgsubr
          -15 -215 rmoveto
          63 41 42 57 6 hvcurveto
          hintmask 1010101110000000
          58 6 -32 42 -63 hhcurveto
          -62 -40 -42 -58 -6 hvcurveto
          hintmask 1011111110000000
          -57 -6 31 -42 62 hhcurveto
          8 62 rmoveto
          -24 -12 13 23 3 hvcurveto
          hintmask 1010101110000000
          23 2 15 14 24 hhcurveto
          23 12 -14 -23 -2 hvcurveto
          hintmask 1011111110000000
          -23 -3 -15 -13 -23 hhcurveto
          hintmask 1010101000000000
          -128 -621 -105 callsubr
          hintmask 1100101000000000
          -64 callgsubr
          hintmask 1010101000000000
          -75 callsubr
          hintmask 1100101000000000
          -82 callsubr
          hintmask 1010101000000000
          3 callsubr
          endchar
        </CharString>
        <CharString name="arrowdown">
          18 -2 711 hstem
          14.84 504.16 vstem
          499 355 rmoveto
          -197 -178 52 500 rlineto
          21 3 -12 11 -31 hhcurveto
          -19 hlineto
          -31 -14 -11 -21 -3 hvcurveto
          -51 -494 -149 170 -9 12 -11 -4 -2 -17 rlinecurve
          -9 -79 -3 -25 2 -8 17 -18 rlinecurve
          186 -209 rlineto
          4 -5 5 -2 8 8 5 2 6 hflex1
          230 210 18 17 5 11 3 23 rlinecurve
          9 80 2 14 -13 3 -9 -8 rlinecurve
          endchar
        </CharString>
        <CharString name="arrowleft">
          89 204 107 216 -20 hstem
          4 586 vstem
          562 311 rmoveto
          -373 hlineto
          166 179 rlineto
          24 23 -3 13 -32 hhcurveto
          -65 hlineto
          -24 -15 -7 -15 -15 hvcurveto
          -211 -225 -6 -5 -2 -5 -1 -8 rlinecurve
          -1 -8 1 -4 5 -6 164 -223 rcurveline
          -15 12 13 -7 24 hhcurveto
          57 hlineto
          29 8 12 26 -19 hvcurveto
          -125 167 rlineto
          379 hlineto
          21 13 13 31 3 hvcurveto
          2 19 rlineto
          31 3 -10 13 -21 hhcurveto
          endchar
        </CharString>
        <CharString name="arrowright">
          89 215 107 205 -20 hstem
          4 586 vstem
          585 282 rmoveto
          -164 223 rlineto
          15 -12 -13 7 -24 hhcurveto
          -57 hlineto
          -29 -8 -12 -26 19 hvcurveto
          125 -167 rlineto
          -379 hlineto
          -21 -13 -13 -31 -3 hvcurveto
          -2 -19 rlineto
          -31 -3 10 -13 21 hhcurveto
          374 hlineto
          -166 -179 rlineto
          -24 -23 3 -13 32 hhcurveto
          64 hlineto
          24 15 7 15 15 hvcurveto
          211 225 6 5 2 5 1 8 rlinecurve
          1 8 -1 4 -5 6 rrcurveto
          endchar
        </CharString>
        <CharString name="arrowup">
          -6 151 callgsubr
          15 504.15 vstem
          502 493 rmoveto
          -186 209 rlineto
          -4 5 -5 2 -8 -8 -5 -2 -6 hflex1
          -230 -210 -18 -17 -5 -11 -3 -23 rlinecurve
          -9 -80 -2 -14 13 -3 9 8 rlinecurve
          197 178 -52 -500 rlineto
          -21 -3 12 -11 31 hhcurveto
          19 hlineto
          31 14 -68 callgsubr
          51 494 149 -170 9 -12 11 4 2 17 rlinecurve
          9 79 3 25 -2 8 -17 18 rlinecurve
          endchar
        </CharString>
        <CharString name="asciicircum">
          -151 318 368 hstem
          27 323 vstem
          348 348 rmoveto
          -74 308 rlineto
          21 -4 -11 9 -18 hhcurveto
          -31 hlineto
          -18 -13 -9 -21 -10 hvcurveto
          -138 -308 rlineto
          -3 -6 -1 -5 -4 vvcurveto
          -9 -1 7 -6 20 hhcurveto
          26 hlineto
          25 17 9 21 8 hvcurveto
          85 213 35 -213 rlineto
          -21 3 18 -9 25 hhcurveto
          25 hlineto
          21 8 6 9 1 hvcurveto
          4 -1 5 -1 6 vhcurveto
          endchar
        </CharString>
        <CharString name="asciitilde">
          -74 218 82 -52 82 hstemhm
          37 364 hintmask 10100000
          291 218 rmoveto
          11 callgsubr
          hintmask 01100000
          6 callsubr
          hintmask 10100000
          -8 27 29 -8 22 hhcurveto
          endchar
        </CharString>
        <CharString name="asterisk">
          -212 708 -20 hstem
          157 60 vstem
          95 412 rmoveto
          7 1 9 4 9 12 52 72 rcurveline
          38 -72 5 -11 8 -5 8 -1 rlinecurve
          13 21 14 12 3 hvcurveto
          7 -1 7 -6 10 vhcurveto
          -40 78 67 24 14 6 9 6 1 11 rlinecurve
          18 2 -9 19 -18 hhcurveto
          -4 -4 0 -3 -8 hvcurveto
          -58 -21 8 78 rlineto
          21 2 -8 9 -21 hhcurveto
          -21 -10 -9 -55 callgsubr
          -8 -78 -55 21 rlineto
          3 -7 -5 0 -4 hhcurveto
          -21 -9 -23 -14 -2 hvcurveto
          -1 -11 7 -6 14 -6 60 -24 rcurveline
          -55 -78 -8 -10 -4 -7 1 -7 rlinecurve
          -12 -2 19 -14 14 hhcurveto
          endchar
        </CharString>
        <CharString name="at">
          281 -123 54 127 83 -83 101 251 98 146 54 hstemhm
          55 64 90 125 77 121 131 64 hintmask 1101111110000000
          441 708 rmoveto
          -217 -169 -204 -265 -214 111 -148 162 43 98 11 39 23 -5 10 -9 hvcurveto
          -18 -32 -29 -71 hhcurveto
          -130 -85 124 182 236 141 181 179 134 90 -106 -168 -127 -49 -112 -54 -19 -9 13 20 hvcurveto
          26 26 269 10 vvcurveto
          13 -12 11 -35 vhcurveto
          -12 hlineto
          -35 -7 -10 -27 -8 hvcurveto
          17 -15 -30 25 -39 hhcurveto
          -92 -64 -108 -161 hvcurveto
          hintmask 1011111110000000
          -118 45 -63 66 43 34 26 34 18 vhcurveto
          hintmask 1101111110000000
          -35 13 34 -25 51 hhcurveto
          122 92 145 180 196 -114 129 -172 hvcurveto
          hintmask 1011111110000000
          -30 -518 rmoveto
          -16 -11 -13 -15 -17 hhcurveto
          -24 -12 19 69 107 23 56 38 14 11 -8 -10 9 hvcurveto
          -10 -59 -6 -91 -2 -52 rrcurveto
          endchar
        </CharString>
        <CharString name="atilde">
          -38 callgsubr
          77 83 -54 83 -42 callsubr
          hintmask 10101100
          140 44 callgsubr
          hintmask 10110100
          -97 callsubr
          hintmask 10101100
          -77 callgsubr
          26 -592 -105 callsubr
          hintmask 11001100
          -64 callgsubr
          hintmask 10101100
          -75 callsubr
          hintmask 11001100
          -82 callsubr
          hintmask 10101100
          3 callsubr
          endchar
        </CharString>
        <CharString name="b">
          124 callsubr
          149 callsubr
          hstemhm
          298.41 149.45 hintmask 10111000
          264 -8 rmoveto
          90 72 96 172 18 hvcurveto
          176 19 -51 95 -105 hhcurveto
          -39 -29 -15 -15 -19 hvcurveto
          24 221 -55 callsubr
          -73 -692 55 callsubr
          12 hlineto
          30 19 4 22 8 hvcurveto
          12 38 rlineto
          -40 17 39 -30 47 hhcurveto
          -36 121 rmoveto
          -21 -14 15 19 -10 hvcurveto
          hintmask 11011000
          27 252 rlineto
          8 11 14 7 18 hhcurveto
          38 16 -33 -120 -13 hvcurveto
          hintmask 10111000
          -110 -11 -20 -38 -35 hhcurveto
          endchar
        </CharString>
        <CharString name="backslash">
          -222 151 callgsubr
          52.75 214.25 vstem
          188 -22 rmoveto
          39 hlineto
          24 14 9 14 2 hvcurveto
          4 -1 4 -1 26 vhcurveto
          -92 636 rlineto
          21 -3 -15 10 -26 hhcurveto
          -36 hlineto
          -25 -13 -9 -14 -2 hvcurveto
          -1 -4 1 -3 1 -20 90 -643 rcurveline
          -21 3 16 -10 25 hhcurveto
          endchar
        </CharString>
        <CharString name="bar">
          -311 -138 906 hstem
          3 204 vstem
          160 768 rmoveto
          -15 hlineto
          -35 -16 -9 -55 callgsubr
          -89 -846 rlineto
          -21 -2 14 -9 35 hhcurveto
          15 hlineto
          35 16 9 21 2 hvcurveto
          89 846 rlineto
          21 2 -14 9 -35 hhcurveto
          endchar
        </CharString>
        <CharString name="baraccent">
          -194 270 115 callsubr
          270 -86 callgsubr
          endchar
        </CharString>
        <CharString name="baraccentlong">
          6 270 95 hstem
          -82 679 vstem
          571 365 rmoveto
          -616 78 callsubr
          616 78 callgsubr
          endchar
        </CharString>
        <CharString name="baraccentmedium">
          -94 270 95 hstem
          -2 419 vstem
          391 365 rmoveto
          -356 78 callsubr
          356 78 callgsubr
          endchar
        </CharString>
        <CharString name="braceleft">
          -262 -138 94 718 94 hstemhm
          43 117 -97 116 hintmask 00000000
          hintmask 11100000
          130 -138 rmoveto
          39 hlineto
          21 10 12 28 3 hvcurveto
          2 14 3 27 -8 12 -19 1 rlinecurve
          -1 hlineto
          -17 -6 12 24 3 hvcurveto
          hintmask 11010000
          19 187 7 66 -15 48 -34 22 rlinecurve
          39 22 25 48 7 66 20 187 rcurveline
          26 2 9 10 21 hhcurveto
          -2 hlineto
          18 1 10 13 3 26 1 14 rcurveline
          28 3 -8 12 -21 hhcurveto
          -39 hlineto
          -58 -46 -48 -68 -7 hvcurveto
          -19 -185 -6 -55 -13 -28 -27 -13 rlinecurve
          -21 -11 -11 -13 -3 -26 -1 -12 rcurveline
          -3 -26 9 -13 18 -11 24 -13 7 -28 -5 -55 rrcurveto
          hintmask 11100000
          -20 -185 rlineto
          -68 -7 36 -48 58 hhcurveto
          endchar
        </CharString>
        <CharString name="braceright">
          -262 -138 94 718 94 hstemhm
          81 114.87 -94.87 116 hintmask 11100000
          -4 -138 rmoveto
          39 hlineto
          58 46 48 68 7 hvcurveto
          20 185 5 55 12 28 29 13 rlinecurve
          20 11 11 13 3 26 1 12 rcurveline
          3 26 -9 13 -17 11 -26 13 -6 28 6 55 rrcurveto
          hintmask 11010000
          19 185 rlineto
          68 7 -36 48 -58 hhcurveto
          -39 hlineto
          -21 -10 -12 89 callgsubr
          -3 -26 6 -13 18 -1 rlinecurve
          -1 hlineto
          21 6 -10 -26 -2 hvcurveto
          hintmask 11100000
          -20 -187 -7 -66 15 -48 35 -22 rlinecurve
          -40 -22 -25 -48 -7 -66 -19 -187 rcurveline
          -24 -3 -8 -12 -17 hhcurveto
          -1 hlineto
          -19 -1 -10 -12 -3 -27 -2 -14 rcurveline
          -28 -3 8 -12 21 hhcurveto
          endchar
        </CharString>
        <CharString name="bracketleft">
          -272 -138 95 716 95 hstem
          -5 259.31 vstem
          28 -138 rmoveto
          106 hlineto
          21 9 12 28 3 75 callgsubr
          28 3 -7 12 -21 hhcurveto
          -30 hlineto
          75 716 rlineto
          30 hlineto
          21 10 12 28 2 75 callgsubr
          28 3 -7 12 -21 hhcurveto
          -106 hlineto
          -26 -12 -12 -28 -3 hvcurveto
          -87 -826 45 callsubr
          endchar
        </CharString>
        <CharString name="bracketright">
          -272 -138 95 716 95 hstem
          -5.18 259.18 vstem
          20 -138 rmoveto
          106 hlineto
          26 12 12 28 3 hvcurveto
          87 826 rlineto
          28 3 -10 12 -26 hhcurveto
          -106 hlineto
          -20 -10 -12 -28 -3 hvcurveto
          -2 -15 rlineto
          -28 -2 7 -12 20 hhcurveto
          31 hlineto
          -75 -716 rlineto
          -31 hlineto
          -20 -10 -12 -28 -3 hvcurveto
          -2 -15 rlineto
          -28 -3 8 -12 20 hhcurveto
          endchar
        </CharString>
        <CharString name="breve">
          -255 575 91 hstem
          39.94 261.22 vstem
          159 -76 callgsubr
          endchar
        </CharString>
        <CharString name="brokenbar">
          -311 -140 910 hstem
          4 204 vstem
          161 770 rmoveto
          -15 hlineto
          -35 -16 -74 callsubr
          -12 -110 -23 -213 -8 vvcurveto
          -18 15 -9 32 vhcurveto
          15 hlineto
          34 18 140 callgsubr
          11 109 23 207 10 vvcurveto
          20 -10 12 -37 vhcurveto
          -54 -520 rmoveto
          -15 hlineto
          -35 -17 -74 callsubr
          -11 -109 -23 -206 -11 vvcurveto
          -21 10 -11 37 vhcurveto
          15 hlineto
          35 16 140 callgsubr
          11 109 23 205 12 vvcurveto
          21 -10 11 -36 vhcurveto
          endchar
        </CharString>
        <CharString name="bullet">
          -213 194 265 hstem
          33.97 243.71 vstem
          142 194 rmoveto
          66 59 42 90 10 hvcurveto
          90 9 -50 43 -66 hhcurveto
          -67 -59 -43 -90 -9 hvcurveto
          -90 -10 50 -42 67 hhcurveto
          endchar
        </CharString>
        <CharString name="c">
          110 callgsubr
          94 callgsubr
          218 -8 -79 callsubr
        </CharString>
        <CharString name="cacute">
          80 callsubr
          226 575 rmoveto
          -106 callgsubr
          -8 -583 -79 callsubr
        </CharString>
        <CharString name="cacute.loclPLK">
          80 callsubr
          236 575 -72 callsubr
          -18 -583 -79 callsubr
        </CharString>
        <CharString name="caron">
          -255 572 146 hstem
          48 249 vstem
          155 572 -103 callgsubr
          endchar
        </CharString>
        <CharString name="caron.alt">
          -255 700 -20 hstem
          64 123 vstem
          109 511 rmoveto
          7 callsubr
          -16 27 -6 18 vhcurveto
          endchar
        </CharString>
        <CharString name="ccaron">
          81 callgsubr
          257 572 -103 callgsubr
          -39 -580 -79 callsubr
        </CharString>
        <CharString name="ccedilla">
          -103 -212 73 133 115 65 callgsubr
          hstemhm
          30.79 151.33 22.88 93 hintmask 10110000
          278 531 rmoveto
          -148 -78 -94 -177 -18 hvcurveto
          -17 -165 51 -86 113 -15 rrcurveto
          hintmask 11111000
          -16 -47 -7 -18 -8 -60 callsubr
          12 42 55 7 71 25 3 35 rlinecurve
          22 2 -16 54 -22 hhcurveto
          -4 -6 -3 -4 -9 hvcurveto
          hintmask 11110000
          -7 -16 -25 -14 -32 hhcurveto
          -51 -23 40 113 12 hvcurveto
          112 12 32 40 53 hhcurveto
          29 20 -12 -8 14 hvcurveto
          -5 7 6 -3 5 hhcurveto
          20 31 55 21 2 hvcurveto
          hintmask 10110000
          37 4 -69 32 -73 hhcurveto
          endchar
        </CharString>
        <CharString name="ccircumflex">
          81 callgsubr
          156 572 -107 callgsubr
          62 -580 -79 callsubr
        </CharString>
        <CharString name="cdotaccent">
          110 callgsubr
          47 124 hstemhm
          48 callsubr
          16.87999 112 callgsubr
          hintmask 11111000
          262 -80 callsubr
          hintmask 11110000
          -44 -586 -79 callsubr
        </CharString>
        <CharString name="cedilla">
          -255 -212 73 91 58 hstem
          132 93 vstem
          161 -48 rmoveto
          17 58 rlineto
          -64 hlineto
          -21 -59 -8 -21 -9 -60 callsubr
          endchar
        </CharString>
        <CharString name="cent">
          -71 529 -20 21 -20 hstemhm
          30.7 151.3 8 59.5 4.5 59 hintmask 00000000
          hintmask 10101000
          309 529 rmoveto
          hintmask 01101000
          4 42 rlineto
          14 -4 6 -14 vhcurveto
          -17 hlineto
          -15 -5 -6 -14 -2 hvcurveto
          -4 -41 -131 -11 -70 -93 -17 -166 rlinecurve
          -18 -172 56 -86 123 -9 rrcurveto
          hintmask 10110000
          -5 -48 rlineto
          -14 3 -6 15 vhcurveto
          17 hlineto
          13 7 6 14 2 hvcurveto
          5 50 54 8 66 25 3 33 rlinecurve
          22 2 -16 54 -22 hhcurveto
          -4 -6 -3 -4 -9 hvcurveto
          -13 -6 -19 -10 -24 -4 32 303 rcurveline
          22 -3 15 -9 12 -7 rrcurveto
          -5 7 6 -3 5 hhcurveto
          20 31 55 21 2 hvcurveto
          hintmask 10101000
          3 32 -50 28 -60 7 rrcurveto
          hintmask 01101000
          -124 -267 rmoveto
          8 77 18 43 27 19 -29 -280 rcurveline
          -24 19 -8 43 8 79 rrcurveto
          endchar
        </CharString>
        <CharString name="circumflex">
          -255 572 146 hstem
          35 249 vstem
          55 572 -107 callgsubr
          endchar
        </CharString>
        <CharString name="colon">
          -323 -2 156 215 156 hstemhm
          -5.23 197.45 -192.72 149 -110 149 hintmask 11100000
          88 369 rmoveto
          hintmask 11001000
          -32 callsubr
          hintmask 11100000
          -13 callsubr
          -39 -371 rmoveto
          hintmask 11010000
          -32 callsubr
          hintmask 11100000
          -13 callsubr
          endchar
        </CharString>
        <CharString name="comma">
          -323 -125 279 hstem
          -50 194.3 vstem
          -9 -125 34 callsubr
        </CharString>
        <CharString name="commaaccentinvert">
          -158 575 189 hstem
          97 123 vstem
          186 764 rmoveto
          -29 -60 -78 -67 -25 12 -19 33 hvcurveto
          65 callsubr
          vhcurveto
          endchar
        </CharString>
        <CharString name="copyright">
          81 -8 64 96 73 253 74 92 64 hstem
          20 66 85 87 267 19 callgsubr
          8 96 rmoveto
          23 77 13 34 9 -13 40 -20 hvcurveto
          -6 -22 -23 -39 hhcurveto
          -38 -18 44 84 83 18 42 38 hvcurveto
          41 14 -18 6 hhcurveto
          14 22 37 16 23 -59 16 -36 -97 -48 -66 -133 -138 46 -63 97 hvcurveto
          endchar
        </CharString>
        <CharString name="currency">
          -49 78 114 194 114 hstem
          53 114 125 115 vstem
          79 72 rmoveto
          9 9 4 8 8 hvcurveto
          21 19 rlineto
          -16 24 28 -9 30 hhcurveto
          31 30 9 18 28 hvcurveto
          17 -21 rlineto
          8 -8 8 -4 8 9 9 4 8 hflex1
          33 30 9 8 5 9 1 8 rlinecurve
          1 9 -3 8 -7 8 -26 30 rcurveline
          15 29 11 32 4 34 4 36 -5 33 -11 30 38 34 rcurveline
          9 8 5 9 8 vvcurveto
          1 9 -3 8 -7 8 -27 30 rcurveline
          142 callgsubr
          -29 -27 rlineto
          16 -23 -27 9 -30 hhcurveto
          -29 -28 -9 -15 -25 hvcurveto
          -24 26 rlineto
          142 callgsubr
          -33 -30 -9 -8 -5 -8 -1 -9 rlinecurve
          -8 3 -9 7 -8 vhcurveto
          29 -32 -19 -30 -11 -35 -4 -36 rlinecurve
          -4 -35 5 -33 10 -30 -30 -27 rcurveline
          -9 -8 -5 -8 -1 -9 -1 -8 3 -9 7 -8 27 -30 rcurveline
          -8 8 8 -4 8 hhcurveto
          141 120 rmoveto
          -35 -25 32 65 7 hvcurveto
          65 7 31 32 35 hhcurveto
          35 24 -32 -65 -7 hvcurveto
          -65 -7 -30 -32 -35 hhcurveto
          endchar
        </CharString>
        <CharString name="d">
          -30 124 callsubr
          223 -20 hstem
          21 callsubr
          vstem
          154 -8 rmoveto
          -68 callsubr
          86 callsubr
          63 121 59 callgsubr
        </CharString>
        <CharString name="dagger">
          -83 410 107 185 -20 hstem
          55.25 359.21 128 callsubr
          55 518 20 callsubr
          -55 -518 rlineto
          -21 -2 11 -11 31 hhcurveto
          endchar
        </CharString>
        <CharString name="daggerdbl">
          -83 42 107 261 107 185 -20 hstem
          16.66 397.8 128 callsubr
          16 150 rlineto
          95 hlineto
          21 10 74 callgsubr
          1 7 rlineto
          35 4 -7 15 -21 hhcurveto
          -95 hlineto
          28 261 20 callsubr
          -28 -261 rlineto
          -96 72 callgsubr
          -1 -7 66 callgsubr
          20 hhcurveto
          96 hlineto
          -16 -150 rlineto
          -21 -2 11 -11 31 hhcurveto
          endchar
        </CharString>
        <CharString name="dcaron">
          -30 124 callsubr
          -20 20 169 -20 74 -20 hstemhm
          21 callsubr
          26 123 hintmask 10111101
          154 -8 rmoveto
          hintmask 10111111
          -68 callsubr
          hintmask 10111101
          86 callsubr
          374 519 rmoveto
          7 callsubr
          -16 27 -6 18 vhcurveto
          -311 -398 rmoveto
          -34 -12 42 106 11 hvcurveto
          hintmask 11011101
          112 12 23 41 39 hhcurveto
          18 13 -7 -7 9 hvcurveto
          -26 -247 rlineto
          hintmask 10111101
          -22 -13 -18 -18 -22 hhcurveto
          endchar
        </CharString>
        <CharString name="dcroat">
          -30 124 callsubr
          52 95 76 -20 hstemhm
          21 callsubr
          -129.5 145.5 hintmask 11111010
          486 678 rmoveto
          -13 hlineto
          2 15 2 15 1 14 rrcurveto
          21 2 -71 callgsubr
          -2 hvcurveto
          -5 -44 rlineto
          -30 hlineto
          -20 -10 -12 -28 -3 hvcurveto
          -2 -15 rlineto
          -28 -2 7 -12 20 hhcurveto
          30 hlineto
          -8 -81 rlineto
          16 -17 -25 13 -37 hhcurveto
          -105 -72 -95 -172 -18 hvcurveto
          86 callsubr
          hintmask 11111100
          53 43 35 44 22 hvcurveto
          -56 8 31 -23 48 -78 callsubr
          hintmask 11111010
          -91 callgsubr
          18 26 237 21 195 hvcurveto
          13 hlineto
          21 10 12 28 2 75 callgsubr
          28 3 -7 12 -21 hhcurveto
          -216 -525 rmoveto
          -22 -13 -18 -18 -22 hhcurveto
          -34 -12 42 106 11 hvcurveto
          112 12 23 41 39 hhcurveto
          18 13 -7 -7 9 hvcurveto
          endchar
        </CharString>
        <CharString name="degree">
          -235 443 62 141 62 hstem
          65 64 82 66 vstem
          157 443 rmoveto
          58 52 39 93 10 hvcurveto
          93 10 -44 40 -58 hhcurveto
          -58 -52 -40 -93 -10 hvcurveto
          -93 -10 44 -39 58 hhcurveto
          6 62 rmoveto
          -22 -17 21 49 5 hvcurveto
          49 5 21 22 22 hhcurveto
          22 17 -22 -49 -5 hvcurveto
          -49 -5 -21 -21 -22 hhcurveto
          endchar
        </CharString>
        <CharString name="dieresis">
          -255 578 124 hstem
          31 76 callsubr
          vstem
          82 578 -103 callsubr
          endchar
        </CharString>
        <CharString name="divide">
          -63 -2 135 39 107 39 135 hstemhm
          138.5 128 -94.5 128 hintmask 00000000
          hintmask 01101000
          223 318 rmoveto
          12 46 callgsubr
          8 71 -71 callsubr
          -12 -74 callgsubr
          -8 -71 17 callsubr
          -195 -146 rmoveto
          375 hlineto
          18 7 22 callgsubr
          -4 15 -18 hhcurveto
          -375 hlineto
          -18 -8 -4 callgsubr
          5 -15 18 hhcurveto
          hintmask 11010000
          161 -174 rmoveto
          12 hlineto
          41 41 callgsubr
          7 71 -71 callsubr
          -12 -74 callgsubr
          -7 -71 39 callgsubr
          endchar
        </CharString>
        <CharString name="dollar">
          -71 706 -20 21 -20 hstemhm
          45 136 -23 59.5 22.5 59 -20 136 hintmask 00000000
          hintmask 01010100
          176 -75 rmoveto
          17 hlineto
          12 8 6 14 2 hvcurveto
          5 50 rlineto
          120 16 75 79 120 vvcurveto
          100 -37 45 -114 57 vhcurveto
          18 164 17 -1 16 -4 26 -9 rlinecurve
          -3 9 12 -4 9 hhcurveto
          28 17 60 30 hvcurveto
          hintmask 01101000
          14 -9 12 -15 9 vhcurveto
          -24 15 -38 9 -35 3 rrcurveto
          hintmask 10101000
          1 13 3 22 3 vvcurveto
          14 -4 6 -14 vhcurveto
          -17 hlineto
          -14 -7 -6 -14 -1 hvcurveto
          -4 -39 rlineto
          -107 -12 -86 -76 -114 vvcurveto
          -133 83 -36 68 -34 vhcurveto
          -19 -178 -39 1 -24 12 -37 20 rlinecurve
          4 -7 -6 3 -6 hhcurveto
          -28 -24 -62 -35 1 hvcurveto
          hintmask 01010100
          -27 35 -20 31 -11 vhcurveto
          26 -9 30 -6 34 -1 rrcurveto
          -2 -16 -3 -26 -5 vvcurveto
          -14 3 -6 15 vhcurveto
          hintmask 01100100
          34 515 rmoveto
          -18 13 -11 17 23 vvcurveto
          23 3 36 39 16 vhcurveto
          12 -435 rmoveto
          14 138 rlineto
          18 -14 12 -17 -25 vvcurveto
          -47 -19 -24 -25 -11 vhcurveto
          endchar
        </CharString>
        <CharString name="dotaccent">
          -255 578 124 hstemhm
          101 112 callgsubr
          hintmask 11000000
          164 -80 callsubr
          endchar
        </CharString>
        <CharString name="dotbelowcomb">
          -511 50 callsubr
          hstemhm
          -110 112 callgsubr
          hintmask 11000000
          -47 -204 rmoveto
          -107 callsubr
          endchar
        </CharString>
        <CharString name="dotlessi">
          -257 -8 119 414 -20 hstemhm
          29 151 hintmask 00000000
          hintmask 11100000
          123 -8 -96 callsubr
          endchar
        </CharString>
        <CharString name="e">
          -8 callsubr
          hstem
          27 callsubr
          vstem
          441 386 -101 callsubr
          endchar
        </CharString>
        <CharString name="eacute">
          90 callsubr
          244 575 rmoveto
          -106 callgsubr
          197 -189 -101 callsubr
          endchar
        </CharString>
        <CharString name="ebreve">
          -8 callsubr
          44 91 hstem
          27 callsubr
          vstem
          278 -76 callgsubr
          163 -189 -101 callsubr
          endchar
        </CharString>
        <CharString name="ecaron">
          -8 callsubr
          41 146 hstem
          27 callsubr
          vstem
          222 591 rmoveto
          -17 9 17 -2 27 hhcurveto
          6 hlineto
          26 18 2 17 13 hvcurveto
          70 100 rlineto
          5 7 4 7 3 vvcurveto
          7 1 -7 3 -13 hhcurveto
          -28 hlineto
          -26 -19 -5 -13 -8 hvcurveto
          -31 -46 -21 45 rlineto
          14 -8 -15 5 -25 hhcurveto
          -27 hlineto
          -14 -7 -3 -7 -1 hvcurveto
          -3 2 -7 3 -7 vhcurveto
          268 -305 -101 callsubr
          endchar
        </CharString>
        <CharString name="ecircumflex">
          -8 callsubr
          41 146 hstem
          27 callsubr
          vstem
          174 572 -107 callgsubr
          267 -186 -101 callsubr
          endchar
        </CharString>
        <CharString name="edieresis">
          -8 callsubr
          47 124 hstemhm
          32 150 -34 114 45 134 -131 114 hintmask 00000000
          hintmask 11110101
          199 578 -103 callsubr
          hintmask 11111010
          80 -192 -101 callsubr
          endchar
        </CharString>
        <CharString name="edotaccent">
          -8 callsubr
          47 124 hstemhm
          32 150 35 137 -47 134 hintmask 00000000
          hintmask 11111100
          280 -80 callsubr
          hintmask 11111010
          161 -192 -101 callsubr
          endchar
        </CharString>
        <CharString name="egrave">
          90 callsubr
          304 575 -99 callsubr
          137 -189 -101 callsubr
          endchar
        </CharString>
        <CharString name="eight">
          -52 -8 117 482 117 hstemhm
          17 150 -102 147 64 151 -120 143 hintmask 11100100
          203 -8 rmoveto
          hintmask 11101000
          147 67 104 99 10 hvcurveto
          11 100 -38 51 -48 33 rrcurveto
          hintmask 11010100
          43 24 46 40 9 89 rrcurveto
          101 11 -60 75 -120 hhcurveto
          -127 -78 -78 -106 -11 hvcurveto
          -9 -77 30 -42 38 -33 rrcurveto
          hintmask 11100100
          -50 -27 -47 -53 -10 -93 rrcurveto
          -111 -11 51 -96 146 hhcurveto
          hintmask 11010100
          57 448 rmoveto
          -30 21 -22 25 4 43 rrcurveto
          42 5 26 20 25 hhcurveto
          25 18 -22 -42 -4 hvcurveto
          -4 -36 -16 -29 -27 -22 rrcurveto
          hintmask 11101000
          -46 -331 rmoveto
          -34 -20 28 66 7 hvcurveto
          5 50 16 29 26 23 38 -26 31 -29 -7 -61 rrcurveto
          -40 -4 -22 -40 -36 hhcurveto
          endchar
        </CharString>
        <CharString name="ellipsis">
          41 -2 156 hstemhm
          1.5 143 42 143 42 143 hintmask 00000000
          hintmask 11110000
          51 -2 rmoveto
          27 hlineto
          41 41 callgsubr
          9 92 119 callgsubr
          -41 hhcurveto
          -27 49 callsubr
          -21 -3 16 -11 41 hhcurveto
          185 hmoveto
          27 hlineto
          41 41 callgsubr
          9 92 119 callgsubr
          -41 hhcurveto
          -27 49 callsubr
          -21 -3 16 -11 41 hhcurveto
          185 hmoveto
          28 hlineto
          40 41 callgsubr
          9 92 119 callgsubr
          -40 hhcurveto
          -28 49 callsubr
          -21 -3 16 -11 41 hhcurveto
          endchar
        </CharString>
        <CharString name="emacron">
          -8 callsubr
          66 95 hstem
          27 callsubr
          vstem
          185 597 -86 callgsubr
          256 -211 -101 callsubr
          endchar
        </CharString>
        <CharString name="emdash">
          375 212 107 hstem
          -0.75 888.07 vstem
          24 212 rmoveto
          828 hlineto
          20 10 22 callgsubr
          -7 15 -20 hhcurveto
          -828 hlineto
          -20 -11 -4 callgsubr
          8 -15 20 hhcurveto
          endchar
        </CharString>
        <CharString name="endash">
          -68 212 107 hstem
          -0.75 445.07 vstem
          24 212 rmoveto
          385 hlineto
          20 10 22 callgsubr
          -7 15 -20 hhcurveto
          -385 hlineto
          -20 -11 -4 callgsubr
          8 -15 20 hhcurveto
          endchar
        </CharString>
        <CharString name="eng">
          112 callsubr
          504 113 -113 122 0 -20 hstemhm
          20 425.73 -387.73 150 83 153 hintmask 10011000
          246 -212 rmoveto
          hintmask 10010110
          76 64 53 109 11 hvcurveto
          47 442 rlineto
          91 10 -33 48 -74 hhcurveto
          -61 -48 -38 -38 -30 hvcurveto
          hintmask 11000100
          -75 callgsubr
          hintmask 10100110
          37 347 rlineto
          15 12 18 17 23 hhcurveto
          29 6 -18 -33 -3 hvcurveto
          -42 -410 rlineto
          -30 -3 -7 -13 -18 -11 -13 4 -6 hhcurveto
          -21 -15 -47 -23 -2 hvcurveto
          hintmask 10011000
          -39 -4 34 -12 63 hhcurveto
          endchar
        </CharString>
        <CharString name="eogonek">
          -57 -156 69 79 -7 callgsubr
          hstemhm
          32 150 103 67 -45 134 hintmask 00000000
          hintmask 11111100
          425 -83 rmoveto
          20 callgsubr
          20 4 25 11 25 hvcurveto
          8 6 7 6 4 8 rrcurveto
          9 16 4 22 20 vvcurveto
          26 -6 22 -14 vhcurveto
          -17 -34 -44 -67 hhcurveto
          -45 -32 19 81 -2 hvcurveto
          -4 20 23 -2 31 hhcurveto
          hintmask 11111010
          106 79 72 111 hvcurveto
          -1 callsubr
          -167 -76 -143 -176 hvcurveto
          -135 -2 61 -85 141 hhcurveto
          hintmask 11111100
          18 23 2 5 23 hvcurveto
          -8 -24 -3 -22 -15 -37 callgsubr
          hintmask 11111010
          -158 497 rmoveto
          25 15 -14 -33 -52 -34 -23 -54 hvcurveto
          -30 hlineto
          68 12 23 54 43 hhcurveto
          endchar
        </CharString>
        <CharString name="equal">
          -62 121 callsubr
          55 267 rmoveto
          342 hlineto
          17 7 22 callgsubr
          -4 15 -17 hhcurveto
          -342 hlineto
          -18 -8 -4 callgsubr
          5 -15 18 hhcurveto
          -19 -181 rmoveto
          342 hlineto
          17 7 22 callgsubr
          -4 15 -17 hhcurveto
          -342 107 callsubr
        </CharString>
        <CharString name="estimated">
          104 -7 55 307 50 252 50 hstem
          22 169 237 165 vstem
          312 707 rmoveto
          -159 -131 -125 -227 -232 135 -130 163 81 77 39 65 55 hvcurveto
          6 8 4 6 8 vvcurveto
          11 -15 16 -13 -8 -6 -6 -9 -8 vhcurveto
          -52 -38 -74 -31 -61 hhcurveto
          -48 -44 12 25 -37 hvcurveto
          270 402 vlineto
          227 -127 125 -154 vhcurveto
          -121 -85 rmoveto
          23 35 41 12 45 hhcurveto
          42 39 -12 -24 35 hvcurveto
          -216 -237 vlineto
          endchar
        </CharString>
        <CharString name="eth">
          -34 -8 117 300 117 55 61 -33 61 hstemhm
          31.3 148.1 118.2 148.48 hintmask 11011100
          419 670 rmoveto
          -3 -28 -4 -5 -38 hvcurveto
          hintmask 11101100
          -12 18 -11 15 -12 10 rrcurveto
          7 -11 -11 4 -15 hhcurveto
          -22 -2 -20 -3 -21 -2 rrcurveto
          -13 -2 -7 -4 -6 vvcurveto
          -1 -8 22 -26 11 -17 -43 -6 rcurveline
          -16 -2 -6 -5 -1 -9 rrcurveto
          -21 -2 17 -21 20 hhcurveto
          3 3 0 8 55 hvcurveto
          10 -22 8 -20 7 -22 rrcurveto
          1 -5 -6 0 -5 hhcurveto
          -135 -79 -93 -171 -18 hvcurveto
          -174 -18 70 -96 124 hhcurveto
          145 70 96 174 18 hvcurveto
          hintmask 11011100
          14 135 -34 132 -41 77 47 6 rcurveline
          14 2 8 5 1 9 rrcurveto
          20 2 -18 22 -17 hhcurveto
          -126 -408 rmoveto
          -31 callsubr
          -40 -11 40 113 12 hvcurveto
          109 12 19 38 40 hhcurveto
          39 11 -38 -109 -12 hvcurveto
          endchar
        </CharString>
        <CharString name="exclam">
          -265 -2 156 548 -20 hstemhm
          11.77 249.23 -244.5 149 hintmask 11100000
          104 222 rmoveto
          8 hlineto
          43 6 11 21 5 hvcurveto
          32 140 32 140 31 140 rrcurveto
          18 2 -21 10 -36 hhcurveto
          -46 -74 callgsubr
          -44 -416 rlineto
          -21 -2 8 -11 43 hhcurveto
          -38 -224 rmoveto
          hintmask 11010000
          -32 callsubr
          hintmask 11100000
          -13 callsubr
          endchar
        </CharString>
        <CharString name="exclamdown">
          -265 369 156 hstemhm
          -12 250.22 123 callsubr
          134 369 rmoveto
          hintmask 10100000
          -32 callsubr
          hintmask 11000000
          -13 callsubr
          -91 -549 rmoveto
          46 46 callgsubr
          44 416 rlineto
          21 2 -7 11 -43 hhcurveto
          -9 hlineto
          -43 -5 -11 -21 -5 hvcurveto
          -33 -140 -61 -259 -2 -21 rrcurveto
          -18 -2 21 -10 36 hhcurveto
          endchar
        </CharString>
        <CharString name="f">
          -225 133 callsubr
          0 -20 hstemhm
          37 310 -254 148 hintmask 10110000
          94 -2 rmoveto
          28 hlineto
          hintmask 11001000
          155 callgsubr
          33 hlineto
          21 14 callsubr
          4 -8 15 -21 hhcurveto
          -33 -60 callgsubr
          hintmask 10110000
          137 callgsubr
        </CharString>
        <CharString name="f_f">
          61 133 callsubr
          hstemhm
          37 596 -540 148 138 148 hintmask 11100000
          541 760 rmoveto
          hintmask 11011000
          -91 -55 -51 -111 -12 hvcurveto
          -8 -75 rlineto
          -138 -60 callgsubr
          -21 -2 17 -11 42 hhcurveto
          28 hlineto
          155 callgsubr
          138 hlineto
          -40 -376 55 callsubr
          28 hlineto
          155 callgsubr
          33 hlineto
          21 14 callsubr
          4 -8 15 -21 hhcurveto
          -33 hlineto
          8 77 rlineto
          30 3 11 13 22 8 12 -5 7 hhcurveto
          20 18 64 8 1 hvcurveto
          hintmask 11100000
          40 4 -66 10 -30 hhcurveto
          endchar
        </CharString>
        <CharString name="f_t">
          73 148 callsubr
          120 117 0 -20 hstemhm
          93 148 89 149 -102 153 hintmask 00000000
          hintmask 11101010
          527 406 rmoveto
          -49 callsubr
          -12 hlineto
          -1 hlineto
          -122 -60 callgsubr
          -21 -2 17 -11 42 hhcurveto
          28 hlineto
          155 callgsubr
          hintmask 11010100
          135 hlineto
          -15 -140 -15 -131 -22 80 callgsubr
          7 9 88 20 179 hvcurveto
          endchar
        </CharString>
        <CharString name="fi">
          29 -8 119 295 117 55 124 -59 117 0 -20 hstemhm
          93 148 74 151 -90 112 callgsubr
          hintmask 11010110
          493 92 callsubr
          29 14 106 23 226 hvcurveto
          16 -17 13 -40 vhcurveto
          -209 -60 callgsubr
          -21 -2 17 -11 42 hhcurveto
          28 hlineto
          155 callgsubr
          121 hlineto
          -9 -83 -11 -109 -8 -72 rrcurveto
          -42 callgsubr
          hintmask 11101001
          -44 589 rmoveto
          -58 callsubr
        </CharString>
        <CharString name="five">
          -52 -8 117 214 117 143 117 hstem
          270 152.2 vstem
          168 -8 rmoveto
          108 126 55 169 18 hvcurveto
          172 18 -82 52 -134 hhcurveto
          -15 hlineto
          25 143 rlineto
          174 hlineto
          21 10 12 28 3 hvcurveto
          3 27 71 callgsubr
          -267 hlineto
          -29 -12 -12 -28 -5 hvcurveto
          -50 -297 rlineto
          -28 -3 6 -12 29 hhcurveto
          94 hlineto
          74 22 -41 -70 -7 hvcurveto
          -65 -7 -37 -38 -51 -67 -38 34 -9 hhcurveto
          -23 -38 -61 -18 -2 hvcurveto
          -40 -4 71 -32 103 hhcurveto
          endchar
        </CharString>
        <CharString name="fl">
          45 148 callsubr
          120 99 callgsubr
          26 -20 hstemhm
          37 499 -443 148 85 148 hintmask 11001100
          94 -2 rmoveto
          28 hlineto
          hintmask 11100010
          155 callgsubr
          33 hlineto
          21 14 callsubr
          4 -8 15 -21 hhcurveto
          -33 -60 callgsubr
          hintmask 11001100
          22 callsubr
          hintmask 11010001
          345 -6 -64 callsubr
          endchar
        </CharString>
        <CharString name="florin">
          -182 133 callsubr
          hstem
          -13 369 vstem
          262 760 rmoveto
          -94 -63 -60 -102 -12 hvcurveto
          -9 -75 rlineto
          -21 hlineto
          -31 -9 -39 -49 -20 8 -9 16 hvcurveto
          20 hlineto
          -80 -581 rlineto
          -16 17 -15 40 vhcurveto
          28 hlineto
          39 21 -68 callgsubr
          80 580 rlineto
          30 hlineto
          37 25 60 37 14 -2 6 -14 hvcurveto
          -60 hlineto
          11 77 rlineto
          29 4 13 14 25 20 5 -5 8 hhcurveto
          19 20 65 13 36 -47 8 -47 hvcurveto
          endchar
        </CharString>
        <CharString name="four">
          -52 142 117 443 -20 hstem
          225.5 148 vstem
          276 116 callgsubr
          11 112 rlineto
          27 hlineto
          21 11 87 callsubr
          17 rlineto
          35 4 -7 15 -21 hhcurveto
          -27 hlineto
          43 411 47 callgsubr
          -51 hlineto
          -29 -23 -1 -23 -13 hvcurveto
          -261 -432 -1 -2 -1 -4 -1 -5 rlinecurve
          -27 -3 13 -66 17 hhcurveto
          206 hlineto
          -11 -112 101 callsubr
          -137 261 rmoveto
          134 235 4 -1 -12 -53 -8 -42 -4 -42 rlinecurve
          -10 -97 rlineto
          endchar
        </CharString>
        <CharString name="fraction">
          -247 700 -20 hstem
          -124 518 vstem
          374 700 rmoveto
          -17 hlineto
          -21 -15 -9 -17 -11 hvcurveto
          -427 -648 rlineto
          -5 -7 -2 -5 -5 vvcurveto
          -7 7 -2 13 vhcurveto
          17 hlineto
          20 14 7 19 13 hvcurveto
          427 648 rlineto
          5 7 2 4 5 vvcurveto
          6 -7 4 -13 vhcurveto
          endchar
        </CharString>
        <CharString name="g">
          31 callgsubr
          55 callgsubr
          hintmask 11011000
          393 525 124 callgsubr
          hintmask 11101000
          -63 callsubr
          hintmask 11011000
          44 418 rlineto
          16 -19 9 -40 vhcurveto
          -108 -200 rmoveto
          -16 -159 rlineto
          -23 -14 -15 -18 -21 hhcurveto
          -46 -1 63 79 8 hvcurveto
          hintmask 11101000
          114 12 26 33 38 hhcurveto
          17 13 -9 -11 10 hvcurveto
          hintmask 11011000
          -3 -13 -4 -26 -4 -30 rrcurveto
          endchar
        </CharString>
        <CharString name="g.ss01">
          45 callgsubr
          75 callsubr
          hintmask 00000000
          hintmask 11101010
          187 -212 rmoveto
          -8 callgsubr
          hintmask 11100101
          -41 callgsubr
          hintmask 11010101
          16 callgsubr
          hintmask 11101001
          9 callsubr
          hintmask 11101010
          -89 -10 81 -44 107 hhcurveto
          hintmask 11010101
          -13 callgsubr
          hintmask 11101010
          -18 callgsubr
        </CharString>
        <CharString name="gbreve">
          31 callgsubr
          70 91 55 callgsubr
          hintmask 11011100
          268 -76 callgsubr
          125 -50 -29 callsubr
        </CharString>
        <CharString name="gbreve.ss01">
          45 callgsubr
          44 91 75 callsubr
          hintmask 1110101010000000
          272 -76 callgsubr
          hintmask 1110110100000000
          -85 -787 -54 callgsubr
        </CharString>
        <CharString name="gcircumflex">
          31 callgsubr
          67 146 55 callgsubr
          hintmask 11011100
          164 572 -107 callgsubr
          229 -47 -29 callsubr
        </CharString>
        <CharString name="gcircumflex.ss01">
          45 callgsubr
          41 146 75 callsubr
          hintmask 1110101010000000
          168 572 -107 callgsubr
          hintmask 1110110100000000
          19 -784 -54 callgsubr
        </CharString>
        <CharString name="gcommaaccent">
          31 callgsubr
          70 189 55 callgsubr
          37.76 123 hintmask 11011110
          259 575 rmoveto
          65 callsubr
          -29 -60 -78 -67 -25 12 -19 33 vhcurveto
          134 -50 -29 callgsubr
        </CharString>
        <CharString name="gcommaaccent.ss01">
          45 callgsubr
          44 189 hstemhm
          9 131 -74 125 27 123 -51 124 -111 125 hintmask 1110110100000000
          307 764 rmoveto
          -29 -60 -78 -67 -25 12 -19 33 hvcurveto
          65 callsubr
          vhcurveto
          -120 -976 rmoveto
          hintmask 1110110010000000
          -8 callgsubr
          hintmask 1110110001000000
          -41 callgsubr
          hintmask 1101101001000000
          16 callgsubr
          hintmask 1110110100000000
          9 callsubr
          -89 -10 81 -44 107 hhcurveto
          hintmask 1101101001000000
          -13 callgsubr
          hintmask 1110110010000000
          -18 callgsubr
        </CharString>
        <CharString name="gdotaccent">
          31 callgsubr
          73 124 55 callgsubr
          30.76 137 hintmask 11011110
          270 -80 callsubr
          123 -53 -29 callgsubr
        </CharString>
        <CharString name="gdotaccent.ss01">
          45 callgsubr
          47 124 hstemhm
          9 131 -74 125 20 137 -58 124 -111 125 hintmask 0000000000000000
          hintmask 1110110100000000
          274 -80 callsubr
          -87 -790 rmoveto
          hintmask 1110101010000000
          -8 callgsubr
          hintmask 1110101001000000
          -41 callgsubr
          hintmask 1101101001000000
          16 callgsubr
          hintmask 1110110001000000
          60 callgsubr
          hintmask 1101101001000000
          -13 callgsubr
          hintmask 1110110010000000
          -18 callgsubr
        </CharString>
        <CharString name="germandbls">
          -31 0 117 183 117 166 125 hstemhm
          308 148.06 -135.06 153 hintmask 11101000
          79 116 callgsubr
          51 489 rlineto
          39 4 23 25 34 hhcurveto
          35 9 -28 -54 -6 hvcurveto
          -55 -6 -19 -29 -26 hhcurveto
          -3 hlineto
          hintmask 11110000
          -18 -10 -17 -33 -4 hvcurveto
          31 callsubr
          21 hhcurveto
          2 hlineto
          36 19 -25 -70 -7 hvcurveto
          -66 -7 -22 -22 -32 hhcurveto
          -8 hlineto
          -21 -11 -15 -35 -3 117 callgsubr
          17 hlineto
          117 79 70 135 14 hvcurveto
          10 92 -26 45 -56 30 rrcurveto
          4 vlineto
          hintmask 11101000
          52 25 32 52 8 71 rrcurveto
          127 13 -80 57 -111 hhcurveto
          -127 -83 -80 -127 -14 hvcurveto
          -49 -471 101 callsubr
          endchar
        </CharString>
        <CharString name="grave">
          -255 127 callgsubr
          33 189 vstem
          193 575 -99 callsubr
          endchar
        </CharString>
        <CharString name="gravecomb">
          -511 127 callgsubr
          -143 189 vstem
          17 575 -99 callsubr
          endchar
        </CharString>
        <CharString name="greater">
          -63 12.49 463.92 hstem
          3.77 406.23 vstem
          5 52 rmoveto
          -3 -32 0 -18 33 17 346 174 rcurveline
          19 10 8 11 1 22 1 19 rcurveline
          1 21 -2 11 -17 10 -309 173 rcurveline
          -24 13 -7 -4 -4 -41 -2 -16 rcurveline
          -4 -42 1 -10 21 -11 201 -107 rcurveline
          -227 -117 -25 -13 -2 -15 -4 -39 rlinecurve
          endchar
        </CharString>
        <CharString name="greaterequal">
          -58 0 107 hstem
          6.74 419.26 vstem
          21 171 rmoveto
          -5 -42 4 -3 34 15 339 153 rcurveline
          19 9 10 11 2 21 2 19 rcurveline
          2 21 -7 11 -17 9 -312 154 rcurveline
          -29 14 0 -9 -3 -37 -1 -11 rcurveline
          -3 -31 3 -15 17 -10 192 -106 rcurveline
          -215 -106 -23 -12 -4 -8 -2 -21 rlinecurve
          3 -197 43 callsubr
        </CharString>
        <CharString name="guillemotleft">
          -40 46 423 hstem
          9.92 445.08 vstem
          110 249 rmoveto
          114 callsubr
          152 callsubr
          -26 -25 -10 -38 18 -25 82 callgsubr
          rrcurveto
          211 370 rmoveto
          152 callsubr
          -23 -22 -15 -35 20 -31 82 callgsubr
          -85 150 rcurveline
          114 callsubr
          endchar
        </CharString>
        <CharString name="guillemotright">
          -40 46 423 hstem
          30 445.06 vstem
          267 301 rmoveto
          24 callsubr
          23 22 15 35 -20 31 rlinecurve
          199 hmoveto
          24 callsubr
          26 25 10 38 -18 25 rlinecurve
          endchar
        </CharString>
        <CharString name="guilsinglleft">
          -264 47 422 hstem
          22.57 218.43 vstem
          140 47 rmoveto
          20 44 22 21 2 hvcurveto
          1 8 -2 6 -4 9 -75 145 rcurveline
          106 145 6 9 2 6 1 7 rlinecurve
          23 3 -40 21 -19 hhcurveto
          -9 -9 -3 -11 -8 hvcurveto
          -118 -153 -10 -15 -6 -11 -2 -18 rlinecurve
          -2 -18 4 -11 7 -15 86 -153 rcurveline
          -11 6 7 -3 9 hhcurveto
          endchar
        </CharString>
        <CharString name="guilsinglright">
          -264 47 422 hstem
          5 219.4 vstem
          61 47 rmoveto
          9 9 3 11 8 hvcurveto
          118 153 11 15 6 11 2 18 rlinecurve
          2 18 -4 11 -8 15 -86 153 rcurveline
          11 -6 -7 3 -9 hhcurveto
          -19 -44 -21 -23 -3 hvcurveto
          -1 -7 2 -6 4 -9 76 -145 rcurveline
          -107 -145 -6 -9 -2 -6 -1 -8 rlinecurve
          -21 -2 38 -22 20 hhcurveto
          endchar
        </CharString>
        <CharString name="h">
          -26 -8 119 298 122 149 callsubr
          hstemhm
          267 108 callgsubr
          hintmask 10111000
          81 callsubr
          hintmask 00110100
          -17 callsubr
          hintmask 01010100
          43 callgsubr
          hintmask 00111000
          -22 -216 rlineto
          -17 callgsubr
          hintmask 10111000
          59 callsubr
          vhcurveto
          endchar
        </CharString>
        <CharString name="hbar">
          -26 -8 119 298 122 0 -20 72 95 76 -20 hstemhm
          89.5 150 27.5 108 callgsubr
          hintmask 10111010
          445 92 callsubr
          hvcurveto
          hintmask 00111101
          20 16 137 12 102 vhcurveto
          91 11 -37 48 -73 hhcurveto
          -57 -45 -32 -36 -30 hvcurveto
          13 120 rlineto
          54 hlineto
          26 12 140 callsubr
          -26 hhcurveto
          -57 hlineto
          5 44 rlineto
          151 callsubr
          -40 hhcurveto
          -34 -1 callgsubr
          -5 -44 rlineto
          -22 hlineto
          -24 -12 -12 -28 -3 hvcurveto
          -3 -15 rlineto
          -28 -2 8 -12 24 hhcurveto
          25 hlineto
          -58 -553 39 callgsubr
          34 hlineto
          39 20 10 22 3 hvcurveto
          hintmask 01011101
          43 callgsubr
          hintmask 10111010
          -22 -216 rlineto
          -42 callgsubr
          endchar
        </CharString>
        <CharString name="hcircumflex">
          -26 409 122 149 callsubr
          45 146 hstemhm
          267 108 callgsubr
          hintmask 01111000
          71 779 -107 callgsubr
          290 -787 52 callsubr
          hvcurveto
          hintmask 01100100
          -17 callsubr
          hintmask 10100100
          43 callgsubr
          hintmask 01101000
          -22 -216 rlineto
          -17 callgsubr
          hintmask 01111000
          59 callsubr
          vhcurveto
          endchar
        </CharString>
        <CharString name="hookabovecomb">
          -511 690 61 hstem
          -203 87 vstem
          -216 570 -91 callsubr
          endchar
        </CharString>
        <CharString name="hungarumlaut">
          -204 127 callgsubr
          -40 354 vstem
          -11 575 -76 callsubr
          endchar
        </CharString>
        <CharString name="hyphen">
          -255 212 107 hstem
          12.25 231.07 vstem
          37 212 rmoveto
          171 hlineto
          20 10 22 callgsubr
          -7 15 -20 hhcurveto
          -171 hlineto
          -20 -11 -4 callgsubr
          8 -15 20 hhcurveto
          endchar
        </CharString>
        <CharString name="i">
          -257 525 109 callgsubr
          -90 112 callgsubr
          hintmask 11010000
          153 -80 callsubr
          hintmask 11100000
          -30 -586 -96 callsubr
          endchar
        </CharString>
        <CharString name="i.loclTRK">
          -257 525 109 callgsubr
          -88 112 callgsubr
          hintmask 11010000
          155 -80 callsubr
          hintmask 11100000
          -32 -586 -96 callsubr
          endchar
        </CharString>
        <CharString name="iacute">
          -257 525 156 callgsubr
          250 hintmask 11010000
          119 575 rmoveto
          -106 callgsubr
          hintmask 11100000
          4 -583 -96 callsubr
          endchar
        </CharString>
        <CharString name="iacute_j.loclNLD">
          -8 112 callsubr
          620 156 callgsubr
          506 hintmask 11101000
          119 575 rmoveto
          -106 callgsubr
          256 hmoveto
          -106 callgsubr
          hintmask 11110000
          -252 -583 -96 callsubr
          144 -204 -80 callgsubr
        </CharString>
        <CharString name="ibreve">
          150 callgsubr
          70 91 hstemhm
          29 151 -151 266.16 hintmask 11010000
          153 -76 callgsubr
          hintmask 11100000
          -30 -583 -96 callsubr
          endchar
        </CharString>
        <CharString name="icircumflex">
          150 callgsubr
          67 146 hstemhm
          29 151 -151 249 hintmask 11010000
          49 572 -107 callgsubr
          hintmask 11100000
          74 -580 -96 callsubr
          endchar
        </CharString>
        <CharString name="idieresis">
          -257 525 103 callsubr
          23 114 -108 151 5 114 hintmask 11101000
          74 578 -103 callsubr
          hintmask 11010000
          -113 -586 -96 callsubr
          endchar
        </CharString>
        <CharString name="igrave">
          150 callgsubr
          70 159 hstemhm
          19 202 -192 151 hintmask 11100000
          179 575 -99 callsubr
          hintmask 11010000
          -56 -583 -96 callsubr
          endchar
        </CharString>
        <CharString name="ij">
          -8 112 callsubr
          620 109 callgsubr
          -90 137 119 112 callgsubr
          hintmask 11101100
          153 -80 callsubr
          256 hmoveto
          -107 callsubr
          hintmask 11110000
          -286 -586 -96 callsubr
          144 -204 -80 callgsubr
        </CharString>
        <CharString name="imacron">
          150 callgsubr
          92 95 hstemhm
          29 151 -151 257.31 hintmask 11010000
          60 597 -86 callgsubr
          hintmask 11100000
          63 -605 -96 callsubr
          endchar
        </CharString>
        <CharString name="infinity">
          119 111 111 -111 114 109 114 -111 111 hstemhm
          39 110 339 110 hintmask 00000000
          hintmask 10101100
          479 448 rmoveto
          -42 -63 -15 -90 -49 hvcurveto
          hintmask 01011100
          55 -16 -46 50 -63 hhcurveto
          -83 -68 -68 -98 -10 hvcurveto
          -98 -10 51 -73 78 hhcurveto
          42 63 15 90 49 hvcurveto
          hintmask 10011100
          -55 16 46 -50 63 hhcurveto
          83 67 68 98 11 hvcurveto
          hintmask 10101100
          98 10 -51 73 -78 hhcurveto
          hintmask 01011100
          -296 -223 rmoveto
          -26 -11 24 33 3 hvcurveto
          33 4 21 22 23 hhcurveto
          16 18 -12 -49 14 hvcurveto
          -43 -24 -25 -8 -13 hhcurveto
          hintmask 10101100
          305 52 rmoveto
          -33 -4 -21 -22 -23 hhcurveto
          -16 -18 12 49 -14 hvcurveto
          43 24 25 8 13 hhcurveto
          26 11 -24 -33 -3 hvcurveto
          endchar
        </CharString>
        <CharString name="integral">
          -213 -171 116 823 116 hstem
          -67.07 449.11 vstem
          23 -171 rmoveto
          100 62 89 168 18 hvcurveto
          19 184 6 167 18 168 rrcurveto
          118 13 14 45 29 22 6 -8 9 hhcurveto
          18 21 34 36 4 hvcurveto
          47 5 -73 7 -21 hhcurveto
          -101 -62 -89 -168 -18 hvcurveto
          -20 -191 -5 -164 -17 -164 rrcurveto
          -118 -13 -14 -45 -30 -21 -6 8 -10 hhcurveto
          -18 -21 -34 -36 -4 hvcurveto
          -47 -5 73 -7 22 hhcurveto
          endchar
        </CharString>
        <CharString name="iogonek">
          -257 -167 69 623 109 callgsubr
          -90 137 -112 67 hintmask 00000000
          hintmask 11101000
          153 -80 callsubr
          hintmask 11100100
          102 -672 rmoveto
          70 callgsubr
          -1 hlineto
          hintmask 11110000
          15 17 8 22 25 vvcurveto
          134 callsubr
          -91 callgsubr
          29 14 106 23 226 hvcurveto
          19 callsubr
          -37 -351 -33 callgsubr
          vhcurveto
          4 hlineto
          hintmask 11100100
          -9 -26 -3 -24 -15 35 callgsubr
        </CharString>
        <CharString name="itilde">
          150 callgsubr
          77 104 callsubr
          4 279 -254 151 hintmask 00000000
          hintmask 10110000
          35 580 rmoveto
          8 callsubr
          5 hhcurveto
          hintmask 11010000
          -50 callgsubr
          hintmask 10110000
          1 callsubr
          hintmask 11001000
          98 -591 -96 callsubr
          endchar
        </CharString>
        <CharString name="j">
          -262 112 callsubr
          620 103 callsubr
          92 112 callgsubr
          hintmask 11110000
          155 0 callsubr
        </CharString>
        <CharString name="jcircumflex">
          -262 112 callsubr
          620 -20 67 146 hstem
          -80 360 vstem
          51 572 -107 callgsubr
          -38 -784 -80 callgsubr
        </CharString>
        <CharString name="k">
          144 callgsubr
          34.77 432.23 -14 callgsubr
          endchar
        </CharString>
        <CharString name="kcommaaccent">
          144 callgsubr
          149 123 -14 callgsubr
          -188 -576 rmoveto
          -20 hlineto
          -41 -17 -17 -27 hvcurveto
          -80 -10 -25 -18 vvcurveto
          -16 26 -6 18 29 60 78 67 25 -12 19 -33 vhcurveto
          endchar
        </CharString>
        <CharString name="kgreenlandic">
          24 525 -20 hstem
          32 478 vstem
          172 525 rmoveto
          38 callgsubr
          -49 -463 rlineto
          -21 14 -11 43 vhcurveto
          28 18 callgsubr
          23 216 4 1 115 -230 rlineto
          -15 7 22 -4 29 hhcurveto
          42 hlineto
          45 13 7 11 5 -1 5 -4 8 hvcurveto
          -136 258 159 198 rlineto
          7 8 5 8 5 vvcurveto
          8 -18 6 -37 vhcurveto
          -37 hlineto
          -29 -21 -2 -17 -13 hvcurveto
          -140 -181 -4 1 18 167 rlineto
          21 -14 11 -43 vhcurveto
          endchar
        </CharString>
        <CharString name="l">
          -241 -8 117 645 -20 hstemhm
          40 148 hintmask 00000000
          hintmask 11100000
          153 -8 -64 callsubr
          endchar
        </CharString>
        <CharString name="lacute">
          -241 -8 117 645 -20 38 159 hstemhm
          40 148 hintmask 00000000
          hintmask 11110000
          145 772 rmoveto
          -106 callgsubr
          8 -780 rmoveto
          59 38 27 56 hvcurveto
          22 1 -7 16 -13 -5 -11 -4 -7 hhcurveto
          -17 -6 10 23 3 hvcurveto
          hintmask 11010000
          61 580 -55 callsubr
          -61 -578 rlineto
          hintmask 11110000
          79 callgsubr
          endchar
        </CharString>
        <CharString name="lcaron">
          -241 -8 117 591 -20 74 -20 hstem
          40 148 76 123 vstem
          153 -8 -64 callsubr
          156 519 rmoveto
          7 callsubr
          -16 27 -6 18 vhcurveto
          endchar
        </CharString>
        <CharString name="lcommaaccent">
          -241 -8 117 645 -20 hstemhm
          40 148 -133 123 hintmask 00000000
          hintmask 11100000
          153 -8 -64 callsubr
          hintmask 11010000
          -64 -232 -72 callgsubr
          endchar
        </CharString>
        <CharString name="ldot">
          -241 -8 117 180 140 325 -20 hstemhm
          40 148 42 136 hintmask 00000000
          hintmask 11111000
          153 -8 -64 callsubr
          138 297 29 callgsubr
        </CharString>
        <CharString name="less">
          -63 10.24 466.86 hstem
          25.88 407.24 vstem
          368 14 rmoveto
          17 -11 3 13 4 36 2 16 rcurveline
          3 33 1 15 -23 15 -193 114 rcurveline
          215 114 21 12 8 12 4 39 rlinecurve
          2 16 2 26 3 24 -32 -16 rlinecurve
          -349 -175 -18 -9 -7 -12 -3 -21 rlinecurve
          -2 -19 -2 -22 5 -12 17 -8 rlinecurve
          endchar
        </CharString>
        <CharString name="lessequal">
          -58 0 107 hstem
          1.74 434.94 vstem
          368 138 rmoveto
          24 -12 4 3 4 42 3 26 rcurveline
          2 21 -6 11 -15 9 -194 106 rcurveline
          215 106 16 9 9 9 4 43 rlinecurve
          1 6 5 45 -5 1 -27 -12 rlinecurve
          -344 -156 -19 -8 -8 -12 -2 -21 rlinecurve
          -2 -19 -2 -21 5 -12 17 -8 rlinecurve
          -31 -294 43 callsubr
        </CharString>
        <CharString name="logicalnot">
          -62 242 107 hstem
          22.66 410.34 vstem
          331 72 rmoveto
          40 hlineto
          26 12 140 callgsubr
          22 205 rlineto
          28 3 -10 12 -26 hhcurveto
          -342 72 callgsubr
          -1 -7 66 callgsubr
          20 hhcurveto
          266 hlineto
          -15 -138 rlineto
          -21 -2 10 -11 25 hhcurveto
          endchar
        </CharString>
        <CharString name="longs">
          -238 406 117 0 -20 140 117 0 -20 hstemhm
          36.82 309.18 hintmask 01011000
          93 116 callgsubr
          hintmask 01101000
          60 570 rlineto
          30 3 10 13 22 8 13 -5 7 hhcurveto
          20 17 64 8 1 hvcurveto
          40 4 -66 10 -30 hhcurveto
          -91 -55 -51 -111 -12 hvcurveto
          -8 -75 rlineto
          -12 hlineto
          -21 -10 -15 -35 -4 hvcurveto
          hintmask 10011000
          31 callsubr
          21 hhcurveto
          12 hlineto
          -39 -376 rlineto
          hintmask 01011000
          -21 -3 17 -11 42 hhcurveto
          endchar
        </CharString>
        <CharString name="lozenge">
          -65 -8 718 hstem
          35 395.12 vstem
          428 372 rmoveto
          -93 313 rlineto
          20 -6 -23 5 -30 hhcurveto
          -11 hlineto
          -29 -24 -5 -20 -10 hvcurveto
          -159 -313 -5 -8 -2 -8 -1 -8 rlinecurve
          -1 -8 1 -7 3 -9 88 -307 rcurveline
          -20 6 23 -5 29 hhcurveto
          22 hlineto
          30 23 5 20 10 hvcurveto
          154 307 5 9 1 7 1 8 rlinecurve
          1 8 -1 8 -2 8 rrcurveto
          -213 -203 rmoveto
          -40 179 78 172 36 -172 rlineto
          endchar
        </CharString>
        <CharString name="lslash">
          -241 -8 117 418 -20 247 -20 hstemhm
          15 44 -19 148 hintmask 11110000
          274 527 rmoveto
          -4 -5 -1 -4 -6 hvcurveto
          -33 -20 23 220 -55 callsubr
          -33 -316 -27 -16 rlineto
          -18 -11 -8 -14 -21 vvcurveto
          -20 vlineto
          -14 3 -6 7 4 5 2 4 7 vhcurveto
          18 11 rlineto
          hintmask 11101000
          -19 -177 rlineto
          79 callgsubr
          59 38 27 56 hvcurveto
          22 1 -7 16 -13 -5 -11 -4 -7 hhcurveto
          -17 -6 10 23 3 hvcurveto
          29 274 42 26 rlineto
          18 11 8 12 22 vvcurveto
          20 vlineto
          hintmask 11110000
          14 -4 6 -7 vhcurveto
          endchar
        </CharString>
        <CharString name="m">
          209 113 callsubr
          293 192 -167 153 hintmask 00000000
          hintmask 10011010
          679 92 callsubr
          5 16 146 11 108 hvcurveto
          91 10 -33 48 -73 hhcurveto
          -64 -49 -35 -35 -29 hvcurveto
          47 -10 -32 23 -52 hhcurveto
          -62 -47 -38 -38 -30 hvcurveto
          hintmask 01001000
          -75 callgsubr
          hintmask 00101010
          37 77 callsubr
          6 -18 -33 -3 hvcurveto
          -35 -328 17 callsubr
          34 46 callgsubr
          37 352 rlineto
          15 14 18 12 20 hhcurveto
          29 6 -18 -33 -3 hvcurveto
          hintmask 10010100
          -19 -190 -6 -55 -13 155 callsubr
          hintmask 10011010
          134 callsubr
          endchar
        </CharString>
        <CharString name="macron">
          -256 597 115 callsubr
          597 -86 callgsubr
          endchar
        </CharString>
        <CharString name="minus">
          -62 172 107 hstem
          13.25 415.21 vstem
          38 172 rmoveto
          355 hlineto
          21 9 22 callgsubr
          -6 15 -21 hhcurveto
          -355 hlineto
          -20 -11 -4 callgsubr
          8 -15 20 hhcurveto
          endchar
        </CharString>
        <CharString name="multiply">
          -63 10.5 461.78 hstem
          4.87 400.13 vstem
          390 439 rmoveto
          -20 18 -14 12 -15 15 -21 -26 rlinecurve
          -108 -132 -83 134 -11 17 -9 -1 -32 -25 rlinecurve
          -9 -7 -29 -24 -5 -12 14 -19 rlinecurve
          91 -146 -122 -148 -18 -19 1 -12 25 -24 rlinecurve
          7 -7 26 -25 9 -4 16 16 rlinecurve
          115 140 81 -134 17 -26 17 15 16 12 rlinecurve
          24 18 21 16 6 6 -13 24 rlinecurve
          -95 153 121 145 19 24 -5 10 -17 16 rlinecurve
          endchar
        </CharString>
        <CharString name="n">
          113 callsubr
          58 192 -167 153 hintmask 00000000
          hintmask 10011100
          444 92 callsubr
          hvcurveto
          hintmask 00011010
          -39 callgsubr
          hintmask 01001010
          -75 callgsubr
          hintmask 00101010
          -48 callgsubr
          hintmask 10011100
          -42 callgsubr
          endchar
        </CharString>
        <CharString name="nacute">
          2 callsubr
          64 159 37 callgsubr
          hintmask 00011101
          238 575 rmoveto
          -106 callgsubr
          hintmask 10011110
          206 -462 3 callgsubr
          hvcurveto
          hintmask 00011101
          -39 callgsubr
          hintmask 01001101
          -75 callgsubr
          hintmask 00101101
          -48 callgsubr
          hintmask 10011110
          -42 callgsubr
          endchar
        </CharString>
        <CharString name="nacute.loclPLK">
          2 callsubr
          64 159 37 callgsubr
          hintmask 10011101
          248 575 -72 callsubr
          hintmask 10011110
          196 -462 3 callgsubr
          hvcurveto
          hintmask 10011101
          -39 callgsubr
          hintmask 11001101
          -75 callgsubr
          hintmask 10101101
          -48 callgsubr
          hintmask 10011110
          -42 callgsubr
          endchar
        </CharString>
        <CharString name="napostrophe">
          2 callsubr
          21 189 hstemhm
          36 123 -101 150 58 192 -167 153 hintmask 0000000000000000
          hintmask 1000110100000000
          70 532 -72 callgsubr
          374 -419 3 callgsubr
          hvcurveto
          hintmask 0001001010000000
          -39 callgsubr
          hintmask 0100001010000000
          -75 callgsubr
          hintmask 0010001010000000
          -48 callgsubr
          hintmask 1001010100000000
          -1 -10 -2 -24 -8 155 callsubr
          hintmask 1000110100000000
          134 callsubr
          endchar
        </CharString>
        <CharString name="ncaron">
          2 callsubr
          61 146 37 callgsubr
          hintmask 10011101
          269 572 -103 callgsubr
          hintmask 10011110
          175 -459 3 callgsubr
          hvcurveto
          hintmask 10011101
          -39 callgsubr
          hintmask 11001101
          -75 callgsubr
          hintmask 10101101
          -48 callgsubr
          hintmask 10011110
          -42 callgsubr
          endchar
        </CharString>
        <CharString name="ncommaaccent">
          113 callsubr
          -40 123 -25 192 -167 153 hintmask 00000000
          hintmask 10010010
          444 92 callsubr
          hvcurveto
          hintmask 00011001
          -39 callgsubr
          hintmask 01001000
          -75 callgsubr
          hintmask 00101001
          -48 callgsubr
          hintmask 10010010
          -42 callgsubr
          hintmask 00010100
          -242 -353 -72 callgsubr
          endchar
        </CharString>
        <CharString name="nine">
          -52 269 117 202 117 hstem
          299.57 149.8 vstem
          86 -7 rmoveto
          12 309 67 384 40 hvcurveto
          193 20 -100 68 -100 hhcurveto
          -99 -114 -62 -162 -17 hvcurveto
          -162 -17 97 -50 62 hhcurveto
          24 26 4 20 34 hvcurveto
          -36 -99 -71 -67 -96 -30 -12 -3 -2 -4 -1 -14 rrcurveto
          -20 -3 10 -63 34 hhcurveto
          155 393 rmoveto
          -41 -19 38 61 6 hvcurveto
          61 7 29 42 30 hhcurveto
          32 23 -33 -99 -11 hvcurveto
          -2 -19 -1 -18 -3 -18 rrcurveto
          -9 -17 -17 -6 -16 hhcurveto
          endchar
        </CharString>
        <CharString name="notequal">
          -63 121 callsubr
          408 374 rmoveto
          -36 hlineto
          16 25 rlineto
          37 23 -9 20 -43 hhcurveto
          -27 hlineto
          -28 -14 -11 -19 -12 hvcurveto
          -32 -52 rlineto
          -180 hlineto
          -18 -8 -4 callgsubr
          5 -15 18 hhcurveto
          125 hlineto
          -46 -74 rlineto
          -87 hlineto
          -18 -8 -4 callgsubr
          5 -15 18 hhcurveto
          32 hlineto
          -26 -43 rlineto
          -22 -13 12 -19 38 hhcurveto
          27 hlineto
          28 13 9 21 13 hvcurveto
          34 54 rlineto
          184 hlineto
          17 7 22 callgsubr
          -4 15 -17 hhcurveto
          -129 hlineto
          46 74 rlineto
          91 hlineto
          17 7 22 callgsubr
          -4 15 -17 hhcurveto
          endchar
        </CharString>
        <CharString name="ntilde">
          2 callsubr
          71 83 -54 83 37 callgsubr
          hintmask 1001011010000000
          141 44 callgsubr
          hintmask 1001101010000000
          -97 callsubr
          hintmask 1001011100000000
          -77 callgsubr
          314 -470 3 callgsubr
          hvcurveto
          hintmask 1001011010000000
          -39 callgsubr
          hintmask 1100011010000000
          -75 callgsubr
          hintmask 1010011010000000
          -48 callgsubr
          hintmask 1001011100000000
          -42 callgsubr
          endchar
        </CharString>
        <CharString name="numbersign">
          3 183 110 110 110 hstem
          4.26 523.47 vstem
          75 -2 rmoveto
          19 hlineto
          30 17 11 21 7 hvcurveto
          39 153 rlineto
          75 hlineto
          -21 -78 -17 -72 -1 -7 rrcurveto
          -19 -2 14 -9 29 hhcurveto
          18 hlineto
          30 18 11 21 7 hvcurveto
          38 153 rlineto
          69 hlineto
          21 10 87 callsubr
          10 71 callgsubr
          -53 hlineto
          28 110 rlineto
          61 hlineto
          21 10 87 callsubr
          10 71 callgsubr
          -45 hlineto
          36 142 rlineto
          20 4 -14 11 -30 131 callgsubr
          -77 hlineto
          36 142 rlineto
          20 4 -13 11 -31 131 callgsubr
          -64 hlineto
          -21 -10 -15 -35 -4 hvcurveto
          -1 -10 38 callsubr
          48 hlineto
          -28 -110 rlineto
          -60 hlineto
          -21 -10 -15 -35 -4 hvcurveto
          -1 -10 38 callsubr
          44 hlineto
          -22 -78 -17 -73 -1 -4 rrcurveto
          -21 -3 14 -9 30 hhcurveto
          139 295 rmoveto
          28 110 rlineto
          76 hlineto
          -28 -110 rlineto
          endchar
        </CharString>
        <CharString name="o">
          -7 callsubr
          hstem
          -62 callsubr
          vstem
          210 -8 -89 callgsubr
        </CharString>
        <CharString name="oacute">
          -34 142 callsubr
          -62 callsubr
          vstem
          237 575 rmoveto
          -106 callgsubr
          -27 -583 -89 callgsubr
        </CharString>
        <CharString name="oacute.loclPLK">
          -34 142 callsubr
          -62 callsubr
          vstem
          247 575 -72 callsubr
          -37 -583 -89 callgsubr
        </CharString>
        <CharString name="obreve">
          -7 callsubr
          44 91 hstem
          -62 callsubr
          vstem
          271 -76 callgsubr
          -61 -583 -89 callgsubr
        </CharString>
        <CharString name="ocircumflex">
          -7 callsubr
          41 146 hstem
          -62 callsubr
          vstem
          167 572 -107 callgsubr
          43 -580 -89 callgsubr
        </CharString>
        <CharString name="odieresis">
          -7 callsubr
          47 124 hstemhm
          30.89 148.51 -38.4 114 42.6 148.53 -143.13 114 hintmask 00000000
          hintmask 11101010
          192 578 -103 callsubr
          hintmask 11110100
          -144 -586 -89 callgsubr
        </CharString>
        <CharString name="oe">
          210 -4 callsubr
          hstem
          30.64 148.76 113.6 154 125 134 vstem
          706 386 rmoveto
          -1 callsubr
          -61 -49 -19 -33 -38 hvcurveto
          33 -29 -42 19 -55 hhcurveto
          -141 -73 -95 -174 -18 hvcurveto
          -174 -18 54 -96 140 hhcurveto
          56 45 19 35 37 hvcurveto
          -35 33 49 -19 67 hhcurveto
          47 85 15 40 22 hvcurveto
          9 16 4 22 20 vvcurveto
          26 -6 22 -14 vhcurveto
          -17 -34 -44 -67 hhcurveto
          -45 -32 19 81 -2 hvcurveto
          -4 20 23 -2 31 hhcurveto
          106 79 72 111 hvcurveto
          -483 -277 -92 callsubr
          231 183 rmoveto
          36 callsubr
        </CharString>
        <CharString name="ogonek">
          -255 -183 69 hstem
          43 67 vstem
          140 -183 rmoveto
          19 20 4 8 17 hvcurveto
          12 7 5 10 14 vvcurveto
          87 callgsubr
          70 callgsubr
          -50 16 rlineto
          -27 -41 -7 -44 -24 vvcurveto
          -27 9 -67 88 vhcurveto
          endchar
        </CharString>
        <CharString name="ograve">
          -34 142 callsubr
          -62 callsubr
          vstem
          297 575 -99 callsubr
          -87 -583 -89 callgsubr
        </CharString>
        <CharString name="ohorn">
          -7 callsubr
          -78 40 12 callgsubr
          -5.98001 78 hintmask 00000000
          hintmask 10110100
          518 546 rmoveto
          -88 callsubr
          -19 -13 -16 -21 -10 -14 3 7 -13 vhcurveto
          hintmask 11010100
          15 -30 -31 13 -42 -70 callsubr
          -38 callsubr
          hintmask 10110100
          131 callsubr
          hintmask 11011000
          -295 -437 -92 callsubr
          endchar
        </CharString>
        <CharString name="ohungarumlaut">
          -34 142 callsubr
          -62 callsubr
          vstem
          170 575 -76 callsubr
          -125 -583 -89 callgsubr
        </CharString>
        <CharString name="omacron">
          -7 callsubr
          66 95 hstem
          -62 callsubr
          vstem
          178 597 -86 callgsubr
          32 -605 -89 callgsubr
        </CharString>
        <CharString name="one">
          -52 0 117 587 -20 hstem
          14.26 402.05 vstem
          40 hmoveto
          339 hlineto
          21 14 callsubr
          3 -7 15 -21 hhcurveto
          -84 hlineto
          59 563 rlineto
          12 1 -23 12 -16 hhcurveto
          -226 -41 -17 -3 -10 -10 -2 -15 rlinecurve
          -28 -3 0 -56 26 hhcurveto
          110 15 -47 -449 rlineto
          -107 hlineto
          -21 -11 -15 -35 -3 117 callgsubr
          endchar
        </CharString>
        <CharString name="oneeighth">
          117 -5 69 285 69 282 -20 24 -20 hstemhm
          331 89 -61 87 38 89 -71 84 hintmask 11011001
          142 -53 callsubr
          1 54 callgsubr
          hintmask 11101001
          -10 callgsubr
          hintmask 11011001
          134 callgsubr
          298 -5 rmoveto
          hintmask 11011010
          86 40 62 58 6 hvcurveto
          6 59 -22 30 -28 20 rrcurveto
          hintmask 11010101
          25 14 27 23 5 53 rrcurveto
          59 7 -35 45 -71 hhcurveto
          -75 -46 -46 -63 -7 hvcurveto
          -5 -45 18 -25 22 -20 rrcurveto
          hintmask 11011001
          -29 -15 -28 -32 -6 -55 rrcurveto
          -65 -6 30 -57 86 hhcurveto
          hintmask 11010101
          33 265 rmoveto
          -17 12 -13 15 2 25 rrcurveto
          25 3 15 12 15 hhcurveto
          15 10 -13 -25 -2 hvcurveto
          -2 -21 -10 -17 -16 -13 rrcurveto
          hintmask 11011010
          -27 -196 rmoveto
          -20 -12 17 39 5 hvcurveto
          2 29 10 17 15 14 23 -15 18 -18 -4 -35 rrcurveto
          -24 -3 -13 -24 -21 hhcurveto
          endchar
        </CharString>
        <CharString name="onehalf">
          130 0 68 277 68 287 -20 24 -20 hstemhm
          513 88 hintmask 11011000
          142 -53 callsubr
          -5 54 callgsubr
          hintmask 11101000
          -10 callgsubr
          hintmask 11011000
          134 callgsubr
          209 hmoveto
          -47 callsubr
          endchar
        </CharString>
        <CharString name="onequarter">
          75 82 69 549 -20 24 -20 hstemhm
          429 86.5 hintmask 10110000
          142 -53 callsubr
          -6 54 callgsubr
          hintmask 11010000
          -10 callgsubr
          hintmask 10110000
          134 callgsubr
          322 -10 callsubr
        </CharString>
        <CharString name="ordfeminine">
          -230 437 68 137 66 -3 -20 hstemhm
          56 81.92 49.08 103 -100 78 -71.5 90.5 hintmask 10111000
          125 437 rmoveto
          32 18 19 18 12 hvcurveto
          -24 6 16 -12 26 hhcurveto
          36 19 23 28 7 -2 9 -6 hvcurveto
          -7 hlineto
          -5 -2 2 4 hvcurveto
          hintmask 10110100
          2 6 65 7 56 vhcurveto
          hintmask 10110010
          2 19 4 30 8 vvcurveto
          9 -11 5 -23 vhcurveto
          -7 hlineto
          -27 -3 -5 -18 -6 hvcurveto
          hintmask 11010010
          10 -10 -15 16 -30 hhcurveto
          -50 -39 -40 -90 -10 hvcurveto
          hintmask 10111000
          -65 -7 12 -76 64 hhcurveto
          35 68 rmoveto
          -22 -3 30 41 5 hvcurveto
          hintmask 11010100
          55 6 12 11 20 hhcurveto
          10 6 -2 -5 5 hvcurveto
          -5 -37 -8 -78 rlineto
          hintmask 10111000
          -4 -4 -9 -11 -13 hhcurveto
          endchar
        </CharString>
        <CharString name="ordmasculine">
          -219 439 79 112 79 hstem
          56 95 56 95 vstem
          165 439 rmoveto
          79 49 49 86 9 hvcurveto
          86 9 -38 49 -80 hhcurveto
          -80 -48 -49 -86 -9 hvcurveto
          -86 -9 39 -49 79 hhcurveto
          9 79 rmoveto
          -20 -8 14 42 5 hvcurveto
          42 4 11 14 20 hhcurveto
          19 6 -14 -42 -4 hvcurveto
          -42 -5 -9 -14 -19 hhcurveto
          endchar
        </CharString>
        <CharString name="oslash">
          -7 callsubr
          100 callgsubr
          455 509 -33 callsubr
        </CharString>
        <CharString name="oslashacute">
          -34 -8 117 305 117 44 159 100 callgsubr
          243 575 rmoveto
          -106 callgsubr
          212 -66 -33 callsubr
        </CharString>
        <CharString name="otilde">
          -7 callsubr
          51 83 -54 83 12 callsubr
          hintmask 11011100
          140 580 -3 callgsubr
          81 -591 -89 callgsubr
        </CharString>
        <CharString name="p">
          -27 -8 117 301 121 0 -20 hstemhm
          304.53 149.24 hintmask 10110000
          64 141 callgsubr
          20 107 callgsubr
          19 -54 95 -86 hhcurveto
          -49 -41 -30 -40 -24 hvcurveto
          25 -2 -2 36 -30 hhcurveto
          -25 -88 -8 -24 -3 hvcurveto
          -2 -20 10 -21 -11 -102 -54 -521 rcurveline
          -21 -3 17 -11 42 hhcurveto
          162 315 rmoveto
          -18 -12 7 7 -9 hvcurveto
          hintmask 11010000
          26 247 rlineto
          22 13 18 18 22 hhcurveto
          34 12 -42 -106 -12 hvcurveto
          hintmask 10110000
          -112 -11 -24 -41 -39 hhcurveto
          endchar
        </CharString>
        <CharString name="paragraph">
          -45 638 62 hstem
          47.1 450.9 vstem
          187 -171 rmoveto
          136 callgsubr
          78 hlineto
          -82 -779 rlineto
          -21 -3 9 -9 21 hhcurveto
          136 callgsubr
          21 hlineto
          21 10 9 20 2 hvcurveto
          1 vlineto
          23 2 -8 9 -21 hhcurveto
          -198 hlineto
          -109 -97 -75 -169 -18 hvcurveto
          -15 -149 67 -80 96 -14 -37 -354 rcurveline
          -21 -3 9 -9 21 hhcurveto
          endchar
        </CharString>
        <CharString name="parenleft">
          -262 -208 991 hstem
          10.2 115.23 vstem
          130 -208 rmoveto
          20 39 23 23 2 hvcurveto
          1 6 0 7 -3 7 -68 147 -4 133 16 149 15 150 33 133 98 147 5 7 1 7 1 6 rrcurveto
          23 2 -34 23 -20 hhcurveto
          -10 -10 -5 -11 -9 hvcurveto
          -111 -134 -60 -172 -18 -174 -19 -174 25 -171 82 -134 rrcurveto
          -11 7 9 -5 10 hhcurveto
          endchar
        </CharString>
        <CharString name="parenright">
          -262 -208 991 hstem
          128.15 115.22 vstem
          21 -208 rmoveto
          10 9 5 11 9 hvcurveto
          111 134 59 171 19 174 18 174 -24 172 -82 134 rrcurveto
          11 -7 -8 5 -10 hhcurveto
          -20 -40 -23 -23 -2 hvcurveto
          -1 -6 1 -7 3 -7 67 -147 3 -133 -15 -150 -16 -149 -33 -133 -96 -147 -5 -7 -2 -7 -1 -6 rrcurveto
          -23 -2 35 -23 20 hhcurveto
          endchar
        </CharString>
        <CharString name="partialdiff">
          -100 -10 124 190 123 184 123 hstem
          -2.13 140.13 136 140.99 vstem
          156 -10 rmoveto
          157 77 160 183 20 hvcurveto
          244 25 -69 157 -147 hhcurveto
          -98 -37 -42 -29 -3 hvcurveto
          -23 -2 26 -55 22 15 19 26 35 hhcurveto
          48 32 -54 -154 -2 hvcurveto
          17 -24 -27 7 -26 hhcurveto
          -96 -86 -91 -142 -15 hvcurveto
          -119 -13 45 -85 124 hhcurveto
          22 124 rmoveto
          -26 -21 12 72 7 hvcurveto
          64 7 29 42 37 hhcurveto
          16 16 -10 -21 15 hvcurveto
          -68 -7 -24 -91 -49 hhcurveto
          endchar
        </CharString>
        <CharString name="percent">
          175 -8 82 168 86 44 82 168 86 -6 -20 hstemhm
          60 53 callgsubr
          43 53 callgsubr
          hintmask 1111011100000000
          179 372 rmoveto
          13 callsubr
          101 callgsubr
          -26 -374 rmoveto
          33 hlineto
          20 14 9 19 11 hvcurveto
          hintmask 1110111100000000
          51 callgsubr
          hintmask 1111011100000000
          -12 -1 9 -8 17 hhcurveto
          34 456 rmoveto
          2 callgsubr
          308 -462 rmoveto
          hintmask 1111011110000000
          13 callsubr
          hintmask 1111011100000000
          101 callgsubr
          hintmask 1111011110000000
          8 82 rmoveto
          2 callgsubr
          endchar
        </CharString>
        <CharString name="period">
          -323 -2 156 hstemhm
          -5.23 158.45 123 callsubr
          49 -2 rmoveto
          hintmask 10100000
          -32 callsubr
          hintmask 11000000
          -13 callsubr
          endchar
        </CharString>
        <CharString name="periodcentered">
          -297 289 140 hstemhm
          52 136 hintmask 00000000
          hintmask 11000000
          113 289 29 callgsubr
        </CharString>
        <CharString name="perthousand">
          475 -8 82 168 86 44 82 168 86 -6 -20 hstemhm
          60 53 callgsubr
          43 53 callgsubr
          27 53 callgsubr
          hintmask 1111011101000000
          179 372 rmoveto
          13 callsubr
          101 callgsubr
          -26 -374 rmoveto
          33 hlineto
          20 14 9 19 11 hvcurveto
          hintmask 0000110000000000
          51 callgsubr
          hintmask 1111011101000000
          -12 -1 9 -8 17 hhcurveto
          34 456 rmoveto
          2 callgsubr
          308 -462 rmoveto
          hintmask 1100000110000000
          13 callsubr
          hintmask 1111011101000000
          101 callgsubr
          300 hmoveto
          hintmask 1100000001100000
          13 callsubr
          hintmask 1111011101000000
          101 callgsubr
          hintmask 1100000110000000
          -292 82 rmoveto
          2 callgsubr
          hintmask 1100000001100000
          300 hmoveto
          2 callgsubr
          endchar
        </CharString>
        <CharString name="pi">
          -4 406 117 hstem
          262.34 141.66 vstem
          89 -2 rmoveto
          5 hlineto
          37 31 9 20 9 hvcurveto
          31 85 34 170 17 124 rrcurveto
          48 hlineto
          -35 -287 rlineto
          -45 -6 -7 -76 59 hhcurveto
          23 hlineto
          45 23 12 18 1 hvcurveto
          1 5 -3 37 9 84 26 252 rcurveline
          34 hlineto
          20 11 11 22 5 hvcurveto
          2 9 5 25 2 19 rrcurveto
          20 2 -10 11 -22 hhcurveto
          -323 hlineto
          -63 -67 -9 -41 -5 hvcurveto
          -7 -1 -8 -72 37 hhcurveto
          11 18 10 2 36 hvcurveto
          -18 -122 -40 -155 -36 -98 rrcurveto
          -2 -4 -1 -3 -3 vvcurveto
          -13 -2 25 -10 42 hhcurveto
          endchar
        </CharString>
        <CharString name="plus">
          -62 182 107 hstem
          29 391 vstem
          250 473 132 callgsubr
          -101 118 callgsubr
          101 91 callsubr
          113 153 callsubr
          -113 154 callsubr
          endchar
        </CharString>
        <CharString name="plusminus">
          -62 0 107 206 107 hstem
          10 421 vstem
          266 604 132 callgsubr
          -104 118 callgsubr
          104 91 callsubr
          108 153 callsubr
          -108 154 callsubr
          106 -497 rmoveto
          -325 118 callgsubr
          325 hlineto
          33 4 50 23 23 -9 11 -17 hvcurveto
          endchar
        </CharString>
        <CharString name="product">
          89 570 130 hstem
          44 590 vstem
          608 700 rmoveto
          -526 hlineto
          -29 -9 -38 -52 -28 8 -12 18 hvcurveto
          49 90 callgsubr
          135 90 callgsubr
          54 hlineto
          29 9 38 52 28 -8 12 -18 hvcurveto
          endchar
        </CharString>
        <CharString name="q">
          -30 -8 117 301 121 -6 -20 26 -20 hstemhm
          30.12 148.9 hintmask 10011000
          295 141 callgsubr
          hintmask 10101000
          70 667 47 callgsubr
          -12 hlineto
          -30 -19 -4 -22 -8 hvcurveto
          hintmask 10011000
          -4 -12 -4 -14 -5 -12 rrcurveto
          40 -15 -40 30 -47 hhcurveto
          -91 -73 -96 -172 -18 hvcurveto
          -176 -19 51 -95 108 hhcurveto
          38 29 15 15 18 hvcurveto
          -20 -196 101 callsubr
          -69 315 rmoveto
          -40 -15 33 120 12 hvcurveto
          hintmask 11001000
          110 12 21 38 36 hhcurveto
          21 13 -15 -19 10 hvcurveto
          -26 -252 rlineto
          hintmask 10011000
          -8 -11 -15 -7 -18 hhcurveto
          endchar
        </CharString>
        <CharString name="question">
          -120 -2 156 422 132 hstemhm
          48 363.24 -350.74 152 39.5 158 hintmask 11100000
          138 222 rmoveto
          23 hlineto
          33 15 6 21 8 hvcurveto
          15 57 37 34 39 33 rrcurveto
          hintmask 11001000
          46 41 47 40 9 85 rrcurveto
          109 12 -74 60 -121 hhcurveto
          -72 -101 -29 -52 -6 hvcurveto
          -21 -2 29 -61 28 11 34 31 45 hhcurveto
          45 18 -21 -35 -4 hvcurveto
          -3 -33 -42 -37 -42 -46 -41 -47 -26 -48 -6 -58 rrcurveto
          hintmask 11100000
          -21 -2 13 -8 35 hhcurveto
          -26 -224 rmoveto
          hintmask 11010000
          143 callgsubr
          72 callsubr
          -32 hlineto
          -42 -19 -11 -21 -3 hvcurveto
          -9 -92 rlineto
          hintmask 11100000
          -21 -3 17 -11 42 hhcurveto
          endchar
        </CharString>
        <CharString name="questiondown">
          -120 -185 132 422 156 hstemhm
          -20.26 363.26 -362 158 39.5 152 hintmask 11100000
          279 525 rmoveto
          hintmask 11001000
          -32 hlineto
          -42 -19 -11 -21 -3 hvcurveto
          -9 -92 101 callsubr
          143 callgsubr
          hintmask 11100000
          72 callsubr
          -26 -224 rmoveto
          -23 hlineto
          -33 -15 -6 -21 -8 hvcurveto
          -15 -57 -37 -34 -39 -33 rrcurveto
          hintmask 11010000
          -46 -41 -47 -40 -9 -85 rrcurveto
          -109 -12 74 -60 121 hhcurveto
          72 101 29 52 6 hvcurveto
          21 2 -29 61 -28 -11 -34 -31 -45 hhcurveto
          -45 -18 21 35 4 hvcurveto
          3 33 42 37 42 46 41 47 26 48 6 58 rrcurveto
          hintmask 11100000
          21 2 -13 8 -35 hhcurveto
          endchar
        </CharString>
        <CharString name="quotedbl">
          -202 702 -20 hstemhm
          58 129 22 129 hintmask 11000000
          91 464 rmoveto
          8 callgsubr
          hintmask 11100000
          151 hmoveto
          8 callgsubr
          endchar
        </CharString>
        <CharString name="quotedblbase">
          -163 -125 279 hstem
          -39 371.21 vstem
          4 -125 5 callsubr
        </CharString>
        <CharString name="quotedblleft">
          -163 757 -20 hstem
          28 372 vstem
          84 478 rmoveto
          9 callgsubr
          166 hmoveto
          9 callgsubr
          endchar
        </CharString>
        <CharString name="quotedblright">
          -163 757 -20 hstem
          27 371.21 vstem
          70 478 5 callsubr
        </CharString>
        <CharString name="quoteleft">
          -301 757 -20 hstem
          40 206 vstem
          96 478 rmoveto
          9 callgsubr
          endchar
        </CharString>
        <CharString name="quoteright">
          -301 757 -20 hstem
          38 205.21 vstem
          81 478 41 callsubr
          endchar
        </CharString>
        <CharString name="quotesinglbase">
          -301 -125 279 hstem
          -25 205.21 vstem
          18 -125 41 callsubr
          endchar
        </CharString>
        <CharString name="quotesingle">
          -347 151 callgsubr
          61 129 vstem
          94 464 rmoveto
          8 callgsubr
          endchar
        </CharString>
        <CharString name="quotesingle.loclGUA">
          -340 700 -20 hstem
          40 151.35 vstem
          83 381 rmoveto
          26 2 65 110 17 163 rrcurveto
          25 3 -13 19 -35 hhcurveto
          -19 hlineto
          -42 -20 -17 -27 -3 hvcurveto
          -22 -253 rlineto
          -16 -2 27 -6 18 hhcurveto
          endchar
        </CharString>
        <CharString name="r">
          64 callgsubr
          hstemhm
          28 319 -282 148 hintmask 00110000
          85 132 callsubr
          2 hvcurveto
          hintmask 01010000
          61 callgsubr
          hintmask 10010000
          54 callsubr
          hintmask 00101000
          -28 callgsubr
          hintmask 00110000
          137 callgsubr
        </CharString>
        <CharString name="racute">
          64 callgsubr
          64 159 hstemhm
          28 319 -282 148 hintmask 00111000
          179 575 rmoveto
          -106 callgsubr
          -94 -577 rmoveto
          28 18 callgsubr
          hintmask 01011000
          61 callgsubr
          hintmask 10011000
          54 callsubr
          hintmask 00110100
          -28 callgsubr
          hintmask 00111000
          137 callgsubr
        </CharString>
        <CharString name="radical">
          -16 -156 970 hstem
          15 493 vstem
          259 -156 rmoveto
          23 hlineto
          34 18 10 21 5 hvcurveto
          169 908 rlineto
          11 vlineto
          12 -12 8 -30 vhcurveto
          -31 hlineto
          -32 -18 -10 -21 -4 hvcurveto
          -107 -630 rlineto
          -32 -6 -7 -83 2 hhcurveto
          -5 hlineto
          2 -14 65 50 -11 hvcurveto
          -48 218 rlineto
          15 -3 -11 8 -12 hhcurveto
          -17 -60 -30 -23 -44 hvcurveto
          -18 -9 -7 -7 -13 vvcurveto
          -9 3 -9 13 -31 vhcurveto
          -16 7 8 -8 13 hhcurveto
          7 17 5 9 16 hvcurveto
          101 -379 rlineto
          -22 6 22 -8 31 hhcurveto
          endchar
        </CharString>
        <CharString name="rcaron">
          64 callgsubr
          61 146 hstemhm
          28 324 -287 148 hintmask 00111000
          210 572 -103 callgsubr
          -125 -574 rmoveto
          28 18 callgsubr
          hintmask 01011000
          61 callgsubr
          hintmask 10011000
          54 callsubr
          hintmask 00110100
          -28 callgsubr
          hintmask 00111000
          137 callgsubr
        </CharString>
        <CharString name="rcommaaccent">
          64 callgsubr
          hstemhm
          43 123 -101 148 hintmask 00110000
          85 132 callsubr
          2 hvcurveto
          hintmask 01010000
          61 callgsubr
          hintmask 10001000
          54 callsubr
          -28 callgsubr
          hintmask 00110000
          22 callsubr
          -8 -240 -72 callgsubr
          endchar
        </CharString>
        <CharString name="registered">
          80 -8 64 254 74 91 73 96 64 hstem
          20 66 112 86 49 87 105 19 callgsubr
          -76 100 rmoveto
          22 hlineto
          23 9 6 12 hvcurveto
          136 2 vlineto
          24 0 -11 -22 5 hvcurveto
          36 -109 rlineto
          -9 3 11 -3 16 hhcurveto
          27 hlineto
          20 10 4 7 3 -1 3 -1 5 hvcurveto
          -39 124 -8 23 -15 19 -6 6 rlinecurve
          4 vlineto
          29 15 23 31 43 vvcurveto
          67 -30 38 -80 vhcurveto
          -92 hlineto
          -13 -7 -7 -15 hvcurveto
          -352 vlineto
          -12 10 -6 22 vhcurveto
          54 228 rmoveto
          91 27 vlineto
          14 8 -17 -26 -26 -10 -22 -9 hvcurveto
          endchar
        </CharString>
        <CharString name="ring">
          -255 550 62 73 64 hstem
          71 62 74 61 vstem
          158 550 -65 callgsubr
          endchar
        </CharString>
        <CharString name="s">
          95 callsubr
          26 callsubr
          -14 150 hintmask 11100000
          129 -8 rmoveto
          hintmask 11001000
          111 70 72 97 10 hvcurveto
          9 81 -40 36 -38 26 rrcurveto
          hintmask 11010000
          -34 24 -37 13 4 35 rrcurveto
          24 3 17 10 25 32 21 -18 9 hhcurveto
          17 30 57 24 2 hvcurveto
          43 5 -80 15 -49 hhcurveto
          -97 -74 -59 -102 -11 hvcurveto
          -9 -90 48 -34 40 -25 rrcurveto
          hintmask 11001000
          -27 callsubr
          hintmask 11100000
          -42 -5 76 -23 63 hhcurveto
          endchar
        </CharString>
        <CharString name="sacute">
          95 callsubr
          44 159 26 callsubr
          -14 150 hintmask 11110000
          169 575 rmoveto
          -106 callgsubr
          -40 -583 -69 callgsubr
        </CharString>
        <CharString name="sacute.loclPLK">
          95 callsubr
          44 159 26 callsubr
          -14 150 hintmask 11110000
          179 575 -72 callsubr
          -50 -583 -69 callgsubr
        </CharString>
        <CharString name="scaron">
          95 callsubr
          41 146 hstemhm
          -5.02 347.02 -308 150 -14 150 hintmask 11110000
          200 572 -103 callgsubr
          -71 -580 -69 callgsubr
        </CharString>
        <CharString name="scedilla">
          -158 -212 73 132 120 297 121 hstemhm
          34 150 -53 93 -54 150 hintmask 00000000
          hintmask 10110000
          229 410 rmoveto
          32 21 -18 9 hhcurveto
          17 30 57 24 2 hvcurveto
          43 5 -80 15 -49 hhcurveto
          -97 -74 -59 -102 -11 hvcurveto
          -9 -90 48 -34 40 -25 rrcurveto
          hintmask 11100100
          -27 callsubr
          hintmask 11101000
          -4 -37 59 -22 57 -5 rrcurveto
          -17 -46 -6 -18 -8 -60 callsubr
          13 44 rlineto
          hintmask 11100100
          85 17 53 65 9 83 9 81 -40 36 -38 26 rrcurveto
          hintmask 10110000
          -34 24 -37 13 4 35 rrcurveto
          24 3 17 10 25 hhcurveto
          endchar
        </CharString>
        <CharString name="scircumflex">
          95 callsubr
          41 146 26 callsubr
          -14 150 hintmask 11110000
          99 572 -107 callgsubr
          30 -580 -69 callgsubr
        </CharString>
        <CharString name="scommaaccent">
          95 callsubr
          hstemhm
          34 150 -102 123 -35 150 hintmask 11010000
          129 -8 rmoveto
          hintmask 11001000
          111 70 72 97 10 hvcurveto
          9 81 -40 36 -38 26 rrcurveto
          hintmask 11100000
          -34 24 -37 13 4 35 rrcurveto
          24 3 17 10 25 32 21 -18 9 hhcurveto
          17 30 57 24 2 hvcurveto
          43 5 -80 15 -49 hhcurveto
          -97 -74 -59 -102 -11 hvcurveto
          -9 -90 48 -34 40 -25 rrcurveto
          hintmask 11001000
          -27 callsubr
          hintmask 11010000
          -42 -5 76 -23 63 hhcurveto
          -13 -232 -72 callgsubr
          endchar
        </CharString>
        <CharString name="section">
          -156 -8 121 474 120 hstemhm
          23 127 -94 150 -39 150 -92 126 hintmask 11001000
          132 -8 rmoveto
          105 80 69 97 30 -5 26 -22 27 hvcurveto
          hintmask 11000100
          38 30 23 53 50 vvcurveto
          64 -28 38 -57 31 vhcurveto
          hintmask 11010000
          -29 15 -31 12 25 vvcurveto
          19 18 9 17 vhcurveto
          41 22 -19 8 hhcurveto
          18 32 63 20 43 -80 13 -43 -105 -78 -66 -98 -27 7 -30 21 -24 hvcurveto
          hintmask 11101000
          -41 -33 -20 -50 -46 vvcurveto
          -63 22 -38 59 -35 vhcurveto
          hintmask 11001000
          33 -19 30 -10 -24 vvcurveto
          -19 -14 -12 -20 vhcurveto
          -41 -19 24 -10 hhcurveto
          -20 -38 -63 -23 -41 77 -18 50 hvcurveto
          hintmask 11100100
          74 312 rmoveto
          -32 12 -28 13 4 35 1 11 4 13 13 10 33 -12 28 -13 -4 -35 -1 -12 -6 -12 -12 -10 rrcurveto
          endchar
        </CharString>
        <CharString name="semicolon">
          -323 369 156 hstemhm
          -78 269.22 123 callsubr
          87 369 rmoveto
          hintmask 10100000
          -32 callsubr
          hintmask 11000000
          -13 callsubr
          -124 -494 34 callsubr
        </CharString>
        <CharString name="seven">
          -52 583 117 hstem
          24 440 vstem
          79 -2 rmoveto
          37 hlineto
          29 23 4 16 7 hvcurveto
          285 579 2 3 1 5 1 5 rlinecurve
          31 3 -13 59 -11 hhcurveto
          -345 hlineto
          -21 -10 -15 -35 -4 117 callgsubr
          214 hlineto
          -267 -545 -4 -8 -4 -8 -1 -5 rlinecurve
          -12 -1 17 -7 39 hhcurveto
          endchar
        </CharString>
        <CharString name="six">
          -52 -8 117 202 117 276 -20 hstem
          24.63 149.77 vstem
          207 -8 rmoveto
          100 113 62 162 17 hvcurveto
          162 17 -98 50 -62 hhcurveto
          -23 -26 -4 -19 -34 hvcurveto
          36 98 70 67 98 30 11 4 2 3 2 14 rrcurveto
          20 2 -9 63 -34 hhcurveto
          -12 -310 -67 -384 -40 hvcurveto
          -193 -20 101 -68 99 hhcurveto
          13 117 rmoveto
          -31 -23 33 99 11 hvcurveto
          2 19 2 18 3 18 rrcurveto
          9 16 16 6 17 hhcurveto
          40 20 -38 -61 -6 hvcurveto
          -61 -7 -29 -42 -31 hhcurveto
          endchar
        </CharString>
        <CharString name="slash">
          -191 151 callgsubr
          -19 349 vstem
          22 25 callgsubr
        </CharString>
        <CharString name="space">
          -374 endchar
        </CharString>
</ttFont>
